<svg width="85" height="26" viewBox="0 0 85 26" fill="none" xmlns="http://www.w3.org/2000/svg">
<path d="M23.4916 2.77261C22.8149 1.24582 21.3216 0.265686 19.6571 0.265686H7.1463C5.43516 0.265686 3.96511 1.30049 3.31177 2.77652C1.75618 3.42472 0.717834 4.97493 0.717834 6.66573V19.2315C0.717834 20.9848 1.79118 22.4921 3.31177 23.1246C3.98845 24.6514 5.48183 25.6315 7.1463 25.6315H19.661C21.3721 25.6315 22.8421 24.5968 23.4955 23.1207C25.0511 22.4725 26.0894 20.9223 26.0894 19.2315V6.66573C26.0894 4.91245 25.0161 3.4052 23.4916 2.77261ZM7.1463 0.65617H19.661C21.0455 0.65617 22.3016 1.40591 22.9744 2.59689C22.9394 2.58908 22.9044 2.58127 22.8694 2.57346C22.7994 2.55784 22.7333 2.54222 22.6633 2.5266C22.5855 2.51098 22.5077 2.49926 22.4299 2.49145C22.3755 2.48364 22.3249 2.47584 22.2705 2.47193C22.1849 2.46412 22.0955 2.4602 22.0099 2.4602C21.971 2.4602 21.9321 2.45241 21.8932 2.45241C21.8777 2.45241 21.8582 2.45632 21.8427 2.45632C21.7765 2.45632 21.7105 2.46021 21.6444 2.46802C21.5588 2.47193 21.4771 2.47973 21.3955 2.48754C21.3877 2.48754 21.3799 2.48755 21.3682 2.49145C20.8899 2.07754 20.2871 1.85105 19.6571 1.85105H7.1463C6.49296 1.85105 5.89794 2.09315 5.43904 2.48754H5.43515L5.36515 2.55003C5.36126 2.55394 5.35736 2.56174 5.35347 2.56564C5.24847 2.66326 5.15125 2.7726 5.06569 2.88584C5.05403 2.90146 5.04235 2.91317 5.03457 2.92879C4.95291 3.04203 4.87515 3.16308 4.81292 3.29194C4.80515 3.30756 4.79735 3.31929 4.79346 3.33491C4.73124 3.46767 4.6768 3.60043 4.63402 3.74491C4.63013 3.75272 4.63013 3.76053 4.62624 3.76834C4.57957 3.92844 4.55236 4.09245 4.5368 4.26426L4.52125 4.4556H4.52512C4.52512 4.46731 4.52512 4.4751 4.52512 4.48682C4.52512 5.93942 5.7035 7.1187 7.1463 7.1187V8.30967C5.2096 8.30967 3.60734 6.84926 3.37011 4.96713L3.36622 4.94761C3.35844 4.88513 3.35456 4.83046 3.35067 4.7758C3.34289 4.67818 3.3351 4.58444 3.3351 4.48682C3.3351 4.35796 3.3429 4.2291 3.35456 4.10024C3.36234 4.03386 3.37399 3.96359 3.38566 3.89721C3.39344 3.83863 3.40122 3.78006 3.41288 3.72539C3.46344 3.47939 3.53733 3.23727 3.63456 3.00298L3.64624 2.97176C4.23347 1.60897 5.57905 0.65617 7.1463 0.65617ZM17.6932 6.72431H9.11022V6.66963C9.11022 4.74455 7.7802 3.06156 5.95239 2.58907C6.29851 2.3704 6.70685 2.24153 7.14241 2.24153H19.6571C20.0849 2.24153 20.4971 2.3665 20.851 2.59298C19.0387 3.05766 17.6932 4.7094 17.6932 6.66963V6.72431ZM21.8894 4.42435C21.8894 4.44388 21.8932 4.46341 21.8932 4.47902C21.8932 5.71686 20.8899 6.7204 19.661 6.7204V6.66573C19.6571 5.4318 20.6566 4.42435 21.8894 4.42435ZM19.6571 7.11479C21.1038 7.11479 22.2783 5.93163 22.2783 4.48293C22.2783 4.47512 22.2783 4.4712 22.2783 4.46339C22.2822 4.46339 22.2899 4.46339 22.2938 4.4673C22.391 4.48682 22.4882 4.51025 22.5816 4.54149C22.5932 4.5454 22.6011 4.54931 22.6127 4.55322C22.6983 4.58446 22.7838 4.61958 22.8655 4.65863C22.8771 4.66644 22.8888 4.67037 22.9044 4.67818C22.9938 4.72503 23.0833 4.77578 23.1649 4.83435C23.1688 4.83826 23.1727 4.84218 23.1805 4.84608C23.2622 4.90465 23.3399 4.96713 23.4138 5.03741C23.4177 5.04132 23.4216 5.04523 23.4255 5.04523C23.1533 6.91174 21.551 8.30967 19.661 8.30967H17.6971H9.11412V7.1187H17.6971H19.6571V7.11479ZM24.1255 6.66573V19.2315C24.1255 19.6806 23.9933 20.1101 23.7483 20.4771C23.3205 18.6067 21.6521 17.2049 19.661 17.2049V8.69625C21.6327 8.69625 23.3205 7.31784 23.7483 5.42399C23.9855 5.77933 24.1255 6.20495 24.1255 6.66573ZM21.8894 21.4729C20.6605 21.4729 19.6571 20.4654 19.6571 19.2315V19.1769C20.8899 19.1769 21.8894 20.1843 21.8894 21.4182C21.8933 21.4377 21.8894 21.4573 21.8894 21.4729ZM19.2682 19.1769V19.2315C19.2682 20.6685 20.4193 21.8399 21.8466 21.8634C21.8271 21.9649 21.7999 22.0625 21.7649 22.1562C21.761 22.1718 21.7532 22.1836 21.7493 22.1992C21.6793 22.3866 21.586 22.5662 21.4654 22.7302C21.4577 22.742 21.446 22.7576 21.4382 22.7693C21.376 22.8513 21.3138 22.9255 21.2399 22.9997C19.4315 22.6873 18.0821 21.0824 18.0821 19.2315V19.1769V17.2049V8.69625H19.2682V17.2049V19.1769ZM9.11022 19.1769H17.6932V19.2315C17.6932 21.1566 19.0232 22.8396 20.851 23.3121C20.5049 23.5307 20.0965 23.6596 19.661 23.6596H7.1463C6.71852 23.6596 6.30628 23.5346 5.95239 23.3082C7.76464 22.8435 9.11022 21.1917 9.11022 19.2315V19.1769ZM4.91402 21.4729C4.91402 21.4534 4.91015 21.4338 4.91015 21.4182C4.91015 20.1804 5.9135 19.1769 7.14241 19.1769V19.2315C7.1463 20.4693 6.14293 21.4729 4.91402 21.4729ZM7.1463 18.7864C5.69961 18.7864 4.52512 19.9695 4.52512 21.4182C4.52512 21.426 4.52512 21.4299 4.52512 21.4377H4.52125C4.41625 21.4182 4.31123 21.3909 4.21012 21.3596C4.11289 21.3284 4.01568 21.2855 3.92623 21.2425C3.91845 21.2386 3.91068 21.2347 3.90679 21.2308C3.81345 21.1839 3.72401 21.1293 3.63845 21.0707C3.63456 21.0668 3.63066 21.0668 3.63066 21.0629C3.549 21.0043 3.47123 20.9418 3.39734 20.8715C3.39345 20.8676 3.38955 20.8637 3.38566 20.8598C3.65789 18.9933 5.26014 17.5954 7.15017 17.5954H9.11412H17.6971V18.7864H9.11412H7.1463ZM2.67786 19.2315V6.66573C2.67786 6.21667 2.8101 5.78714 3.05511 5.42008C3.48289 7.2905 5.15126 8.69234 7.14241 8.69234V17.201C5.1707 17.201 3.48289 18.5794 3.05511 20.4732C2.81788 20.1218 2.67786 19.6923 2.67786 19.2315ZM4.91402 4.42435C6.14682 4.42435 7.1463 5.4318 7.1463 6.66573V6.7204C5.9135 6.7204 4.91402 5.71295 4.91402 4.47902C4.91013 4.4595 4.91402 4.44388 4.91402 4.42435ZM7.5352 6.72431V6.66963C7.5352 5.23265 6.38406 4.0612 4.95681 4.03778C4.97626 3.93625 5.00347 3.83863 5.03847 3.74491C5.04236 3.72929 5.05015 3.71758 5.05404 3.70197C5.12404 3.51453 5.21737 3.33489 5.33792 3.17089C5.3457 3.15917 5.35737 3.14356 5.36515 3.13185C5.42737 3.04985 5.4896 2.97565 5.56349 2.90145C7.37186 3.21384 8.72133 4.81874 8.72133 6.66963V6.72431V8.69625V17.2049H7.5352V8.69625V6.72431ZM9.11022 8.69625H17.6932V17.2049H9.11022V8.69625ZM1.10284 19.2315V6.66573C1.10284 5.25998 1.89618 3.95576 3.11732 3.29585C3.11343 3.31537 3.10955 3.331 3.10566 3.35052C3.06677 3.4989 3.03177 3.6473 3.00844 3.79959C3.00066 3.84644 2.99289 3.8933 2.989 3.94015C2.96567 4.11587 2.9501 4.2955 2.9501 4.47902C2.9501 4.58446 2.95789 4.69378 2.96567 4.81484C2.96956 4.84217 2.96565 4.8734 2.96954 4.90073C2.53008 5.38493 2.28897 6.00971 2.28897 6.66573V19.2315C2.28897 19.9109 2.54953 20.5279 2.96954 20.9926V20.9965L3.03567 21.0629C3.03567 21.0629 3.03956 21.0629 3.03956 21.0668C3.14456 21.1761 3.26121 21.2737 3.38566 21.3636C3.39344 21.3675 3.40121 21.3753 3.40899 21.3831C3.52955 21.469 3.6579 21.5432 3.79013 21.6056C3.80179 21.6096 3.80955 21.6174 3.82122 21.6213C3.95344 21.6837 4.09345 21.7345 4.23734 21.7736C4.24512 21.7775 4.25679 21.7775 4.26457 21.7814C4.40846 21.8204 4.56014 21.8439 4.71181 21.8556C4.7157 21.8556 4.71568 21.8556 4.71957 21.8556L4.94903 21.8712V21.8634C6.38017 21.8438 7.53907 20.6724 7.53907 19.2315V19.1769H8.72522V19.2315C8.72522 21.1683 7.28242 22.7693 5.4196 23.0192C5.29515 23.0348 5.17459 23.0465 5.05015 23.0504C5.01514 23.0504 4.98014 23.0544 4.94514 23.0544C4.79736 23.0544 4.64957 23.0505 4.50179 23.0309C4.46679 23.027 4.4318 23.0192 4.39291 23.0153C4.27624 22.9997 4.15956 22.9802 4.04289 22.9489C4.00789 22.9411 3.97291 22.9294 3.93791 22.9216C3.80957 22.8864 3.68122 22.8474 3.55677 22.7966C3.52955 22.7849 3.50234 22.7771 3.47512 22.7654L3.42067 22.7459C2.05953 22.164 1.10284 20.8091 1.10284 19.2315ZM19.6571 25.2411H7.1463C5.76183 25.2411 4.50569 24.4913 3.8329 23.3004C3.86012 23.3082 3.89122 23.3121 3.92234 23.3199C4.00012 23.3394 4.07789 23.3589 4.15956 23.3706C4.22567 23.3824 4.29179 23.3941 4.3579 23.4019C4.42012 23.4097 4.48623 23.4175 4.54845 23.4253C4.63012 23.4331 4.70792 23.437 4.78959 23.437C4.83237 23.437 4.87124 23.4448 4.91402 23.4448C4.93346 23.4448 4.94902 23.4409 4.96847 23.4409C5.04236 23.4409 5.11625 23.4331 5.18625 23.4292C5.25625 23.4253 5.33014 23.4214 5.40014 23.4136C5.4118 23.4136 5.42349 23.4136 5.43904 23.4097C5.91738 23.8236 6.52018 24.0501 7.1463 24.0501H19.661C20.3143 24.0501 20.9093 23.808 21.3682 23.4136H21.3721L21.4421 23.3511C21.446 23.3472 21.4499 23.3394 21.4538 23.3355C21.5588 23.2379 21.656 23.1285 21.7416 23.0153C21.7533 22.9997 21.7649 22.988 21.7727 22.9723C21.8544 22.8591 21.9321 22.7381 21.9943 22.6092C22.0021 22.5936 22.0099 22.5819 22.0138 22.5663C22.076 22.4374 22.1305 22.3007 22.1733 22.1562C22.1772 22.1484 22.1772 22.1406 22.181 22.1328C22.2277 21.9727 22.2549 21.8087 22.2705 21.6369L22.2821 21.4494H22.2783C22.2783 21.4377 22.2783 21.4299 22.2783 21.4182C22.2783 19.9656 21.0999 18.7864 19.6571 18.7864V17.5954C21.6055 17.5954 23.2116 19.0714 23.4372 20.9692C23.4566 21.1293 23.4644 21.2777 23.4644 21.4221C23.4644 21.551 23.4566 21.6798 23.445 21.8048C23.4333 21.9063 23.4177 22.004 23.3982 22.1055C23.3944 22.1289 23.3905 22.1562 23.3866 22.1797C23.3361 22.4257 23.2621 22.6678 23.1649 22.9021L23.1494 22.9411C22.5661 24.2922 21.2205 25.2411 19.6571 25.2411ZM25.7005 19.2315C25.7005 20.6372 24.9072 21.9415 23.6861 22.6014C23.69 22.5858 23.6938 22.5701 23.6977 22.5545C23.7405 22.4022 23.7716 22.2499 23.7988 22.0938C23.8066 22.0469 23.8144 22.004 23.8183 21.9571C23.8416 21.7814 23.8572 21.6018 23.8572 21.4182C23.8572 21.2777 23.8494 21.1371 23.8377 20.9965C24.2772 20.5123 24.5183 19.8875 24.5183 19.2315V6.66573C24.5183 5.98628 24.2577 5.36931 23.8377 4.90464V4.90073L23.7716 4.83435C23.6666 4.72502 23.5499 4.62739 23.4255 4.53758C23.4177 4.52977 23.4099 4.52587 23.3982 4.51806C23.2816 4.43606 23.1571 4.36187 23.0249 4.29939C23.0094 4.29158 22.9977 4.28378 22.9821 4.27987C22.8538 4.2213 22.7216 4.17444 22.5816 4.1354C22.566 4.13149 22.5466 4.12757 22.5271 4.11976C22.391 4.08462 22.251 4.06119 22.1032 4.04948C22.0955 4.04948 22.0916 4.04559 22.0877 4.04559L21.8582 4.02996V4.04168C20.4271 4.0573 19.2682 5.23266 19.2682 6.67354V6.72822H18.0821V6.67354C18.0821 4.74065 19.5171 3.14357 21.376 2.88975C21.5082 2.87023 21.6366 2.86241 21.7649 2.85851C21.8038 2.85851 21.8388 2.8546 21.8777 2.8546C22.0177 2.8546 22.1538 2.86243 22.2899 2.87414C22.3599 2.88195 22.426 2.89365 22.4921 2.90536C22.5738 2.91708 22.6555 2.93269 22.7371 2.95222C22.7916 2.96393 22.8422 2.97957 22.8966 2.99519C23.0055 3.02643 23.1144 3.06156 23.2233 3.1006C23.2699 3.12013 23.3205 3.13575 23.371 3.15528H23.3749C24.74 3.7371 25.7005 5.09599 25.7005 6.67745V19.2315Z" fill="#636466"/>
<path d="M39.8303 4.39581V7.89868H35.7943V4.39581H33.7383V13.2799H35.7943V9.63742H39.8303V13.2799H41.8863V4.39581H39.8303Z" fill="#636466"/>
<path d="M45.397 11.63V9.57397H49.5217V7.97483H45.397V6.04571H50.0675V4.39581H43.3536V13.2799H50.2325V11.63H45.397Z" fill="#636466"/>
<path d="M51.2338 13.2799H57.7446V11.6046H53.2898V4.39581H51.2338V13.2799Z" fill="#636466"/>
<path d="M60.3021 11.63V9.57397H64.4269V7.97483H60.3021V6.04571H64.9726V4.39581H58.2588V13.2799H65.1376V11.63H60.3021Z" fill="#636466"/>
<path d="M72.2563 4.39581V9.78972L67.8396 4.39581H66.1389V13.2799H68.1696V7.88599L72.5989 13.2799H74.2869V4.39581H72.2563Z" fill="#636466"/>
<path d="M82.392 13.2799H84.5495L80.5771 4.39581H78.5464L74.5867 13.2799H76.6935L77.4803 11.3762H81.6051L82.392 13.2799ZM78.1403 9.81511L79.5491 6.41377L80.9578 9.81511H78.1403Z" fill="#636466"/>
<path d="M34.2533 20.9273H33.4904V22.2414H33.0598V18.9931H34.1351C34.501 18.9931 34.7821 19.0764 34.9784 19.243C35.1762 19.4095 35.2751 19.652 35.2751 19.9703C35.2751 20.1725 35.2201 20.3488 35.11 20.499C35.0014 20.6492 34.8497 20.7615 34.6549 20.8359L35.4179 22.2146V22.2414H34.9583L34.2533 20.9273ZM33.4904 20.5771H34.1485C34.3612 20.5771 34.53 20.522 34.6549 20.412C34.7813 20.3019 34.8445 20.1547 34.8445 19.9703C34.8445 19.7695 34.7843 19.6155 34.6638 19.5085C34.5448 19.4014 34.3723 19.3471 34.1463 19.3456H33.4904V20.5771Z" fill="#636466"/>
<path d="M38.3761 20.7221C38.3761 21.0404 38.3226 21.3185 38.2155 21.5565C38.1084 21.7929 37.9567 21.9736 37.7604 22.0986C37.564 22.2235 37.335 22.286 37.0732 22.286C36.8174 22.286 36.5906 22.2235 36.3928 22.0986C36.195 21.9722 36.0411 21.7929 35.931 21.5609C35.8224 21.3274 35.7667 21.0575 35.7637 20.7511V20.5168C35.7637 20.2045 35.818 19.9286 35.9265 19.6892C36.0351 19.4497 36.1883 19.2668 36.3861 19.1403C36.5854 19.0124 36.813 18.9485 37.0688 18.9485C37.3291 18.9485 37.5581 19.0117 37.7559 19.1381C37.9552 19.263 38.1084 19.4452 38.2155 19.6847C38.3226 19.9227 38.3761 20.2 38.3761 20.5168V20.7221ZM37.95 20.5124C37.95 20.1272 37.8727 19.8319 37.718 19.6267C37.5633 19.42 37.3469 19.3166 37.0688 19.3166C36.7981 19.3166 36.5847 19.42 36.4285 19.6267C36.2738 19.8319 36.1943 20.1175 36.1898 20.4834V20.7221C36.1898 21.0954 36.2679 21.3891 36.424 21.6033C36.5817 21.816 36.7981 21.9223 37.0732 21.9223C37.3499 21.9223 37.564 21.8219 37.7157 21.6211C37.8675 21.4189 37.9455 21.1296 37.95 20.7533V20.5124Z" fill="#636466"/>
<path d="M39.0186 22.2414V18.9931H40.0805C40.433 18.9931 40.6978 19.066 40.8748 19.2117C41.0532 19.3575 41.1425 19.5731 41.1425 19.8587C41.1425 20.0104 41.0993 20.145 41.0131 20.2625C40.9268 20.3785 40.8093 20.4685 40.6606 20.5325C40.8361 20.5815 40.9744 20.6752 41.0755 20.8136C41.1782 20.9504 41.2295 21.114 41.2295 21.3044C41.2295 21.5959 41.135 21.8249 40.9461 21.9915C40.7573 22.1581 40.4903 22.2414 40.1452 22.2414H39.0186ZM39.447 20.7221V21.8911H40.1542C40.3535 21.8911 40.5104 21.8398 40.6249 21.7372C40.7409 21.633 40.7989 21.4903 40.7989 21.3088C40.7989 20.9177 40.5862 20.7221 40.1609 20.7221H39.447ZM39.447 20.3785H40.0939C40.2813 20.3785 40.4308 20.3317 40.5423 20.238C40.6554 20.1443 40.7119 20.0171 40.7119 19.8565C40.7119 19.678 40.6598 19.5486 40.5557 19.4683C40.4516 19.3865 40.2932 19.3456 40.0805 19.3456H39.447V20.3785Z" fill="#636466"/>
<path d="M43.7014 20.7399H42.2936V21.8911H43.9289V22.2414H41.8653V18.9931H43.9066V19.3456H42.2936V20.3897H43.7014V20.7399Z" fill="#636466"/>
<path d="M45.6534 20.9273H44.8904V22.2414H44.4599V18.9931H45.5352C45.9011 18.9931 46.1822 19.0764 46.3785 19.243C46.5763 19.4095 46.6752 19.652 46.6752 19.9703C46.6752 20.1725 46.6202 20.3488 46.5101 20.499C46.4015 20.6492 46.2498 20.7615 46.055 20.8359L46.818 22.2146V22.2414H46.3584L45.6534 20.9273ZM44.8904 20.5771H45.5486C45.7613 20.5771 45.9301 20.522 46.055 20.412C46.1814 20.3019 46.2446 20.1547 46.2446 19.9703C46.2446 19.7695 46.1844 19.6155 46.0639 19.5085C45.9449 19.4014 45.7724 19.3471 45.5463 19.3456H44.8904V20.5771Z" fill="#636466"/>
<path d="M49.3434 19.3456H48.2993V22.2414H47.8732V19.3456H46.8314V18.9931H49.3434V19.3456Z" fill="#636466"/>
<path d="M50.7467 20.7935C50.3793 20.6879 50.1116 20.5585 49.9435 20.4053C49.7769 20.2506 49.6936 20.0602 49.6936 19.8342C49.6936 19.5784 49.7955 19.3672 49.9993 19.2006C50.2045 19.0325 50.4708 18.9485 50.798 18.9485C51.0211 18.9485 51.2196 18.9916 51.3936 19.0779C51.5691 19.1641 51.7045 19.2831 51.7997 19.4348C51.8963 19.5865 51.9447 19.7524 51.9447 19.9323H51.5141C51.5141 19.736 51.4516 19.5821 51.3267 19.4705C51.2018 19.3575 51.0255 19.301 50.798 19.301C50.5868 19.301 50.4217 19.3478 50.3027 19.4415C50.1852 19.5337 50.1265 19.6624 50.1265 19.8275C50.1265 19.9598 50.1822 20.0721 50.2938 20.1643C50.4068 20.2551 50.5979 20.3384 50.8671 20.4142C51.1378 20.4901 51.349 20.5741 51.5007 20.6663C51.6539 20.757 51.7669 20.8634 51.8398 20.9853C51.9142 21.1073 51.9514 21.2508 51.9514 21.4159C51.9514 21.6792 51.8487 21.8903 51.6435 22.0495C51.4382 22.2071 51.1638 22.286 50.8203 22.286C50.5972 22.286 50.389 22.2436 50.1956 22.1588C50.0023 22.0725 49.8528 21.955 49.7472 21.8063C49.6431 21.6576 49.591 21.4888 49.591 21.2999H50.0216C50.0216 21.4962 50.0937 21.6516 50.238 21.7662C50.3838 21.8792 50.5778 21.9357 50.8203 21.9357C51.0463 21.9357 51.2196 21.8896 51.3401 21.7974C51.4606 21.7052 51.5208 21.5795 51.5208 21.4204C51.5208 21.2612 51.465 21.1385 51.3535 21.0523C51.2419 20.9645 51.0396 20.8782 50.7467 20.7935Z" fill="#636466"/>
<path d="M55.001 20.7221C55.001 21.0404 54.9475 21.3185 54.8404 21.5565C54.7333 21.7929 54.5816 21.9736 54.3853 22.0986C54.189 22.2235 53.9599 22.286 53.6982 22.286C53.4424 22.286 53.2156 22.2235 53.0177 22.0986C52.8199 21.9722 52.666 21.7929 52.5559 21.5609C52.4474 21.3274 52.3916 21.0575 52.3886 20.7511V20.5168C52.3886 20.2045 52.4429 19.9286 52.5515 19.6892C52.6601 19.4497 52.8132 19.2668 53.0111 19.1403C53.2103 19.0124 53.4379 18.9485 53.6937 18.9485C53.954 18.9485 54.183 19.0117 54.3808 19.1381C54.5801 19.263 54.7333 19.4452 54.8404 19.6847C54.9475 19.9227 55.001 20.2 55.001 20.5168V20.7221ZM54.5749 20.5124C54.5749 20.1272 54.4976 19.8319 54.3429 19.6267C54.1882 19.42 53.9718 19.3166 53.6937 19.3166C53.423 19.3166 53.2096 19.42 53.0534 19.6267C52.8988 19.8319 52.8192 20.1175 52.8147 20.4834V20.7221C52.8147 21.0954 52.8928 21.3891 53.049 21.6033C53.2066 21.816 53.423 21.9223 53.6982 21.9223C53.9748 21.9223 54.189 21.8219 54.3407 21.6211C54.4924 21.4189 54.5705 21.1296 54.5749 20.7533V20.5124Z" fill="#636466"/>
<path d="M58.14 22.2414H57.7094L56.0741 19.7382V22.2414H55.6436V18.9931H56.0741L57.7139 21.5074V18.9931H58.14V22.2414Z" fill="#636466"/>
</svg>
