<svg width="88" height="26" viewBox="0 0 88 26" fill="none" xmlns="http://www.w3.org/2000/svg">
<path d="M17.7684 0.455688L13.2209 3.08588L0.235107 25.6129L26.2435 25.5965L30.791 22.9663L17.7684 0.455688ZM14.5753 5.73251L4.76207 22.7611L1.15044 24.8497L13.3727 3.64803L14.5753 5.73251ZM13.6477 3.31156L17.1322 1.29686L14.8133 5.32218L13.6477 3.31156ZM14.8133 6.14283L24.3843 22.6914L5.26688 22.7037L14.8133 6.14283ZM4.96728 23.114L24.6224 23.1017L25.829 25.1862L1.35154 25.2026L4.96728 23.114ZM25.0943 23.1017L29.7403 23.0976L26.2559 25.1123L25.0943 23.1017ZM24.8604 22.6914L15.0514 5.73251L17.6944 1.14914L30.1549 22.6914H24.8604Z" fill="#636466"/>
<path d="M17.7492 21.2858H19.9273L16.6496 13.8846H14.5878L11.3207 21.2858H13.4565L14.038 19.8479H17.1677L17.7492 21.2858ZM14.6512 18.3042L15.6028 15.9358L16.5544 18.3042H14.6512Z" fill="#636466"/>
<path d="M41.217 11.3169C41.2271 11.2766 41.2321 11.2464 41.2321 11.2262C41.2321 11.2061 41.222 11.196 41.2019 11.196C41.1918 11.196 41.1616 11.2212 41.1113 11.2716C41.071 11.3219 41.0156 11.3924 40.9451 11.483C40.8746 11.5737 40.7236 11.7448 40.492 11.9966C40.2704 12.2483 40.0388 12.485 39.7972 12.7065C39.1426 13.3308 38.4881 13.8091 37.8336 14.1414C37.6725 14.222 37.4962 14.2623 37.3049 14.2623C36.5698 14.2623 36.2023 13.7084 36.2023 12.6008C36.2023 11.6139 36.6705 10.4257 37.607 9.03608C38.0501 8.39162 38.5787 7.76226 39.193 7.148C39.8173 6.52368 40.4769 5.96985 41.1717 5.4865C41.8665 5.00315 42.6217 4.61547 43.4374 4.32344C44.253 4.02135 45.0485 3.8703 45.8239 3.8703C45.9548 3.8703 46.131 3.91562 46.3526 4.00625C46.7251 4.16736 46.9114 4.33855 46.9114 4.5198C46.9114 4.6205 46.846 4.67588 46.7151 4.68595C46.6647 4.68595 46.6396 4.70609 46.6396 4.74637C46.6396 4.78665 46.71 4.86721 46.851 4.98805C47.0021 5.09881 47.0776 5.20958 47.0776 5.32035C47.0776 5.42104 47.0423 5.51167 46.9719 5.59223C46.4684 6.14607 46.0656 6.60927 45.7635 6.98185C45.4614 7.34436 45.2298 7.61625 45.0687 7.7975C44.9176 7.97876 44.7414 8.19022 44.54 8.4319C44.3487 8.6635 44.1322 8.96056 43.8905 9.32307C43.6488 9.67551 43.4273 10.028 43.2259 10.3804C42.7627 11.2363 42.5311 12.0218 42.5311 12.7367C42.5311 13.4416 42.5966 14.1112 42.7275 14.7456C42.8584 15.3901 42.9943 15.7828 43.1353 15.9238C43.1353 15.954 43.1 15.9691 43.0296 15.9691C42.5663 15.9691 42.1686 15.7878 41.8363 15.4253C41.2321 14.7507 40.93 13.8645 40.93 12.7669C40.93 12.3742 41.0257 11.8909 41.217 11.3169ZM43.1957 7.91834L46.0958 5.00315C46.1663 4.93266 46.2015 4.88231 46.2015 4.8521C46.2015 4.8219 46.1763 4.80679 46.126 4.80679C45.3506 4.92763 44.5299 5.24482 43.6639 5.75838C42.7979 6.27194 42.0125 6.86605 41.3076 7.54072C40.6027 8.2154 39.9532 8.90517 39.3591 9.61006C38.765 10.3149 38.3018 10.9493 37.9695 11.5132C37.6473 12.0771 37.4862 12.4799 37.4862 12.7216C37.4862 12.7619 37.5113 12.782 37.5617 12.782C37.6221 12.782 37.7329 12.7468 37.894 12.6763C38.0551 12.5957 38.6089 12.1527 39.5555 11.3471C40.5121 10.5314 41.7255 9.38852 43.1957 7.91834Z" fill="#636466"/>
<path d="M51.1725 3.8401C51.4645 3.59842 51.7968 3.47759 52.1694 3.47759C52.542 3.47759 52.7282 3.55311 52.7282 3.70415C52.7282 3.76457 52.6829 3.8552 52.5923 3.97604C52.5117 4.15729 52.1341 4.84203 51.4595 6.03026C49.6973 9.1116 48.8162 11.1658 48.8162 12.1929C48.8162 12.2735 48.8363 12.3138 48.8766 12.3138C48.937 12.3138 49.0377 12.2131 49.1787 12.0117C49.5915 11.2967 50.1202 10.4761 50.7646 9.54964C51.4091 8.62322 52.0183 7.80757 52.5923 7.10269C53.1663 6.39781 53.8158 5.73824 54.5408 5.12399C55.2658 4.50973 55.9254 4.12708 56.5195 3.97604C57.5063 3.81492 58.1458 3.73436 58.4378 3.73436C58.468 3.74443 58.4831 3.76961 58.4831 3.80989C58.4831 3.8401 58.4277 3.88541 58.317 3.94583C57.1791 4.58022 55.7643 5.78859 54.0726 7.57093C52.3909 9.34321 50.8704 11.1658 49.511 13.0388C49.1485 13.6531 48.8665 14.0357 48.6651 14.1868C48.4637 14.3378 48.222 14.4133 47.9401 14.4133C47.4165 14.4133 47.1546 13.8595 47.1546 12.7518C47.1546 12.2685 47.2503 11.775 47.4416 11.2716C48.1465 9.38852 48.8061 8.03918 49.4203 7.22353C49.7627 6.72004 49.9339 6.44312 49.9339 6.39277C49.9339 6.36256 49.8735 6.42298 49.7526 6.57403C47.2453 9.72586 45.473 11.7902 44.4358 12.7669C43.7209 13.5121 42.9103 14.2774 42.004 15.0628C41.0977 15.8483 40.3727 16.387 39.8289 16.679C39.6577 16.82 39.4765 16.8905 39.2851 16.8905C39.0938 16.8905 38.8622 16.8099 38.5903 16.6488C38.3184 16.4877 38.1825 16.3014 38.1825 16.0899C38.1825 15.9792 38.2429 15.8785 38.3638 15.7878L40.8409 13.7034C40.992 13.5725 41.0876 13.507 41.1279 13.507C41.1581 13.507 41.1732 13.5272 41.1732 13.5675C41.1732 13.5977 41.1581 13.643 41.1279 13.7034C41.0977 13.7638 41.0524 13.8293 40.992 13.8998C40.9215 13.9703 40.851 14.0357 40.7805 14.0961L40.5237 14.368C40.2116 14.6802 40.0555 14.8514 40.0555 14.8816C40.0555 14.9218 40.0655 14.942 40.0857 14.942C40.1058 14.942 40.1562 14.9118 40.2367 14.8514C41.2034 14.1868 42.5981 12.9381 44.4207 11.1054C46.2433 9.26265 47.8243 7.59107 49.1636 6.09068L51.1725 3.8401Z" fill="#636466"/>
<path d="M55.6726 11.3169C55.6827 11.2766 55.6877 11.2464 55.6877 11.2262C55.6877 11.2061 55.6776 11.196 55.6575 11.196C55.6474 11.196 55.6172 11.2212 55.5668 11.2716C55.5266 11.3219 55.4712 11.3924 55.4007 11.483C55.3302 11.5737 55.1792 11.7448 54.9476 11.9966C54.726 12.2483 54.4944 12.485 54.2527 12.7065C53.5982 13.3308 52.9437 13.8091 52.2891 14.1414C52.128 14.222 51.9518 14.2623 51.7605 14.2623C51.0254 14.2623 50.6579 13.7084 50.6579 12.6008C50.6579 11.6139 51.1261 10.4257 52.0626 9.03608C52.5056 8.39162 53.0343 7.76226 53.6486 7.148C54.2729 6.52368 54.9325 5.96985 55.6273 5.4865C56.3221 5.00315 57.0773 4.61547 57.893 4.32344C58.7086 4.02135 59.5041 3.8703 60.2795 3.8703C60.4104 3.8703 60.5866 3.91562 60.8081 4.00625C61.1807 4.16736 61.367 4.33855 61.367 4.5198C61.367 4.6205 61.3016 4.67588 61.1707 4.68595C61.1203 4.68595 61.0951 4.70609 61.0951 4.74637C61.0951 4.78665 61.1656 4.86721 61.3066 4.98805C61.4576 5.09881 61.5332 5.20958 61.5332 5.32035C61.5332 5.42104 61.4979 5.51167 61.4274 5.59223C60.924 6.14607 60.5212 6.60927 60.2191 6.98185C59.917 7.34436 59.6854 7.61625 59.5243 7.7975C59.3732 7.97876 59.197 8.19022 58.9956 8.4319C58.8043 8.6635 58.5878 8.96056 58.3461 9.32307C58.1044 9.67551 57.8829 10.028 57.6815 10.3804C57.2183 11.2363 56.9867 12.0218 56.9867 12.7367C56.9867 13.4416 57.0521 14.1112 57.183 14.7456C57.3139 15.3901 57.4499 15.7828 57.5909 15.9238C57.5909 15.954 57.5556 15.9691 57.4851 15.9691C57.0219 15.9691 56.6242 15.7878 56.2919 15.4253C55.6877 14.7507 55.3856 13.8645 55.3856 12.7669C55.3856 12.3742 55.4813 11.8909 55.6726 11.3169ZM57.6513 7.91834L60.5514 5.00315C60.6219 4.93266 60.6571 4.88231 60.6571 4.8521C60.6571 4.8219 60.6319 4.80679 60.5816 4.80679C59.8062 4.92763 58.9855 5.24482 58.1195 5.75838C57.2535 6.27194 56.4681 6.86605 55.7632 7.54072C55.0583 8.2154 54.4088 8.90517 53.8147 9.61006C53.2206 10.3149 52.7574 10.9493 52.4251 11.5132C52.1029 12.0771 51.9417 12.4799 51.9417 12.7216C51.9417 12.7619 51.9669 12.782 52.0173 12.782C52.0777 12.782 52.1885 12.7468 52.3496 12.6763C52.5107 12.5957 53.0645 12.1527 54.0111 11.3471C54.9677 10.5314 56.1811 9.38852 57.6513 7.91834Z" fill="#636466"/>
<path d="M61.142 12.1023C61.867 11.2766 62.8035 10.1689 63.9514 8.7793C65.0994 7.38968 65.9452 6.40284 66.489 5.8188C67.0328 5.23475 67.501 4.79169 67.8937 4.48959C68.8101 3.80485 69.7415 3.46248 70.6881 3.46248C70.8996 3.46248 71.1362 3.54807 71.398 3.71926C71.6699 3.89044 71.8058 4.15729 71.8058 4.5198C71.8058 4.87224 71.4685 5.41601 70.7938 6.1511C70.4615 6.51361 69.9782 6.88619 69.3438 7.26884C68.7195 7.64142 68.0196 7.94351 67.2442 8.17512C66.9522 8.22547 66.7357 8.25064 66.5947 8.25064C66.4638 8.25064 66.3984 8.23554 66.3984 8.20533C66.3984 8.17512 66.4336 8.13987 66.5041 8.0996C67.35 7.63639 68.2965 6.93654 69.3438 6.00005C70.4011 5.06357 70.9298 4.44931 70.9298 4.15729C70.9298 4.11701 70.8996 4.09687 70.8391 4.09687C70.7888 4.09687 70.7284 4.10694 70.6579 4.12708C70.5975 4.14722 70.527 4.16736 70.4464 4.1875C70.3659 4.20764 70.1947 4.29323 69.9329 4.44428C69.6711 4.58526 69.3941 4.76651 69.1021 4.98805C68.8202 5.19951 68.4627 5.53181 68.0297 5.98495C67.6068 6.42802 67.1788 6.94157 66.7458 7.52562C65.0843 9.85173 64.0068 11.2816 63.5134 11.8153C63.4328 11.906 63.3322 12.0167 63.2113 12.1476C63.4631 12.1778 63.8407 12.2131 64.3442 12.2534C64.8476 12.2936 65.185 12.3289 65.3562 12.3591C65.5374 12.3792 65.7992 12.4296 66.1416 12.5101C66.484 12.5907 66.7559 12.6914 66.9573 12.8122C67.4809 13.1345 67.9844 13.5725 68.4677 14.1263C68.5785 14.2472 68.6339 14.3277 68.6339 14.368C68.6339 14.4083 68.6188 14.4284 68.5886 14.4284C68.5382 14.4284 68.4728 14.4083 68.3922 14.368C68.2411 14.3277 68.0196 14.2723 67.7276 14.2019C67.4456 14.1314 66.8314 14.0407 65.8848 13.93C64.9383 13.8192 64.0672 13.7638 63.2717 13.7638C62.4863 13.7638 61.9123 13.7689 61.5498 13.7789C61.0161 14.2824 60.2659 14.7507 59.2992 15.1837C58.3325 15.6167 57.6075 15.8332 57.1242 15.8332C56.6307 15.8332 56.1675 15.7022 55.7345 15.4404C55.3015 15.1887 55.085 14.8463 55.085 14.4133C55.085 14.1012 55.3217 13.7588 55.795 13.3862C56.8825 12.5303 58.6648 12.1023 61.142 12.1023ZM55.9158 14.8514C55.9158 14.9521 56.0366 15.0175 56.2783 15.0477C56.5905 15.0477 56.8573 15.0276 57.0788 14.9873C57.3004 14.9571 57.6276 14.8463 58.0606 14.655C58.4836 14.4637 58.9317 14.1817 59.405 13.8091C58.7605 13.8091 58.0204 13.9249 57.1846 14.1565C56.3387 14.3881 55.9158 14.6198 55.9158 14.8514Z" fill="#636466"/>
<path d="M75.7591 4.02135C76.4841 3.55814 77.0984 3.32654 77.6019 3.32654C78.0651 3.32654 78.3571 3.50276 78.4779 3.8552C78.5182 3.97604 78.5384 4.0717 78.5384 4.14219C78.5384 4.52484 78.3219 5.12399 77.8889 5.93964C77.4559 6.75529 76.8819 7.64142 76.1669 8.59805C75.452 9.5446 74.6817 10.4559 73.8559 11.332C73.0302 12.208 72.1693 12.9381 71.273 13.5222C70.3768 14.1062 69.5914 14.3982 68.9167 14.3982C68.4434 14.3982 68.0054 14.1968 67.6026 13.794C67.1998 13.3912 66.9984 12.9029 66.9984 12.3289C66.9984 11.7448 67.1596 11.0953 67.4818 10.3804C67.804 9.65537 68.2471 8.92531 68.811 8.19022C69.385 7.45513 70.0143 6.77039 70.6991 6.136C71.3838 5.49153 72.129 4.96791 72.9346 4.56512C73.7502 4.16233 74.5256 3.96093 75.2607 3.96093C75.4621 3.96093 75.6282 3.98107 75.7591 4.02135ZM68.524 13.2503C69.0376 13.2503 70.0395 12.5957 71.5298 11.2867C73.0201 9.9776 74.3947 8.61315 75.6534 7.19332C76.9222 5.76342 77.5566 4.87224 77.5566 4.5198C77.5566 4.48959 77.5364 4.47449 77.4961 4.47449C77.1538 4.47449 76.6704 4.67588 76.0461 5.07867C75.4318 5.48146 74.8428 5.9346 74.2789 6.43809C73.715 6.94158 73.2266 7.38968 72.8137 7.7824C72.4109 8.17512 72.1793 8.41679 72.1189 8.50742C72.0585 8.59805 72.0081 8.64336 71.9679 8.64336C71.9477 8.64336 71.9376 8.61819 71.9376 8.56784L71.9679 8.34127C72.0786 7.97876 72.416 7.38968 72.9799 6.57403L73.2669 6.1511C73.3373 6.02019 73.3726 5.94467 73.3726 5.92453C73.3726 5.89432 73.3625 5.87922 73.3424 5.87922C73.2618 5.87922 73.1259 5.96481 72.9346 6.136C72.1793 6.82074 71.5097 7.51555 70.9256 8.22043C70.3416 8.91524 69.8935 9.51943 69.5813 10.033C69.2792 10.5365 69.0325 11.0198 68.8412 11.483C68.5391 12.1879 68.3881 12.6612 68.3881 12.9029C68.3881 13.1345 68.4334 13.2503 68.524 13.2503Z" fill="#636466"/>
<path d="M86.9725 5.21461C87.2746 5.31531 87.4408 5.41601 87.471 5.51671L87.4861 5.57713C87.4861 5.78859 87.2746 6.08565 86.8517 6.4683C85.1298 8.40169 83.9063 9.89704 83.1813 10.9544C82.9698 11.2565 82.6727 11.6995 82.2901 12.2836C81.9074 12.8575 81.5953 13.3157 81.3536 13.6581C81.122 14.0105 80.8098 14.4486 80.4171 14.9722C80.0345 15.5059 79.6921 15.9439 79.39 16.2863C79.098 16.6287 78.7355 17.0113 78.3025 17.4342C77.8795 17.8572 77.4717 18.2096 77.079 18.4916C76.1929 19.126 75.2413 19.5942 74.2242 19.8963C73.9624 19.8963 73.7157 19.8308 73.4841 19.6999C73.2424 19.5791 73.1166 19.4029 73.1065 19.1713C73.1166 18.6275 73.5395 17.9528 74.3753 17.1473C75.2111 16.3517 76.3338 15.7425 77.7436 15.3196C77.945 15.2692 78.086 15.1937 78.1665 15.093L82.4864 9.94236L82.713 9.64027C82.7332 9.59999 82.7432 9.57481 82.7432 9.56474C82.7432 9.5446 82.7332 9.53453 82.713 9.53453C82.7029 9.53453 82.4814 9.75607 82.0484 10.1991C81.6154 10.6321 81.2378 11.0198 80.9156 11.3622C80.6034 11.7046 80.1905 12.1174 79.677 12.6008C79.1634 13.074 78.5341 13.5423 77.7889 14.0055C77.0538 14.4788 76.4345 14.7154 75.931 14.7154C75.2664 14.7154 74.8536 14.2774 74.6925 13.4013C74.6623 13.1999 74.6472 12.9985 74.6472 12.7971C74.6472 11.8909 75.0399 10.9191 75.8253 9.88194C76.6007 8.83469 77.5523 7.90827 78.6801 7.10269C79.818 6.28704 81.0414 5.60733 82.3505 5.06357C83.6596 4.50973 84.8226 4.22778 85.8397 4.21771H85.8548C86.177 4.21771 86.4439 4.32848 86.6553 4.55001C86.8769 4.76148 86.9876 4.94777 86.9876 5.10888C86.9876 5.15923 86.9826 5.19447 86.9725 5.21461ZM73.8617 19.1109C73.8617 19.1713 73.8869 19.2015 73.9372 19.2015H73.9674C74.2192 19.2015 74.8536 18.7181 75.8706 17.7514C76.8977 16.7948 77.5019 16.0849 77.6832 15.6217C77.6832 15.6016 77.6731 15.5915 77.653 15.5915C76.9783 15.8332 76.1778 16.4172 75.2513 17.3436C74.3249 18.2801 73.8617 18.8692 73.8617 19.1109ZM86.4136 5.47139C86.4741 5.41097 86.5043 5.36566 86.5043 5.33545C86.5043 5.29517 86.459 5.27503 86.3683 5.27503C85.7541 5.27503 84.9686 5.4865 84.012 5.90943C83.0655 6.32229 82.0937 6.87109 81.0968 7.55583C80.11 8.24057 79.1383 9.08643 78.1816 10.0934C77.2351 11.0903 76.4849 12.1124 75.931 13.1596C75.9008 13.1999 75.8857 13.2402 75.8857 13.2805C75.8857 13.3107 75.9109 13.3258 75.9613 13.3258C76.5252 13.3258 77.8594 12.5051 79.964 10.8637C82.0786 9.2123 84.2285 7.41485 86.4136 5.47139Z" fill="#636466"/>
<path d="M39.8092 19.3966V21.9704L37.7656 19.3966H37.4891V22.5685H37.8245V19.9947L39.8636 22.5685H40.14V19.3966H39.8092Z" fill="#636466"/>
<path d="M42.4532 22.5957C43.2643 22.5957 43.7537 22.1245 43.7537 21.2137V19.3966H43.4274V21.2001C43.4274 21.9523 43.074 22.2967 42.4532 22.2967C41.8369 22.2967 41.4834 21.9523 41.4834 21.2001V19.3966H41.1481V21.2137C41.1481 22.1245 41.642 22.5957 42.4532 22.5957Z" fill="#636466"/>
<path d="M47.2972 22.5685L46.5223 21.481C46.9845 21.3315 47.2473 20.9826 47.2473 20.4841C47.2473 19.8044 46.7579 19.3966 45.9514 19.3966H44.7641V22.5685H45.0995V21.5626H45.9514C46.042 21.5626 46.1235 21.558 46.2051 21.549L46.9301 22.5685H47.2972ZM45.9423 21.2771H45.0995V19.6866H45.9423C46.5767 19.6866 46.912 19.9766 46.912 20.4841C46.912 20.9826 46.5767 21.2771 45.9423 21.2771Z" fill="#636466"/>
<path d="M48.3741 22.2785V21.1004H50.0144V20.8149H48.3741V19.6866H50.2138V19.3966H48.0388V22.5685H50.2818V22.2785H48.3741Z" fill="#636466"/>
<path d="M53.3901 19.3966V21.9704L51.3464 19.3966H51.07V22.5685H51.4053V19.9947L53.4445 22.5685H53.7209V19.3966H53.3901Z" fill="#636466"/>
<path d="M56.1337 22.5957C56.6005 22.5957 57.0173 22.4371 57.2983 22.129L57.0853 21.916C56.827 22.1834 56.5098 22.2967 56.1473 22.2967C55.3815 22.2967 54.806 21.7348 54.806 20.9826C54.806 20.2303 55.3815 19.6685 56.1473 19.6685C56.5098 19.6685 56.827 19.7817 57.0853 20.0446L57.2983 19.8316C57.0173 19.5235 56.6005 19.3694 56.1383 19.3694C55.1821 19.3694 54.4752 20.0536 54.4752 20.9826C54.4752 21.9115 55.1821 22.5957 56.1337 22.5957Z" fill="#636466"/>
<path d="M60.3031 19.3966H59.9677L58.8802 21.1774L57.7927 19.3966H57.4347L58.7035 21.4719V22.5685H59.0343V21.4719L60.3031 19.3966Z" fill="#636466"/>
</svg>
