<svg width="16" height="16" viewBox="0 0 16 16" fill="none" xmlns="http://www.w3.org/2000/svg">
<path d="M12.5039 2.57898H3.12891C2.35226 2.57898 1.72266 3.20858 1.72266 3.98523V12.4227C1.72266 13.1994 2.35226 13.829 3.12891 13.829H12.5039C13.2806 13.829 13.9102 13.1994 13.9102 12.4227V3.98523C13.9102 3.20858 13.2806 2.57898 12.5039 2.57898Z" stroke="#737880" stroke-linejoin="round"/>
<path d="M8.98828 7.73523C9.37661 7.73523 9.69141 7.42043 9.69141 7.0321C9.69141 6.64378 9.37661 6.32898 8.98828 6.32898C8.59996 6.32898 8.28516 6.64378 8.28516 7.0321C8.28516 7.42043 8.59996 7.73523 8.98828 7.73523Z" fill="#737880"/>
<path d="M11.332 7.73523C11.7204 7.73523 12.0352 7.42043 12.0352 7.0321C12.0352 6.64378 11.7204 6.32898 11.332 6.32898C10.9437 6.32898 10.6289 6.64378 10.6289 7.0321C10.6289 7.42043 10.9437 7.73523 11.332 7.73523Z" fill="#737880"/>
<path d="M8.98828 10.079C9.37661 10.079 9.69141 9.76418 9.69141 9.37585C9.69141 8.98753 9.37661 8.67273 8.98828 8.67273C8.59996 8.67273 8.28516 8.98753 8.28516 9.37585C8.28516 9.76418 8.59996 10.079 8.98828 10.079Z" fill="#737880"/>
<path d="M11.332 10.079C11.7204 10.079 12.0352 9.76418 12.0352 9.37585C12.0352 8.98753 11.7204 8.67273 11.332 8.67273C10.9437 8.67273 10.6289 8.98753 10.6289 9.37585C10.6289 9.76418 10.9437 10.079 11.332 10.079Z" fill="#737880"/>
<path d="M4.30078 10.079C4.68911 10.079 5.00391 9.76418 5.00391 9.37585C5.00391 8.98753 4.68911 8.67273 4.30078 8.67273C3.91246 8.67273 3.59766 8.98753 3.59766 9.37585C3.59766 9.76418 3.91246 10.079 4.30078 10.079Z" fill="#737880"/>
<path d="M6.64453 10.079C7.03286 10.079 7.34766 9.76418 7.34766 9.37585C7.34766 8.98753 7.03286 8.67273 6.64453 8.67273C6.25621 8.67273 5.94141 8.98753 5.94141 9.37585C5.94141 9.76418 6.25621 10.079 6.64453 10.079Z" fill="#737880"/>
<path d="M4.30078 12.4227C4.68911 12.4227 5.00391 12.1079 5.00391 11.7196C5.00391 11.3313 4.68911 11.0165 4.30078 11.0165C3.91246 11.0165 3.59766 11.3313 3.59766 11.7196C3.59766 12.1079 3.91246 12.4227 4.30078 12.4227Z" fill="#737880"/>
<path d="M6.64453 12.4227C7.03286 12.4227 7.34766 12.1079 7.34766 11.7196C7.34766 11.3313 7.03286 11.0165 6.64453 11.0165C6.25621 11.0165 5.94141 11.3313 5.94141 11.7196C5.94141 12.1079 6.25621 12.4227 6.64453 12.4227Z" fill="#737880"/>
<path d="M8.98828 12.4227C9.37661 12.4227 9.69141 12.1079 9.69141 11.7196C9.69141 11.3313 9.37661 11.0165 8.98828 11.0165C8.59996 11.0165 8.28516 11.3313 8.28516 11.7196C8.28516 12.1079 8.59996 12.4227 8.98828 12.4227Z" fill="#737880"/>
<path d="M11.5664 1.64148V2.57898M4.06641 1.64148V2.57898V1.64148Z" stroke="#737880" stroke-linecap="round" stroke-linejoin="round"/>
<path d="M13.9102 4.92273H1.72266" stroke="#737880" stroke-linejoin="round"/>
</svg>
