<svg width="52" height="42" viewBox="0 0 52 42" fill="none" xmlns="http://www.w3.org/2000/svg">
<path d="M8.589 31.181L8.31754 31.6009L8.32056 31.6028L8.589 31.181ZM5.292 27.611L4.85337 27.851L5.292 27.611ZM3.549 22.697L3.05755 22.7891L3.05827 22.7928L3.549 22.697ZM3.36 12.995L3.85478 13.0671L3.85488 13.0664L3.36 12.995ZM4.389 8.858L3.92102 8.68188L3.9194 8.68632L4.389 8.858ZM6.363 5.393L6.74975 5.70992L6.75187 5.70729L6.363 5.393ZM9.429 2.978L9.21363 2.52675L9.21163 2.52772L9.429 2.978ZM19.026 3.419L18.7576 3.84083L18.7595 3.84204L19.026 3.419ZM22.323 6.947L21.8836 7.18555L21.8853 7.18876L22.323 6.947ZM24.045 11.861L23.5534 11.9525L23.5543 11.9568L24.045 11.861ZM23.205 25.721L22.737 25.5449V25.5449L23.205 25.721ZM21.231 29.207L21.6199 29.5213L21.231 29.207ZM18.165 31.622L18.3824 32.0723L18.165 31.622ZM16.38 26.519L16.7047 26.8992L16.7054 26.8986L16.38 26.519ZM17.997 24.188L17.536 23.9943L17.5337 24L17.997 24.188ZM18.858 20.954L19.3531 21.0239L18.858 20.954ZM18.837 13.625L18.3419 13.6949L18.3427 13.7006L18.837 13.625ZM17.997 10.391L17.5328 10.5767L17.5337 10.579L17.997 10.391ZM16.38 8.081L16.0552 8.46128L16.0638 8.46833L16.38 8.081ZM11.214 8.081L11.5349 8.46447L11.214 8.081ZM9.576 10.412L10.037 10.6057L10.0379 10.6034L9.576 10.412ZM8.715 13.646L9.21009 13.7159L8.715 13.646ZM8.715 20.975L8.2198 21.0441L8.21991 21.0449L8.715 20.975ZM9.576 24.209L10.0369 24.0153L9.576 24.209ZM11.214 26.519L10.8931 26.9025L10.897 26.9056L11.214 26.519ZM13.818 32.004C11.7869 32.004 10.1437 31.5777 8.85744 30.7592L8.32056 31.6028C9.80634 32.5483 11.6491 33.004 13.818 33.004V32.004ZM8.86045 30.7611C7.54606 29.9114 6.50376 28.784 5.73063 27.371L4.85337 27.851C5.70424 29.406 6.85994 30.6586 8.31755 31.6009L8.86045 30.7611ZM5.73063 27.371C4.94518 25.9355 4.38066 24.3467 4.03973 22.6012L3.05827 22.7928C3.41735 24.6313 4.01482 26.3185 4.85337 27.851L5.73063 27.371ZM4.04044 22.6049C3.71008 20.8429 3.545 19.0748 3.545 17.3H2.545C2.545 19.1372 2.71592 20.9671 3.05756 22.7891L4.04044 22.6049ZM3.545 17.3C3.545 15.8966 3.64819 14.4857 3.85478 13.0671L2.86522 12.9229C2.65182 14.3883 2.545 15.8474 2.545 17.3H3.545ZM3.85488 13.0664C4.06024 11.6425 4.39517 10.2973 4.8586 9.02968L3.9194 8.68632C3.43083 10.0227 3.07976 11.4355 2.86512 12.9236L3.85488 13.0664ZM4.85696 9.03411C5.32905 7.77971 5.96058 6.67296 6.74974 5.70991L5.97626 5.07609C5.11342 6.12904 4.42895 7.33229 3.92104 8.68189L4.85696 9.03411ZM6.75187 5.70729C7.53007 4.74443 8.49288 3.98514 9.64638 3.42827L9.21163 2.52772C7.92912 3.14686 6.84793 3.99756 5.97413 5.07871L6.75187 5.70729ZM9.64437 3.42924C10.7949 2.88012 12.181 2.596 13.818 2.596V1.596C12.067 1.596 10.5271 1.89988 9.21364 2.52676L9.64437 3.42924ZM13.818 2.596C15.8344 2.596 17.4708 3.02201 18.7576 3.84083L19.2944 2.99717C17.8092 2.05199 15.9736 1.596 13.818 1.596V2.596ZM18.7595 3.84204C20.0862 4.67786 21.126 5.78999 21.8836 7.18554L22.7624 6.70845C21.924 5.16401 20.7658 3.92414 19.2925 2.99595L18.7595 3.84204ZM21.8853 7.18876C22.6691 8.60768 23.2263 10.1942 23.5534 11.9525L24.5366 11.7695C24.1917 9.9158 23.6009 8.22632 22.7607 6.70524L21.8853 7.18876ZM23.5543 11.9568C23.8981 13.7171 24.07 15.498 24.07 17.3H25.07C25.07 15.434 24.8919 13.5889 24.5357 11.7652L23.5543 11.9568ZM24.07 17.3C24.07 18.7034 23.9668 20.1143 23.7602 21.5329L24.7498 21.6771C24.9632 20.2117 25.07 18.7526 25.07 17.3H24.07ZM23.7602 21.5329C23.5552 22.9411 23.2138 24.2781 22.737 25.5449L23.673 25.8971C24.1762 24.5599 24.5349 23.1529 24.7498 21.6771L23.7602 21.5329ZM22.737 25.5449C22.2647 26.7998 21.6326 27.9146 20.8421 28.8927L21.6199 29.5213C22.4814 28.4554 23.1653 27.2462 23.673 25.8971L22.737 25.5449ZM20.8421 28.8927C20.0639 29.8556 19.1011 30.6149 17.9476 31.1717L18.3824 32.0723C19.6649 31.4531 20.7461 30.6024 21.6199 29.5213L20.8421 28.8927ZM17.9476 31.1717C16.8118 31.7201 15.4405 32.004 13.818 32.004V33.004C15.5555 33.004 17.0822 32.6999 18.3824 32.0723L17.9476 31.1717ZM13.818 27.88C14.9515 27.88 15.927 27.5635 16.7047 26.8992L16.0553 26.1388C15.489 26.6225 14.7565 26.88 13.818 26.88V27.88ZM16.7054 26.8986C17.4607 26.2512 18.0429 25.4046 18.4603 24.376L17.5337 24C17.1671 24.9034 16.6713 25.6108 16.0546 26.1394L16.7054 26.8986ZM18.4579 24.3817C18.8828 23.3708 19.1799 22.2504 19.3531 21.0239L18.3629 20.8841C18.2001 22.0376 17.9232 23.0732 17.5361 23.9943L18.4579 24.3817ZM19.3531 21.0239C19.5245 19.8099 19.61 18.5685 19.61 17.3H18.61C18.61 18.5235 18.5275 19.7181 18.3629 20.8841L19.3531 21.0239ZM19.61 17.3C19.61 16.0159 19.5173 14.7656 19.3313 13.5494L18.3427 13.7006C18.5207 14.8644 18.61 16.0641 18.61 17.3H19.61ZM19.3321 13.5551C19.1592 12.3306 18.8698 11.2122 18.4603 10.203L17.5337 10.579C17.9082 11.5018 18.1788 12.5394 18.3419 13.6949L19.3321 13.5551ZM18.4612 10.2053C18.0438 9.16172 17.4594 8.31667 16.6962 7.69367L16.0638 8.46833C16.6726 8.96533 17.1662 9.66027 17.5328 10.5767L18.4612 10.2053ZM16.7047 7.70081C15.927 7.03652 14.9515 6.72 13.818 6.72V7.72C14.7565 7.72 15.489 7.97747 16.0553 8.46119L16.7047 7.70081ZM13.818 6.72C12.6721 6.72 11.6843 7.03556 10.8931 7.69753L11.5349 8.46447C12.1157 7.97844 12.8639 7.72 13.818 7.72V6.72ZM10.8931 7.69753C10.1348 8.33206 9.54521 9.17996 9.11407 10.2206L10.0379 10.6034C10.4188 9.68404 10.9212 8.97794 11.5349 8.46447L10.8931 7.69753ZM9.11506 10.2183C8.69017 11.2292 8.39306 12.3496 8.21991 13.5761L9.21009 13.7159C9.37294 12.5624 9.64983 11.5268 10.0369 10.6057L9.11506 10.2183ZM8.21991 13.5761C8.04852 14.7901 7.963 16.0315 7.963 17.3H8.963C8.963 16.0765 9.04548 14.8819 9.21009 13.7159L8.21991 13.5761ZM7.963 17.3C7.963 18.5685 8.04852 19.8166 8.2198 21.0441L9.2102 20.9059C9.04548 19.7254 8.963 18.5235 8.963 17.3H7.963ZM8.21991 21.0449C8.39306 22.2714 8.69017 23.3918 9.11506 24.4027L10.0369 24.0153C9.64983 23.0942 9.37294 22.0586 9.21009 20.9051L8.21991 21.0449ZM9.11506 24.4027C9.54666 25.4296 10.1363 26.2692 10.8931 26.9025L11.5349 26.1355C10.9197 25.6208 10.4173 24.9204 10.0369 24.0153L9.11506 24.4027ZM10.897 26.9056C11.6991 27.5634 12.684 27.88 13.818 27.88V26.88C12.88 26.88 12.1289 26.6226 11.531 26.1324L10.897 26.9056ZM28.2125 32H27.7125V32.5H28.2125V32ZM28.9895 26.33L29.4659 26.4819L29.4662 26.4808L28.9895 26.33ZM34.2815 18.707L33.9714 18.3148L33.9692 18.3166L34.2815 18.707ZM38.1035 16.145L37.8587 15.709L37.8584 15.7092L38.1035 16.145ZM40.3505 14.717L40.6427 15.1228L40.6427 15.1228L40.3505 14.717ZM41.5895 8.207L41.2542 8.57801L41.2618 8.58461L41.5895 8.207ZM35.4575 8.144L35.752 8.54807L35.7532 8.5472L35.4575 8.144ZM33.5255 10.664L33.3186 11.1192L33.7838 11.3306L33.9851 10.861L33.5255 10.664ZM28.6745 8.459L28.2112 8.27099L28.0308 8.71562L28.4676 8.91418L28.6745 8.459ZM32.5385 3.839L32.8082 4.26002L32.8091 4.25948L32.5385 3.839ZM43.7315 3.251L43.4924 3.69014L43.4976 3.69289L43.7315 3.251ZM46.9865 6.338L46.5521 6.58559L46.5553 6.5911L46.9865 6.338ZM47.1965 14.99L46.7559 14.7536L46.7537 14.7578L47.1965 14.99ZM44.7185 17.972L44.4062 17.5816L44.4036 17.5836L44.7185 17.972ZM41.2325 20.366L40.9794 19.9348L40.9774 19.936L41.2325 20.366ZM37.9775 22.466L38.2681 22.8729L38.2693 22.872L37.9775 22.466ZM35.8145 24.44L36.1986 24.7601L36.2018 24.7562L35.8145 24.44ZM34.5545 26.771L34.078 26.6197L33.8712 27.271H34.5545V26.771ZM48.3725 26.771H48.8725V26.271H48.3725V26.771ZM48.3725 32V32.5H48.8725V32H48.3725ZM28.7125 32C28.7125 29.8826 28.9671 28.0458 29.4659 26.4819L28.5132 26.1781C27.976 27.8622 27.7125 29.8054 27.7125 32H28.7125ZM29.4662 26.4808C29.9697 24.8886 30.6607 23.4965 31.5353 22.2989L30.7277 21.7091C29.7824 23.0035 29.0453 24.4954 28.5128 26.1792L29.4662 26.4808ZM31.5353 22.2989C32.4195 21.0882 33.4389 20.0214 34.5939 19.0974L33.9692 18.3166C32.7442 19.2966 31.6635 20.4278 30.7277 21.7091L31.5353 22.2989ZM34.5916 19.0992C35.775 18.1635 37.0273 17.324 38.3486 16.5808L37.8584 15.7092C36.4917 16.478 35.196 17.3465 33.9714 18.3148L34.5916 19.0992ZM38.3483 16.581C39.1616 16.1244 39.9266 15.6384 40.6427 15.1228L40.0584 14.3112C39.3745 14.8036 38.6414 15.2696 37.8587 15.709L38.3483 16.581ZM40.6427 15.1228C41.3834 14.5895 41.9928 13.9825 42.4633 13.2997L41.6398 12.7323C41.2422 13.3095 40.7177 13.8365 40.0584 14.3112L40.6427 15.1228ZM42.4633 13.2997C42.9594 12.5795 43.2025 11.7508 43.2025 10.832H42.2025C42.2025 11.5652 42.0117 12.1925 41.6398 12.7323L42.4633 13.2997ZM43.2025 10.832C43.2025 9.60146 42.7832 8.58093 41.9173 7.82939L41.2618 8.58461C41.8799 9.12107 42.2025 9.85054 42.2025 10.832H43.2025ZM41.9248 7.83606C41.0831 7.07531 39.9725 6.72 38.6495 6.72V7.72C39.7905 7.72 40.6399 8.02269 41.2542 8.57794L41.9248 7.83606ZM38.6495 6.72C37.2807 6.72 36.1061 7.04831 35.1618 7.7408L35.7532 8.5472C36.4889 8.00768 37.4423 7.72 38.6495 7.72V6.72ZM35.163 7.73993C34.2542 8.40229 33.558 9.31881 33.0659 10.467L33.9851 10.861C34.417 9.85318 35.0088 9.08971 35.752 8.54807L35.163 7.73993ZM33.7324 10.2088L28.8814 8.00382L28.4676 8.91418L33.3186 11.1192L33.7324 10.2088ZM29.1378 8.64701C29.8821 6.81293 31.1014 5.35347 32.8082 4.26001L32.2688 3.41798C30.3917 4.62053 29.0349 6.24107 28.2112 8.27099L29.1378 8.64701ZM32.8091 4.25948C34.5313 3.15136 36.4528 2.596 38.5865 2.596V1.596C36.2683 1.596 34.1577 2.20264 32.268 3.41851L32.8091 4.25948ZM38.5865 2.596C40.5397 2.596 42.168 2.96892 43.4924 3.69011L43.9706 2.81188C42.467 1.99308 40.6654 1.596 38.5865 1.596V2.596ZM43.4976 3.69289C44.8485 4.40809 45.8608 5.37254 46.5521 6.58557L47.4209 6.09043C46.6282 4.69946 45.4705 3.60591 43.9655 2.8091L43.4976 3.69289ZM46.5553 6.5911C47.2624 7.79572 47.6205 9.16296 47.6205 10.706H48.6205C48.6205 9.00104 48.2227 7.45628 47.4177 6.0849L46.5553 6.5911ZM47.6205 10.706C47.6205 12.3563 47.3227 13.6974 46.7559 14.7536L47.6371 15.2264C48.3023 13.9866 48.6205 12.4717 48.6205 10.706H47.6205ZM46.7537 14.7578C46.185 15.8423 45.4043 16.7831 44.4062 17.5816L45.0309 18.3624C46.1328 17.4809 47.004 16.4337 47.6393 15.2222L46.7537 14.7578ZM44.4036 17.5836C43.3893 18.4061 42.2483 19.19 40.9794 19.9348L41.4856 20.7972C42.7927 20.03 43.9758 19.2179 45.0334 18.3604L44.4036 17.5836ZM40.9774 19.936C39.6947 20.6971 38.5968 21.4052 37.6857 22.06L38.2693 22.872C39.1502 22.2388 40.2223 21.5469 41.4877 20.796L40.9774 19.936ZM37.6869 22.0591C36.7765 22.7094 36.0207 23.3968 35.4272 24.1238L36.2018 24.7562C36.7283 24.1112 37.4145 23.4826 38.2681 22.8729L37.6869 22.0591ZM35.4304 24.1199C34.8266 24.8445 34.3764 25.6796 34.078 26.6197L35.0311 26.9223C35.2926 26.0984 35.6824 25.3795 36.1986 24.7601L35.4304 24.1199ZM34.5545 27.271H48.3725V26.271H34.5545V27.271ZM47.8725 26.771V32H48.8725V26.771H47.8725ZM48.3725 31.5H28.2125V32.5H48.3725V31.5Z" fill="#212833"/>
</svg>
