<svg width="51" height="42" viewBox="0 0 51 42" fill="none" xmlns="http://www.w3.org/2000/svg">
<path d="M8.589 31.181L8.31754 31.6009L8.32056 31.6028L8.589 31.181ZM5.292 27.611L4.85337 27.851L5.292 27.611ZM3.549 22.697L3.05755 22.7891L3.05827 22.7928L3.549 22.697ZM3.36 12.995L3.85478 13.0671L3.85488 13.0664L3.36 12.995ZM4.389 8.858L3.92102 8.68188L3.9194 8.68632L4.389 8.858ZM6.363 5.393L6.74975 5.70992L6.75187 5.70729L6.363 5.393ZM9.429 2.978L9.21363 2.52675L9.21163 2.52772L9.429 2.978ZM19.026 3.419L18.7576 3.84083L18.7595 3.84204L19.026 3.419ZM22.323 6.947L21.8836 7.18555L21.8853 7.18876L22.323 6.947ZM24.045 11.861L23.5534 11.9525L23.5543 11.9568L24.045 11.861ZM23.205 25.721L22.737 25.5449V25.5449L23.205 25.721ZM21.231 29.207L21.6199 29.5213L21.231 29.207ZM18.165 31.622L18.3824 32.0723L18.165 31.622ZM16.38 26.519L16.7047 26.8992L16.7054 26.8986L16.38 26.519ZM17.997 24.188L17.536 23.9943L17.5337 24L17.997 24.188ZM18.858 20.954L19.3531 21.0239L18.858 20.954ZM18.837 13.625L18.3419 13.6949L18.3427 13.7006L18.837 13.625ZM17.997 10.391L17.5328 10.5767L17.5337 10.579L17.997 10.391ZM16.38 8.081L16.0552 8.46128L16.0638 8.46833L16.38 8.081ZM11.214 8.081L11.5349 8.46447L11.214 8.081ZM9.576 10.412L10.037 10.6057L10.0379 10.6034L9.576 10.412ZM8.715 13.646L9.21009 13.7159L8.715 13.646ZM8.715 20.975L8.2198 21.0441L8.21991 21.0449L8.715 20.975ZM9.576 24.209L10.0369 24.0153L9.576 24.209ZM11.214 26.519L10.8931 26.9025L10.897 26.9056L11.214 26.519ZM13.818 32.004C11.7869 32.004 10.1437 31.5777 8.85744 30.7592L8.32056 31.6028C9.80634 32.5483 11.6491 33.004 13.818 33.004V32.004ZM8.86045 30.7611C7.54606 29.9114 6.50376 28.784 5.73063 27.371L4.85337 27.851C5.70424 29.406 6.85994 30.6586 8.31755 31.6009L8.86045 30.7611ZM5.73063 27.371C4.94518 25.9355 4.38066 24.3467 4.03973 22.6012L3.05827 22.7928C3.41735 24.6313 4.01482 26.3185 4.85337 27.851L5.73063 27.371ZM4.04044 22.6049C3.71008 20.8429 3.545 19.0748 3.545 17.3H2.545C2.545 19.1372 2.71592 20.9671 3.05756 22.7891L4.04044 22.6049ZM3.545 17.3C3.545 15.8966 3.64819 14.4857 3.85478 13.0671L2.86522 12.9229C2.65182 14.3883 2.545 15.8474 2.545 17.3H3.545ZM3.85488 13.0664C4.06024 11.6425 4.39517 10.2973 4.8586 9.02968L3.9194 8.68632C3.43083 10.0227 3.07976 11.4355 2.86512 12.9236L3.85488 13.0664ZM4.85696 9.03411C5.32905 7.77971 5.96058 6.67296 6.74974 5.70991L5.97626 5.07609C5.11342 6.12904 4.42895 7.33229 3.92104 8.68189L4.85696 9.03411ZM6.75187 5.70729C7.53007 4.74443 8.49288 3.98514 9.64638 3.42827L9.21163 2.52772C7.92912 3.14686 6.84793 3.99756 5.97413 5.07871L6.75187 5.70729ZM9.64437 3.42924C10.7949 2.88012 12.181 2.596 13.818 2.596V1.596C12.067 1.596 10.5271 1.89988 9.21364 2.52676L9.64437 3.42924ZM13.818 2.596C15.8344 2.596 17.4708 3.02201 18.7576 3.84083L19.2944 2.99717C17.8092 2.05199 15.9736 1.596 13.818 1.596V2.596ZM18.7595 3.84204C20.0862 4.67786 21.126 5.78999 21.8836 7.18554L22.7624 6.70845C21.924 5.16401 20.7658 3.92414 19.2925 2.99595L18.7595 3.84204ZM21.8853 7.18876C22.6691 8.60768 23.2263 10.1942 23.5534 11.9525L24.5366 11.7695C24.1917 9.9158 23.6009 8.22632 22.7607 6.70524L21.8853 7.18876ZM23.5543 11.9568C23.8981 13.7171 24.07 15.498 24.07 17.3H25.07C25.07 15.434 24.8919 13.5889 24.5357 11.7652L23.5543 11.9568ZM24.07 17.3C24.07 18.7034 23.9668 20.1143 23.7602 21.5329L24.7498 21.6771C24.9632 20.2117 25.07 18.7526 25.07 17.3H24.07ZM23.7602 21.5329C23.5552 22.9411 23.2138 24.2781 22.737 25.5449L23.673 25.8971C24.1762 24.5599 24.5349 23.1529 24.7498 21.6771L23.7602 21.5329ZM22.737 25.5449C22.2647 26.7998 21.6326 27.9146 20.8421 28.8927L21.6199 29.5213C22.4814 28.4554 23.1653 27.2462 23.673 25.8971L22.737 25.5449ZM20.8421 28.8927C20.0639 29.8556 19.1011 30.6149 17.9476 31.1717L18.3824 32.0723C19.6649 31.4531 20.7461 30.6024 21.6199 29.5213L20.8421 28.8927ZM17.9476 31.1717C16.8118 31.7201 15.4405 32.004 13.818 32.004V33.004C15.5555 33.004 17.0822 32.6999 18.3824 32.0723L17.9476 31.1717ZM13.818 27.88C14.9515 27.88 15.927 27.5635 16.7047 26.8992L16.0553 26.1388C15.489 26.6225 14.7565 26.88 13.818 26.88V27.88ZM16.7054 26.8986C17.4607 26.2512 18.0429 25.4046 18.4603 24.376L17.5337 24C17.1671 24.9034 16.6713 25.6108 16.0546 26.1394L16.7054 26.8986ZM18.4579 24.3817C18.8828 23.3708 19.1799 22.2504 19.3531 21.0239L18.3629 20.8841C18.2001 22.0376 17.9232 23.0732 17.5361 23.9943L18.4579 24.3817ZM19.3531 21.0239C19.5245 19.8099 19.61 18.5685 19.61 17.3H18.61C18.61 18.5235 18.5275 19.7181 18.3629 20.8841L19.3531 21.0239ZM19.61 17.3C19.61 16.0159 19.5173 14.7656 19.3313 13.5494L18.3427 13.7006C18.5207 14.8644 18.61 16.0641 18.61 17.3H19.61ZM19.3321 13.5551C19.1592 12.3306 18.8698 11.2122 18.4603 10.203L17.5337 10.579C17.9082 11.5018 18.1788 12.5394 18.3419 13.6949L19.3321 13.5551ZM18.4612 10.2053C18.0438 9.16172 17.4594 8.31667 16.6962 7.69367L16.0638 8.46833C16.6726 8.96533 17.1662 9.66027 17.5328 10.5767L18.4612 10.2053ZM16.7047 7.70081C15.927 7.03652 14.9515 6.72 13.818 6.72V7.72C14.7565 7.72 15.489 7.97747 16.0553 8.46119L16.7047 7.70081ZM13.818 6.72C12.6721 6.72 11.6843 7.03556 10.8931 7.69753L11.5349 8.46447C12.1157 7.97844 12.8639 7.72 13.818 7.72V6.72ZM10.8931 7.69753C10.1348 8.33206 9.54521 9.17996 9.11407 10.2206L10.0379 10.6034C10.4188 9.68404 10.9212 8.97794 11.5349 8.46447L10.8931 7.69753ZM9.11506 10.2183C8.69017 11.2292 8.39306 12.3496 8.21991 13.5761L9.21009 13.7159C9.37294 12.5624 9.64983 11.5268 10.0369 10.6057L9.11506 10.2183ZM8.21991 13.5761C8.04852 14.7901 7.963 16.0315 7.963 17.3H8.963C8.963 16.0765 9.04548 14.8819 9.21009 13.7159L8.21991 13.5761ZM7.963 17.3C7.963 18.5685 8.04852 19.8166 8.2198 21.0441L9.2102 20.9059C9.04548 19.7254 8.963 18.5235 8.963 17.3H7.963ZM8.21991 21.0449C8.39306 22.2714 8.69017 23.3918 9.11506 24.4027L10.0369 24.0153C9.64983 23.0942 9.37294 22.0586 9.21009 20.9051L8.21991 21.0449ZM9.11506 24.4027C9.54666 25.4296 10.1363 26.2692 10.8931 26.9025L11.5349 26.1355C10.9197 25.6208 10.4173 24.9204 10.0369 24.0153L9.11506 24.4027ZM10.897 26.9056C11.6991 27.5634 12.684 27.88 13.818 27.88V26.88C12.88 26.88 12.1289 26.6226 11.531 26.1324L10.897 26.9056ZM31.5095 30.719L31.2307 31.134L31.2344 31.1365L31.5095 30.719ZM27.5195 25.574L27.3318 25.1106L26.8744 25.2959L27.0537 25.7556L27.5195 25.574ZM32.3915 23.6L32.8392 23.3774L32.633 22.9627L32.2038 23.1366L32.3915 23.6ZM41.2955 26.309L40.9722 25.9275L40.969 25.9303L41.2955 26.309ZM41.2745 20.702L40.9582 21.0893L40.9622 21.0924L41.2745 20.702ZM35.0585 19.673H34.5585V20.173H35.0585V19.673ZM35.0585 14.486V13.986H34.5585V14.486H35.0585ZM40.4975 8.228L40.1476 8.5852L40.1514 8.58884L40.4975 8.228ZM35.2265 7.976L35.4985 8.39558L35.5003 8.39435L35.2265 7.976ZM33.3155 10.139L33.1343 10.605L33.5444 10.7645L33.7547 10.378L33.3155 10.139ZM28.4015 8.228L27.9486 8.0162L27.7222 8.5003L28.2203 8.694L28.4015 8.228ZM32.2235 3.713L32.4959 4.1323L32.4968 4.13173L32.2235 3.713ZM42.5975 3.146L42.3703 3.59139L42.3739 3.59321L42.5975 3.146ZM45.8105 6.044L45.3852 6.30685L45.3865 6.309L45.8105 6.044ZM46.0205 14.045L45.5834 13.8022L45.5824 13.804L46.0205 14.045ZM43.4165 16.775L43.1515 16.351L42.3123 16.8755L43.2324 17.2399L43.4165 16.775ZM46.7555 19.547L47.1785 19.2803L46.7555 19.547ZM46.6925 28.409L47.1078 28.6874L47.1092 28.6853L46.6925 28.409ZM43.1225 31.412L42.9072 30.9607L42.9056 30.9615L43.1225 31.412ZM37.9355 32.004C35.5407 32.004 33.4975 31.4301 31.7846 30.3015L31.2344 31.1365C33.1335 32.3879 35.3744 33.004 37.9355 33.004V32.004ZM31.7884 30.304C30.09 29.1629 28.8204 27.5339 27.9854 25.3924L27.0537 25.7556C27.9546 28.0661 29.345 29.8671 31.2307 31.134L31.7884 30.304ZM27.7073 26.0374L32.5793 24.0634L32.2038 23.1366L27.3318 25.1106L27.7073 26.0374ZM31.9438 23.8226C32.5956 25.1334 33.4203 26.1475 34.4314 26.8331C35.4463 27.5212 36.6206 27.859 37.9355 27.859V26.859C36.8004 26.859 35.8258 26.5703 34.9926 26.0054C34.1557 25.438 33.4335 24.5726 32.8392 23.3774L31.9438 23.8226ZM37.9355 27.859C39.4431 27.859 40.6928 27.4887 41.622 26.6877L40.969 25.9303C40.2742 26.5293 39.2839 26.859 37.9355 26.859V27.859ZM41.6188 26.6904C42.5717 25.8829 43.0345 24.7763 43.0345 23.432H42.0345C42.0345 24.5237 41.6713 25.3351 40.9723 25.9276L41.6188 26.6904ZM43.0345 23.432C43.0345 22.1438 42.5543 21.0856 41.5869 20.3116L40.9622 21.0924C41.6747 21.6624 42.0345 22.4242 42.0345 23.432H43.0345ZM41.5908 20.3147C40.6375 19.5362 39.3874 19.173 37.8935 19.173V20.173C39.2277 20.173 40.2316 20.4958 40.9582 21.0893L41.5908 20.3147ZM37.8935 19.173H35.0585V20.173H37.8935V19.173ZM35.5585 19.673V14.486H34.5585V19.673H35.5585ZM35.0585 14.986H37.8095V13.986H35.0585V14.986ZM37.8095 14.986C39.0573 14.986 40.0994 14.6253 40.8721 13.8526L40.165 13.1454C39.6217 13.6887 38.8578 13.986 37.8095 13.986V14.986ZM40.8721 13.8526C41.6544 13.0702 42.0265 12.0381 42.0265 10.811H41.0265C41.0265 11.8239 40.7266 12.5838 40.165 13.1454L40.8721 13.8526ZM42.0265 10.811C42.0265 9.62867 41.6401 8.63116 40.8436 7.86716L40.1514 8.58884C40.7269 9.14084 41.0265 9.86533 41.0265 10.811H42.0265ZM40.8474 7.87082C40.0537 7.09329 39.0249 6.72 37.8095 6.72V7.72C38.8061 7.72 39.5694 8.01871 40.1476 8.58518L40.8474 7.87082ZM37.8095 6.72C36.7638 6.72 35.807 6.99847 34.9527 7.55765L35.5003 8.39435C36.186 7.94553 36.9512 7.72 37.8095 7.72V6.72ZM34.9546 7.55642C34.1158 8.10009 33.4261 8.88962 32.8763 9.90003L33.7547 10.378C34.2409 9.48438 34.8253 8.8319 35.4985 8.39558L34.9546 7.55642ZM33.4967 9.673L28.5827 7.762L28.2203 8.694L33.1343 10.605L33.4967 9.673ZM28.8544 8.4398C29.7289 6.56974 30.944 5.14036 32.4959 4.1323L31.9511 3.29369C30.227 4.41364 28.8941 5.99426 27.9486 8.0162L28.8544 8.4398ZM32.4968 4.13173C34.0622 3.11024 35.842 2.596 37.8515 2.596V1.596C35.661 1.596 33.6889 2.15975 31.9503 3.29426L32.4968 4.13173ZM37.8515 2.596C39.5774 2.596 41.0793 2.93273 42.3703 3.59138L42.8247 2.70062C41.3717 1.95927 39.7096 1.596 37.8515 1.596V2.596ZM42.3739 3.59321C43.667 4.23974 44.6664 5.14366 45.3852 6.30685L46.2359 5.78115C45.4147 4.45233 44.2721 3.42426 42.8211 2.69878L42.3739 3.59321ZM45.3865 6.309C46.1016 7.4531 46.4655 8.78024 46.4655 10.307H47.4655C47.4655 8.61376 47.0595 7.0989 46.2345 5.779L45.3865 6.309ZM46.4655 10.307C46.4655 11.5842 46.1702 12.746 45.5834 13.8022L46.4576 14.2878C47.1308 13.076 47.4655 11.7458 47.4655 10.307H46.4655ZM45.5824 13.804C45.0089 14.8467 44.2016 15.6947 43.1515 16.351L43.6815 17.199C44.8714 16.4553 45.8001 15.4833 46.4586 14.286L45.5824 13.804ZM43.2324 17.2399C44.5477 17.7608 45.5771 18.6153 46.3326 19.8137L47.1785 19.2803C46.31 17.9027 45.1134 16.9092 43.6006 16.3101L43.2324 17.2399ZM46.3326 19.8137C47.0891 21.0137 47.4735 22.4033 47.4735 23.999H48.4735C48.4735 22.2347 48.0459 20.6563 47.1785 19.2803L46.3326 19.8137ZM47.4735 23.999C47.4735 25.5598 47.0717 26.9323 46.2758 28.1327L47.1092 28.6853C48.0214 27.3097 48.4735 25.7422 48.4735 23.999H47.4735ZM46.2772 28.1306C45.4782 29.3226 44.3608 30.2673 42.9072 30.9607L43.3378 31.8633C44.9363 31.1007 46.1989 30.0434 47.1078 28.6874L46.2772 28.1306ZM42.9056 30.9615C41.4713 31.6521 39.8184 32.004 37.9355 32.004V33.004C39.9447 33.004 41.7497 32.6279 43.3394 31.8625L42.9056 30.9615Z" fill="#212833"/>
</svg>
