<svg width="53" height="42" viewBox="0 0 53 42" fill="none" xmlns="http://www.w3.org/2000/svg">
<path d="M8.589 31.181L8.31754 31.6009L8.32056 31.6028L8.589 31.181ZM5.292 27.611L4.85337 27.851L5.292 27.611ZM3.549 22.697L3.05755 22.7891L3.05827 22.7928L3.549 22.697ZM3.36 12.995L3.85478 13.0671L3.85488 13.0664L3.36 12.995ZM4.389 8.858L3.92102 8.68188L3.9194 8.68632L4.389 8.858ZM6.363 5.393L6.74975 5.70992L6.75187 5.70729L6.363 5.393ZM9.429 2.978L9.21363 2.52675L9.21163 2.52772L9.429 2.978ZM19.026 3.419L18.7576 3.84083L18.7595 3.84204L19.026 3.419ZM22.323 6.947L21.8836 7.18555L21.8853 7.18876L22.323 6.947ZM24.045 11.861L23.5534 11.9525L23.5543 11.9568L24.045 11.861ZM23.205 25.721L22.737 25.5449V25.5449L23.205 25.721ZM21.231 29.207L21.6199 29.5213L21.231 29.207ZM18.165 31.622L18.3824 32.0723L18.165 31.622ZM16.38 26.519L16.7047 26.8992L16.7054 26.8986L16.38 26.519ZM17.997 24.188L17.536 23.9943L17.5337 24L17.997 24.188ZM18.858 20.954L19.3531 21.0239L18.858 20.954ZM18.837 13.625L18.3419 13.6949L18.3427 13.7006L18.837 13.625ZM17.997 10.391L17.5328 10.5767L17.5337 10.579L17.997 10.391ZM16.38 8.081L16.0552 8.46128L16.0638 8.46833L16.38 8.081ZM11.214 8.081L11.5349 8.46447L11.214 8.081ZM9.576 10.412L10.037 10.6057L10.0379 10.6034L9.576 10.412ZM8.715 13.646L9.21009 13.7159L8.715 13.646ZM8.715 20.975L8.2198 21.0441L8.21991 21.0449L8.715 20.975ZM9.576 24.209L10.0369 24.0153L9.576 24.209ZM11.214 26.519L10.8931 26.9025L10.897 26.9056L11.214 26.519ZM13.818 32.004C11.7869 32.004 10.1437 31.5777 8.85744 30.7592L8.32056 31.6028C9.80634 32.5483 11.6491 33.004 13.818 33.004V32.004ZM8.86045 30.7611C7.54606 29.9114 6.50376 28.784 5.73063 27.371L4.85337 27.851C5.70424 29.406 6.85994 30.6586 8.31755 31.6009L8.86045 30.7611ZM5.73063 27.371C4.94518 25.9355 4.38066 24.3467 4.03973 22.6012L3.05827 22.7928C3.41735 24.6313 4.01482 26.3185 4.85337 27.851L5.73063 27.371ZM4.04044 22.6049C3.71008 20.8429 3.545 19.0748 3.545 17.3H2.545C2.545 19.1372 2.71592 20.9671 3.05756 22.7891L4.04044 22.6049ZM3.545 17.3C3.545 15.8966 3.64819 14.4857 3.85478 13.0671L2.86522 12.9229C2.65182 14.3883 2.545 15.8474 2.545 17.3H3.545ZM3.85488 13.0664C4.06024 11.6425 4.39517 10.2973 4.8586 9.02968L3.9194 8.68632C3.43083 10.0227 3.07976 11.4355 2.86512 12.9236L3.85488 13.0664ZM4.85696 9.03411C5.32905 7.77971 5.96058 6.67296 6.74974 5.70991L5.97626 5.07609C5.11342 6.12904 4.42895 7.33229 3.92104 8.68189L4.85696 9.03411ZM6.75187 5.70729C7.53007 4.74443 8.49288 3.98514 9.64638 3.42827L9.21163 2.52772C7.92912 3.14686 6.84793 3.99756 5.97413 5.07871L6.75187 5.70729ZM9.64437 3.42924C10.7949 2.88012 12.181 2.596 13.818 2.596V1.596C12.067 1.596 10.5271 1.89988 9.21364 2.52676L9.64437 3.42924ZM13.818 2.596C15.8344 2.596 17.4708 3.02201 18.7576 3.84083L19.2944 2.99717C17.8092 2.05199 15.9736 1.596 13.818 1.596V2.596ZM18.7595 3.84204C20.0862 4.67786 21.126 5.78999 21.8836 7.18554L22.7624 6.70845C21.924 5.16401 20.7658 3.92414 19.2925 2.99595L18.7595 3.84204ZM21.8853 7.18876C22.6691 8.60768 23.2263 10.1942 23.5534 11.9525L24.5366 11.7695C24.1917 9.9158 23.6009 8.22632 22.7607 6.70524L21.8853 7.18876ZM23.5543 11.9568C23.8981 13.7171 24.07 15.498 24.07 17.3H25.07C25.07 15.434 24.8919 13.5889 24.5357 11.7652L23.5543 11.9568ZM24.07 17.3C24.07 18.7034 23.9668 20.1143 23.7602 21.5329L24.7498 21.6771C24.9632 20.2117 25.07 18.7526 25.07 17.3H24.07ZM23.7602 21.5329C23.5552 22.9411 23.2138 24.2781 22.737 25.5449L23.673 25.8971C24.1762 24.5599 24.5349 23.1529 24.7498 21.6771L23.7602 21.5329ZM22.737 25.5449C22.2647 26.7998 21.6326 27.9146 20.8421 28.8927L21.6199 29.5213C22.4814 28.4554 23.1653 27.2462 23.673 25.8971L22.737 25.5449ZM20.8421 28.8927C20.0639 29.8556 19.1011 30.6149 17.9476 31.1717L18.3824 32.0723C19.6649 31.4531 20.7461 30.6024 21.6199 29.5213L20.8421 28.8927ZM17.9476 31.1717C16.8118 31.7201 15.4405 32.004 13.818 32.004V33.004C15.5555 33.004 17.0822 32.6999 18.3824 32.0723L17.9476 31.1717ZM13.818 27.88C14.9515 27.88 15.927 27.5635 16.7047 26.8992L16.0553 26.1388C15.489 26.6225 14.7565 26.88 13.818 26.88V27.88ZM16.7054 26.8986C17.4607 26.2512 18.0429 25.4046 18.4603 24.376L17.5337 24C17.1671 24.9034 16.6713 25.6108 16.0546 26.1394L16.7054 26.8986ZM18.4579 24.3817C18.8828 23.3708 19.1799 22.2504 19.3531 21.0239L18.3629 20.8841C18.2001 22.0376 17.9232 23.0732 17.5361 23.9943L18.4579 24.3817ZM19.3531 21.0239C19.5245 19.8099 19.61 18.5685 19.61 17.3H18.61C18.61 18.5235 18.5275 19.7181 18.3629 20.8841L19.3531 21.0239ZM19.61 17.3C19.61 16.0159 19.5173 14.7656 19.3313 13.5494L18.3427 13.7006C18.5207 14.8644 18.61 16.0641 18.61 17.3H19.61ZM19.3321 13.5551C19.1592 12.3306 18.8698 11.2122 18.4603 10.203L17.5337 10.579C17.9082 11.5018 18.1788 12.5394 18.3419 13.6949L19.3321 13.5551ZM18.4612 10.2053C18.0438 9.16172 17.4594 8.31667 16.6962 7.69367L16.0638 8.46833C16.6726 8.96533 17.1662 9.66027 17.5328 10.5767L18.4612 10.2053ZM16.7047 7.70081C15.927 7.03652 14.9515 6.72 13.818 6.72V7.72C14.7565 7.72 15.489 7.97747 16.0553 8.46119L16.7047 7.70081ZM13.818 6.72C12.6721 6.72 11.6843 7.03556 10.8931 7.69753L11.5349 8.46447C12.1157 7.97844 12.8639 7.72 13.818 7.72V6.72ZM10.8931 7.69753C10.1348 8.33206 9.54521 9.17996 9.11407 10.2206L10.0379 10.6034C10.4188 9.68404 10.9212 8.97794 11.5349 8.46447L10.8931 7.69753ZM9.11506 10.2183C8.69017 11.2292 8.39306 12.3496 8.21991 13.5761L9.21009 13.7159C9.37294 12.5624 9.64983 11.5268 10.0369 10.6057L9.11506 10.2183ZM8.21991 13.5761C8.04852 14.7901 7.963 16.0315 7.963 17.3H8.963C8.963 16.0765 9.04548 14.8819 9.21009 13.7159L8.21991 13.5761ZM7.963 17.3C7.963 18.5685 8.04852 19.8166 8.2198 21.0441L9.2102 20.9059C9.04548 19.7254 8.963 18.5235 8.963 17.3H7.963ZM8.21991 21.0449C8.39306 22.2714 8.69017 23.3918 9.11506 24.4027L10.0369 24.0153C9.64983 23.0942 9.37294 22.0586 9.21009 20.9051L8.21991 21.0449ZM9.11506 24.4027C9.54666 25.4296 10.1363 26.2692 10.8931 26.9025L11.5349 26.1355C10.9197 25.6208 10.4173 24.9204 10.0369 24.0153L9.11506 24.4027ZM10.897 26.9056C11.6991 27.5634 12.684 27.88 13.818 27.88V26.88C12.88 26.88 12.1289 26.6226 11.531 26.1324L10.897 26.9056ZM41.2115 32H40.7115V32.5H41.2115V32ZM41.2115 25.91H41.7115V25.41H41.2115V25.91ZM26.1965 25.91H25.6965V26.41H26.1965V25.91ZM26.1965 22.508L25.7983 22.2056L25.6965 22.3397V22.508H26.1965ZM41.3165 2.6V2.1H41.0684L40.9183 2.29758L41.3165 2.6ZM46.5245 2.6H47.0245V2.1H46.5245V2.6ZM46.5245 20.891H46.0245V21.391H46.5245V20.891ZM50.2415 20.891H50.7415V20.391H50.2415V20.891ZM50.2415 25.91V26.41H50.7415V25.91H50.2415ZM46.5245 25.91V25.41H46.0245V25.91H46.5245ZM46.5245 32V32.5H47.0245V32H46.5245ZM33.2525 20.891L32.8506 20.5935L32.2603 21.391H33.2525V20.891ZM41.2115 20.891V21.391H41.7115V20.891H41.2115ZM41.2115 10.139H41.7115V8.62315L40.8096 9.84152L41.2115 10.139ZM41.7115 32V25.91H40.7115V32H41.7115ZM41.2115 25.41H26.1965V26.41H41.2115V25.41ZM26.6965 25.91V22.508H25.6965V25.91H26.6965ZM26.5947 22.8104L41.7147 2.90241L40.9183 2.29758L25.7983 22.2056L26.5947 22.8104ZM41.3165 3.1H46.5245V2.1H41.3165V3.1ZM46.0245 2.6V20.891H47.0245V2.6H46.0245ZM46.5245 21.391H50.2415V20.391H46.5245V21.391ZM49.7415 20.891V25.91H50.7415V20.891H49.7415ZM50.2415 25.41H46.5245V26.41H50.2415V25.41ZM46.0245 25.91V32H47.0245V25.91H46.0245ZM46.5245 31.5H41.2115V32.5H46.5245V31.5ZM33.2525 21.391H41.2115V20.391H33.2525V21.391ZM41.7115 20.891V10.139H40.7115V20.891H41.7115ZM40.8096 9.84152L32.8506 20.5935L33.6544 21.1885L41.6134 10.4365L40.8096 9.84152Z" fill="#212833"/>
</svg>
