<svg width="142" height="36" viewBox="0 0 142 36" fill="none" xmlns="http://www.w3.org/2000/svg">
<g clip-path="url(#clip0_413_509)">
<path d="M1.69836 26.4667L1.69837 9.16205L10.3507 13.9689V21.7079L17.2726 25.6014L24.1944 21.7079V13.9689L32.8467 9.16205V26.4667L17.2726 35.1189L1.69836 26.4667Z" fill="#636466"/>
<path fill-rule="evenodd" clip-rule="evenodd" d="M6.02453 11.5655L1.69836 9.16208L17.2726 0.509766L32.8467 9.16208L28.5205 11.5655V24.3036L17.2726 30.7929L6.02452 24.3036L6.02453 11.5655ZM28.0519 11.8259L24.1944 13.9689V13.9208L17.2726 10.0273L10.3507 13.9208V13.9689L6.49319 11.8259V24.0374L17.2726 30.2563L28.0519 24.0374V11.8259Z" fill="#636466"/>
<path d="M41.139 25.0991V10.5632H43.8801V22.6072H50.5251V25.0991H41.139Z" fill="#636466"/>
<path d="M56.4431 25.3898C55.4187 25.3898 54.4981 25.1822 53.6813 24.7668C52.8645 24.3515 52.2208 23.7493 51.7501 22.9602C51.2794 22.1712 51.0441 21.2229 51.0441 20.1154V19.7831C51.0441 18.6756 51.2794 17.7273 51.7501 16.9382C52.2208 16.1492 52.8645 15.547 53.6813 15.1317C54.4981 14.7163 55.4187 14.5087 56.4431 14.5087C57.4676 14.5087 58.3882 14.7163 59.205 15.1317C60.0217 15.547 60.6655 16.1492 61.1361 16.9382C61.6068 17.7273 61.8422 18.6756 61.8422 19.7831V20.1154C61.8422 21.2229 61.6068 22.1712 61.1361 22.9602C60.6655 23.7493 60.0217 24.3515 59.205 24.7668C58.3882 25.1822 57.4676 25.3898 56.4431 25.3898ZM56.4431 23.064C57.2461 23.064 57.9106 22.808 58.4366 22.2957C58.9627 21.7697 59.2257 21.0221 59.2257 20.053V19.8454C59.2257 18.8764 58.9627 18.1357 58.4366 17.6235C57.9244 17.0975 57.2599 16.8344 56.4431 16.8344C55.6402 16.8344 54.9757 17.0975 54.4497 17.6235C53.9236 18.1357 53.6606 18.8764 53.6606 19.8454V20.053C53.6606 21.0221 53.9236 21.7697 54.4497 22.2957C54.9757 22.808 55.6402 23.064 56.4431 23.064Z" fill="#636466"/>
<path d="M62.8245 19.9908V19.6585C62.8245 18.5787 63.039 17.6581 63.4682 16.8967C63.8973 16.1214 64.4649 15.5331 65.1709 15.1317C65.8908 14.7163 66.673 14.5087 67.5174 14.5087C68.4588 14.5087 69.1718 14.6748 69.6563 15.007C70.1408 15.3393 70.4939 15.6854 70.7153 16.0454H71.0892V14.7994H73.6641V26.9265C73.6641 27.6325 73.4564 28.1931 73.0411 28.6085C72.6258 29.0376 72.072 29.2522 71.3798 29.2522H64.4857V26.968H70.4662C70.8537 26.968 71.0476 26.7603 71.0476 26.345V23.6662H70.6738C70.5353 23.8877 70.3415 24.1162 70.0924 24.3515C69.8432 24.573 69.5109 24.7599 69.0956 24.9122C68.6803 25.0645 68.1542 25.1407 67.5174 25.1407C66.673 25.1407 65.8908 24.9399 65.1709 24.5384C64.4649 24.1231 63.8973 23.5347 63.4682 22.7734C63.039 21.9981 62.8245 21.0706 62.8245 19.9908ZM68.265 22.8564C69.0679 22.8564 69.7394 22.6003 70.2793 22.0881C70.8192 21.5759 71.0892 20.856 71.0892 19.9285V19.7208C71.0892 18.7794 70.8192 18.0596 70.2793 17.5612C69.7532 17.049 69.0818 16.7929 68.265 16.7929C67.4621 16.7929 66.7906 17.049 66.2508 17.5612C65.7109 18.0596 65.4409 18.7794 65.4409 19.7208V19.9285C65.4409 20.856 65.7109 21.5759 66.2508 22.0881C66.7906 22.6003 67.4621 22.8564 68.265 22.8564Z" fill="#636466"/>
<path d="M80.5311 25.3898C79.5066 25.3898 78.586 25.1822 77.7692 24.7668C76.9524 24.3515 76.3087 23.7493 75.8381 22.9602C75.3674 22.1712 75.1321 21.2229 75.1321 20.1154V19.7831C75.1321 18.6756 75.3674 17.7273 75.8381 16.9382C76.3087 16.1492 76.9524 15.547 77.7692 15.1317C78.586 14.7163 79.5066 14.5087 80.5311 14.5087C81.5555 14.5087 82.4761 14.7163 83.2929 15.1317C84.1097 15.547 84.7534 16.1492 85.224 16.9382C85.6948 17.7273 85.9301 18.6756 85.9301 19.7831V20.1154C85.9301 21.2229 85.6948 22.1712 85.224 22.9602C84.7534 23.7493 84.1097 24.3515 83.2929 24.7668C82.4761 25.1822 81.5555 25.3898 80.5311 25.3898ZM80.5311 23.064C81.334 23.064 81.9985 22.808 82.5245 22.2957C83.0506 21.7697 83.3137 21.0221 83.3137 20.053V19.8454C83.3137 18.8764 83.0506 18.1357 82.5245 17.6235C82.0123 17.0975 81.3479 16.8344 80.5311 16.8344C79.7281 16.8344 79.0637 17.0975 78.5376 17.6235C78.0116 18.1357 77.7485 18.8764 77.7485 19.8454V20.053C77.7485 21.0221 78.0116 21.7697 78.5376 22.2957C79.0637 22.808 79.7281 23.064 80.5311 23.064Z" fill="#636466"/>
<path d="M87.4109 25.0991V14.7993H90.0273V25.0991H87.4109ZM88.719 13.595C88.2484 13.595 87.8469 13.4427 87.5147 13.1381C87.1963 12.8335 87.0371 12.4321 87.0371 11.9338C87.0371 11.4354 87.1963 11.0339 87.5147 10.7293C87.8469 10.4248 88.2484 10.2725 88.719 10.2725C89.2036 10.2725 89.6051 10.4248 89.9235 10.7293C90.2419 11.0339 90.4011 11.4354 90.4011 11.9338C90.4011 12.4321 90.2419 12.8335 89.9235 13.1381C89.6051 13.4427 89.2036 13.595 88.719 13.595Z" fill="#636466"/>
<path d="M91.9923 29.2522V14.7994H94.5674V16.0454H94.9413C95.1762 15.6439 95.5428 15.2908 96.042 14.9862C96.5403 14.6678 97.2532 14.5087 98.1807 14.5087C99.0115 14.5087 99.7796 14.7163 100.485 15.1317C101.192 15.5331 101.759 16.1283 102.188 16.9175C102.617 17.7066 102.832 18.6618 102.832 19.7831V20.1154C102.832 21.2367 102.617 22.1919 102.188 22.981C101.759 23.7701 101.192 24.3723 100.485 24.7876C99.7796 25.1891 99.0115 25.3898 98.1807 25.3898C97.5571 25.3898 97.0312 25.3136 96.602 25.1614C96.1866 25.0229 95.8477 24.843 95.5852 24.6215C95.3355 24.3861 95.1348 24.1508 94.9828 23.9155H94.6088V29.2522H91.9923ZM97.3913 23.1056C98.2083 23.1056 98.8798 22.8494 99.4057 22.3372C99.9454 21.8112 100.215 21.0498 100.215 20.053V19.8454C100.215 18.8487 99.9454 18.0941 99.4057 17.5819C98.8659 17.0559 98.1945 16.7929 97.3913 16.7929C96.5882 16.7929 95.9167 17.0559 95.377 17.5819C94.8373 18.0941 94.5674 18.8487 94.5674 19.8454V20.053C94.5674 21.0498 94.8373 21.8112 95.377 22.3372C95.9167 22.8494 96.5882 23.1056 97.3913 23.1056Z" fill="#636466"/>
<path d="M108.577 25.3898C107.235 25.3898 106.134 25.0991 105.276 24.5177C104.418 23.9362 103.899 23.1056 103.718 22.0257L106.127 21.4028C106.224 21.8873 106.384 22.2681 106.605 22.5449C106.84 22.8218 107.124 23.0225 107.457 23.1471C107.802 23.2578 108.176 23.3133 108.577 23.3133C109.186 23.3133 109.637 23.2094 109.928 23.0018C110.218 22.7803 110.363 22.5103 110.363 22.1919C110.363 21.8735 110.225 21.6313 109.948 21.4651C109.672 21.2851 109.229 21.1398 108.619 21.0291L108.038 20.9252C107.317 20.7867 106.66 20.5999 106.065 20.3645C105.47 20.1154 104.992 19.7762 104.632 19.347C104.272 18.9178 104.092 18.3641 104.092 17.6857C104.092 16.6614 104.466 15.8792 105.214 15.3393C105.961 14.7855 106.944 14.5087 108.162 14.5087C109.312 14.5087 110.267 14.7648 111.027 15.277C111.789 15.7892 112.287 16.4607 112.523 17.2913L110.094 18.0388C109.983 17.5128 109.755 17.1389 109.408 16.9175C109.076 16.696 108.66 16.5852 108.162 16.5852C107.664 16.5852 107.283 16.6752 107.02 16.8551C106.757 17.0213 106.626 17.2566 106.626 17.5612C106.626 17.8934 106.764 18.1426 107.041 18.3087C107.317 18.461 107.691 18.5787 108.162 18.6618L108.743 18.7656C109.519 18.904 110.218 19.0909 110.841 19.3262C111.478 19.5477 111.976 19.8731 112.336 20.3023C112.71 20.7176 112.897 21.2851 112.897 22.005C112.897 23.0849 112.502 23.9224 111.713 24.5177C110.938 25.0991 109.893 25.3898 108.577 25.3898Z" fill="#636466"/>
<path d="M118.179 25.2651C117.377 25.2651 116.671 25.0852 116.062 24.7253C115.467 24.3515 115.003 23.8393 114.67 23.1886C114.339 22.538 114.172 21.7904 114.172 20.946V14.7993H116.789V20.7383C116.789 21.5135 116.976 22.095 117.35 22.4826C117.736 22.8702 118.283 23.064 118.99 23.064C119.792 23.064 120.416 22.801 120.859 22.2749C121.302 21.735 121.523 20.9875 121.523 20.0323V14.7993H124.14V25.0991H121.564V23.7493H121.191C121.025 24.0954 120.713 24.4345 120.256 24.7668C119.8 25.0991 119.107 25.2651 118.179 25.2651Z" fill="#636466"/>
<path d="M126.117 25.0991V14.7994H128.691V15.9207H129.065C129.245 15.5746 129.543 15.277 129.958 15.0278C130.373 14.7648 130.92 14.6333 131.599 14.6333C132.332 14.6333 132.921 14.7786 133.364 15.0693C133.807 15.3462 134.146 15.7131 134.382 16.1699H134.755C134.99 15.727 135.323 15.3601 135.752 15.0693C136.181 14.7786 136.79 14.6333 137.58 14.6333C138.216 14.6333 138.791 14.7717 139.303 15.0486C139.829 15.3116 140.244 15.72 140.549 16.2738C140.867 16.8136 141.026 17.4989 141.026 18.3296V25.0991H138.409V18.5165C138.409 17.9488 138.265 17.5266 137.974 17.2497C137.683 16.9591 137.275 16.8136 136.749 16.8136C136.154 16.8136 135.69 17.0075 135.357 17.3951C135.039 17.7688 134.88 18.3088 134.88 19.0148V25.0991H132.263V18.5165C132.263 17.9488 132.118 17.5266 131.828 17.2497C131.537 16.9591 131.129 16.8136 130.602 16.8136C130.007 16.8136 129.543 17.0075 129.211 17.3951C128.892 17.7688 128.733 18.3088 128.733 19.0148V25.0991H126.117Z" fill="#636466"/>
</g>
<defs>
<clipPath id="clip0_413_509">
<rect width="140.921" height="35" fill="white" transform="translate(0.888916 0.509766)"/>
</clipPath>
</defs>
</svg>
