<svg width="146" height="36" viewBox="0 0 146 36" fill="none" xmlns="http://www.w3.org/2000/svg">
<g clip-path="url(#clip0_413_508)">
<path d="M44.5618 25.5418H54.7647V22.4686H48.1881V10.893H44.5618V25.5418Z" fill="#636466"/>
<path d="M60.8096 23.493C59.355 23.493 58.5969 22.2228 58.5969 20.3174C58.5969 18.412 59.355 17.1213 60.8096 17.1213C62.2642 17.1213 63.0428 18.412 63.0428 20.3174C63.0428 22.2228 62.2642 23.493 60.8096 23.493ZM60.8301 25.8696C64.2106 25.8696 66.4233 23.4725 66.4233 20.3174C66.4233 17.1623 64.2106 14.7652 60.8301 14.7652C57.4701 14.7652 55.2164 17.1623 55.2164 20.3174C55.2164 23.4725 57.4701 25.8696 60.8301 25.8696Z" fill="#636466"/>
<path d="M72.2746 29.1681C73.8316 29.1681 75.2043 28.8198 76.1263 28.0003C76.9663 27.2423 77.5194 26.0949 77.5194 24.5174V15.052H74.3233V16.1788H74.2824C73.6677 15.2979 72.7253 14.7447 71.3321 14.7447C68.7302 14.7447 66.9272 16.9164 66.9272 19.9896C66.9272 23.2062 69.1194 24.9681 71.4755 24.9681C72.7458 24.9681 73.5448 24.4559 74.1594 23.7593H74.2414V24.8042C74.2414 26.0744 73.6472 26.812 72.2336 26.812C71.1272 26.812 70.5741 26.3408 70.3897 25.7876H67.1526C67.4804 27.9798 69.3858 29.1681 72.2746 29.1681ZM72.2541 22.4891C71.0043 22.4891 70.1848 21.4647 70.1848 19.8871C70.1848 18.2891 71.0043 17.2647 72.2541 17.2647C73.6472 17.2647 74.3848 18.453 74.3848 19.8666C74.3848 21.3418 73.7087 22.4891 72.2541 22.4891Z" fill="#636466"/>
<path d="M84.0912 23.493C82.6366 23.493 81.8785 22.2228 81.8785 20.3174C81.8785 18.412 82.6366 17.1213 84.0912 17.1213C85.5458 17.1213 86.324 18.412 86.324 20.3174C86.324 22.2228 85.5458 23.493 84.0912 23.493ZM84.1117 25.8696C87.4918 25.8696 89.7045 23.4725 89.7045 20.3174C89.7045 17.1623 87.4918 14.7652 84.1117 14.7652C80.7517 14.7652 78.498 17.1623 78.498 20.3174C78.498 23.4725 80.7517 25.8696 84.1117 25.8696Z" fill="#636466"/>
<path d="M90.6803 25.5418H94.0198V15.052H90.6803V25.5418ZM90.6803 13.5974H94.0198V10.893H90.6803V13.5974Z" fill="#636466"/>
<path d="M95.4685 29.0042H98.808V24.4559H98.849C99.5046 25.3369 100.468 25.8696 101.82 25.8696C104.565 25.8696 106.389 23.6979 106.389 20.2969C106.389 17.1418 104.688 14.7447 101.902 14.7447C100.468 14.7447 99.4431 15.3798 98.7261 16.3223H98.6646V15.052H95.4685V29.0042ZM100.959 23.2881C99.5251 23.2881 98.7056 22.1203 98.7056 20.4198C98.7056 18.7193 99.4431 17.4286 100.898 17.4286C102.332 17.4286 103.008 18.6169 103.008 20.4198C103.008 22.2023 102.229 23.2881 100.959 23.2881Z" fill="#636466"/>
<path d="M111.825 25.8696C114.571 25.8696 116.599 24.6813 116.599 22.3866C116.599 19.7027 114.427 19.2315 112.583 18.9242C111.252 18.6783 110.063 18.5759 110.063 17.8383C110.063 17.1827 110.699 16.8754 111.518 16.8754C112.44 16.8754 113.075 17.1623 113.198 18.1047H116.271C116.107 16.0354 114.509 14.7447 111.539 14.7447C109.059 14.7447 107.011 15.892 107.011 18.1047C107.011 20.5632 108.957 21.0549 110.78 21.3623C112.174 21.6081 113.444 21.7105 113.444 22.653C113.444 23.3291 112.809 23.6979 111.805 23.6979C110.699 23.6979 110.002 23.1857 109.879 22.1408H106.724C106.826 24.4559 108.752 25.8696 111.825 25.8696Z" fill="#636466"/>
<path d="M121.135 25.8491C122.59 25.8491 123.512 25.2754 124.27 24.251H124.332V25.5418H127.528V15.052H124.188V20.9115C124.188 22.1613 123.492 23.0218 122.344 23.0218C121.279 23.0218 120.767 22.3866 120.767 21.2393V15.052H117.448V21.9359C117.448 24.2715 118.718 25.8491 121.135 25.8491Z" fill="#636466"/>
<path d="M128.98 25.5418H132.32V19.6618C132.32 18.412 132.935 17.531 133.979 17.531C134.983 17.531 135.455 18.1866 135.455 19.3135V25.5418H138.794V19.6618C138.794 18.412 139.388 17.531 140.454 17.531C141.458 17.531 141.929 18.1866 141.929 19.3135V25.5418H145.268V18.7193C145.268 16.3632 144.08 14.7447 141.703 14.7447C140.351 14.7447 139.224 15.3183 138.405 16.5886H138.364C137.831 15.4618 136.786 14.7447 135.414 14.7447C133.898 14.7447 132.894 15.4618 132.238 16.5476H132.177V15.052H128.98V25.5418Z" fill="#636466"/>
<path fill-rule="evenodd" clip-rule="evenodd" d="M17.948 34.932C27.3774 34.932 35.0212 27.2881 35.0212 17.8588C35.0212 8.42962 27.3774 0.785706 17.948 0.785706C8.51878 0.785706 0.874878 8.42962 0.874878 17.8588C0.874878 27.2881 8.51878 34.932 17.948 34.932ZM20.5833 13.9769C22.0386 12.5215 22.0386 10.1619 20.5833 8.70651C19.1279 7.25113 16.7683 7.25113 15.3129 8.70651C13.8575 10.1619 13.8575 12.5215 15.3129 13.9769L17.948 16.6121L20.5833 13.9769ZM21.83 20.4941C23.2854 21.9495 25.645 21.9495 27.1004 20.4941C28.5557 19.0387 28.5557 16.6791 27.1004 15.2237C25.645 13.7684 23.2854 13.7684 21.83 15.2237L19.1949 17.8589L21.83 20.4941ZM20.5833 27.0113C22.0386 25.5559 22.0386 23.1963 20.5833 21.7409L17.948 19.1057L15.3129 21.7409C13.8575 23.1963 13.8575 25.5559 15.3129 27.0113C16.7683 28.4667 19.1279 28.4667 20.5833 27.0113ZM8.79566 20.4941C7.34031 19.0387 7.34031 16.6791 8.79566 15.2237C10.2511 13.7684 12.6107 13.7684 14.0661 15.2237L16.7012 17.8589L14.0661 20.4941C12.6107 21.9495 10.2511 21.9495 8.79566 20.4941Z" fill="#636466"/>
</g>
<defs>
<clipPath id="clip0_413_508">
<rect width="145.122" height="35" fill="white" transform="translate(0.78833 0.509766)"/>
</clipPath>
</defs>
</svg>
