<svg width="140" height="33" viewBox="0 0 140 33" fill="none" xmlns="http://www.w3.org/2000/svg">
<path d="M23.0769 15.3182C24.2269 14.3552 24.9583 12.9087 24.9583 11.2913C24.9583 9.67403 24.2269 8.22752 23.0769 7.26447C23.2087 7.20064 23.3355 7.13137 23.4564 7.05631C24.2192 6.58197 25.1195 6.30804 26.0839 6.30804C28.8361 6.30804 31.0671 8.5392 31.0671 11.2913C31.0671 14.0435 28.8361 16.2746 26.0839 16.2746C25.1195 16.2746 24.2192 16.0006 23.4564 15.5264C23.3355 15.4513 23.2087 15.3821 23.0769 15.3182Z" fill="#636466"/>
<path d="M21.693 12.0758C22.2074 10.6668 22.1175 9.04839 21.3088 7.64775C20.5001 6.24708 19.1435 5.36002 17.666 5.10101C17.7483 4.97986 17.8234 4.85645 17.8905 4.73102C18.314 3.93887 18.9568 3.25146 19.7919 2.76929C22.1754 1.3932 25.2232 2.20984 26.5992 4.59329C27.9753 6.97675 27.1587 10.0245 24.7752 11.4006C23.94 11.8827 23.0233 12.0957 22.1256 12.0664C21.9835 12.0617 21.8389 12.0652 21.693 12.0758Z" fill="#636466"/>
<path d="M18.8729 9.95975C18.6139 8.48229 17.7268 7.12567 16.3262 6.31698C14.9255 5.50832 13.3071 5.41842 11.8981 5.93284C11.9088 5.78681 11.9122 5.64233 11.9075 5.50019C11.8782 4.60241 12.0912 3.68571 12.5733 2.85055C13.9495 0.467099 16.9971 -0.349534 19.3806 1.02656C21.764 2.40265 22.5807 5.45036 21.2046 7.83387C20.7224 8.66899 20.035 9.31179 19.2429 9.73529C19.1175 9.80235 18.9941 9.8775 18.8729 9.95975Z" fill="#636466"/>
<path d="M15.3724 9.53735C14.4094 8.38732 12.9628 7.656 11.3455 7.656C9.72811 7.656 8.28163 8.38732 7.31859 9.53735C7.2548 9.40554 7.18551 9.27871 7.11042 9.15787C6.63613 8.39506 6.36221 7.49473 6.36221 6.53033C6.36221 3.77814 8.5933 1.54706 11.3455 1.54706C14.0977 1.54706 16.3287 3.77814 16.3287 6.53033C16.3287 7.49473 16.0548 8.39506 15.5806 9.15787C15.5054 9.27871 15.4361 9.40554 15.3724 9.53735Z" fill="#636466"/>
<path d="M12.1293 10.9214C10.7203 10.407 9.10184 10.4969 7.70119 11.3055C6.30053 12.1142 5.41348 13.4708 5.15448 14.9482C5.03333 14.866 4.90991 14.7908 4.78448 14.7238C3.99233 14.3003 3.30492 13.6575 2.82275 12.8224C1.44665 10.4389 2.26328 7.39119 4.64675 6.01509C7.03021 4.63899 10.0779 5.45562 11.4541 7.8391C11.9362 8.67422 12.1492 9.59095 12.1198 10.4887C12.1152 10.6308 12.1186 10.7753 12.1293 10.9214Z" fill="#636466"/>
<path d="M10.0123 13.7418C8.53484 14.0008 7.17824 14.8879 6.36957 16.2885C5.5609 17.6892 5.47101 19.3075 5.98544 20.7166C5.83939 20.7059 5.69489 20.7025 5.55273 20.7071C4.65497 20.7365 3.73826 20.5235 2.90311 20.0413C0.51965 18.6652 -0.296984 15.6175 1.07911 13.234C2.4552 10.8506 5.50291 10.0339 7.88638 11.4101C8.72152 11.8922 9.3643 12.5796 9.78779 13.3717C9.85484 13.4972 9.93009 13.6206 10.0123 13.7418Z" fill="#636466"/>
<path d="M9.58902 17.2425C8.43899 18.2056 7.70765 19.6521 7.70765 21.2694C7.70765 22.8867 8.43899 24.3332 9.58902 25.2962C9.45722 25.3599 9.33038 25.4293 9.20959 25.5044C8.44677 25.9786 7.5464 26.2525 6.58205 26.2525C3.82987 26.2525 1.59879 24.0216 1.59879 21.2694C1.59879 18.5172 3.82987 16.286 6.58205 16.286C7.5464 16.286 8.44677 16.5599 9.20959 17.0343C9.33038 17.1093 9.45722 17.1787 9.58902 17.2425Z" fill="#636466"/>
<path d="M10.9727 20.4857C10.4582 21.8947 10.5481 23.5131 11.3568 24.9137C12.1655 26.3144 13.5221 27.2014 14.9996 27.4604C14.9173 27.5816 14.8422 27.7051 14.7751 27.8305C14.3516 28.6226 13.7088 29.31 12.8737 29.7922C10.4902 31.1683 7.44248 30.3516 6.06639 27.9682C4.69029 25.5847 5.50694 22.537 7.89039 21.1609C8.72555 20.6787 9.64226 20.4658 10.54 20.4951C10.6821 20.4998 10.8266 20.4963 10.9727 20.4857Z" fill="#636466"/>
<path d="M13.7929 22.6026C14.0519 24.0801 14.939 25.4367 16.3396 26.2453C17.7402 27.054 19.3587 27.1438 20.7677 26.6294C20.7571 26.7755 20.7537 26.9199 20.7583 27.0622C20.7876 27.9599 20.5747 28.8766 20.0925 29.7117C18.7164 32.0952 15.6687 32.9119 13.2852 31.5357C10.9017 30.1597 10.0851 27.112 11.4612 24.7285C11.9434 23.8934 12.6308 23.2506 13.4229 22.8271C13.5484 22.76 13.6718 22.6848 13.7929 22.6026Z" fill="#636466"/>
<path d="M17.2936 23.0259C18.2567 24.1759 19.7032 24.9072 21.3206 24.9072C22.9379 24.9072 24.3844 24.1759 25.3475 23.0259C25.4112 23.1577 25.4805 23.2845 25.5557 23.4053C26.0299 24.1681 26.3038 25.0685 26.3038 26.0328C26.3038 28.785 24.0728 31.0161 21.3206 31.0161C18.5684 31.0161 16.3373 28.785 16.3373 26.0328C16.3373 25.0685 16.6112 24.1681 17.0855 23.4053C17.1606 23.2845 17.2299 23.1577 17.2936 23.0259Z" fill="#636466"/>
<path d="M20.5369 21.6422C21.946 22.1566 23.5643 22.0667 24.965 21.2581C26.3656 20.4494 27.2527 19.0928 27.5117 17.6154C27.6328 17.6975 27.7562 17.7728 27.8817 17.8398C28.6739 18.2633 29.3613 18.9061 29.8434 19.7412C31.2196 22.1247 30.4029 25.1724 28.0195 26.5486C25.636 27.9246 22.5883 27.108 21.2122 24.7245C20.73 23.8894 20.517 22.9727 20.5463 22.0749C20.551 21.9328 20.5476 21.7883 20.5369 21.6422Z" fill="#636466"/>
<path d="M26.2996 16.27C26.2986 16.2717 26.2976 16.2735 26.2966 16.2752C25.488 17.6759 24.1313 18.5629 22.6539 18.8219C22.736 18.9431 22.8113 19.0666 22.8783 19.1919C23.3018 19.9841 23.9446 20.6715 24.7798 21.1537C27.1633 22.5298 30.2109 21.7131 31.5871 19.3297C32.7668 17.2863 32.3349 14.7546 30.6857 13.2067C29.9612 14.9454 28.28 16.1856 26.2996 16.27Z" fill="#636466"/>
<path d="M43.9401 6.85906V21.7423H40.6416V6.85906H43.9401ZM41.1645 21.7423L41.2248 18.826H49.7726V21.7423H41.1645ZM50.2889 16.6941C50.2889 15.6348 50.5101 14.7096 50.9526 13.9186C51.3951 13.114 52.0185 12.4906 52.8231 12.0481C53.6275 11.6056 54.5661 11.3844 55.6388 11.3844C56.7115 11.3844 57.6433 11.6056 58.4344 12.0481C59.2389 12.4906 59.8624 13.114 60.3049 13.9186C60.7473 14.7096 60.9686 15.6348 60.9686 16.6941C60.9686 17.7534 60.7473 18.6786 60.3049 19.4696C59.8624 20.2607 59.2389 20.8775 58.4344 21.32C57.6433 21.7624 56.7115 21.9837 55.6388 21.9837C54.5661 21.9837 53.6275 21.7624 52.8231 21.32C52.0185 20.8775 51.3951 20.2607 50.9526 19.4696C50.5101 18.6786 50.2889 17.7534 50.2889 16.6941ZM53.4063 16.674C53.4063 17.1835 53.5001 17.6327 53.6878 18.0216C53.8755 18.397 54.137 18.6919 54.4722 18.9065C54.8075 19.1076 55.1963 19.2082 55.6388 19.2082C56.0813 19.2082 56.4701 19.1076 56.8053 18.9065C57.1405 18.6919 57.3953 18.397 57.5696 18.0216C57.7573 17.6327 57.8512 17.1835 57.8512 16.674C57.8512 16.1644 57.7573 15.722 57.5696 15.3466C57.3953 14.9711 57.1405 14.6828 56.8053 14.4817C56.4701 14.2672 56.0813 14.1599 55.6388 14.1599C55.1963 14.1599 54.8075 14.2672 54.4722 14.4817C54.137 14.6828 53.8755 14.9711 53.6878 15.3466C53.5001 15.722 53.4063 16.1644 53.4063 16.674ZM61.668 16.5332C61.668 15.5007 61.8758 14.5957 62.2915 13.818C62.7071 13.0403 63.277 12.4369 64.001 12.0078C64.7251 11.5654 65.5564 11.3441 66.495 11.3441C67.2861 11.3441 67.9833 11.505 68.5867 11.8268C69.2035 12.1487 69.6191 12.5711 69.8337 13.0939L69.532 13.2951L69.7734 11.6861H72.5689V21.0987C72.5689 22.2787 72.341 23.2977 71.8852 24.1559C71.4292 25.0274 70.779 25.6978 69.9342 26.1671C69.1029 26.6364 68.1107 26.871 66.9575 26.871C65.9922 26.871 65.1207 26.6766 64.3429 26.2877C63.5786 25.9123 62.9552 25.376 62.4725 24.6788C62.0032 23.9815 61.7216 23.1771 61.6278 22.2652H64.7653C64.7921 22.8418 65.0201 23.2843 65.4491 23.5927C65.8916 23.9011 66.4547 24.0553 67.1386 24.0553C67.9029 24.0553 68.4928 23.8408 68.9085 23.4117C69.3242 22.996 69.532 22.4396 69.532 21.7423V19.6104L69.8135 19.8719C69.599 20.3948 69.1833 20.8171 68.5666 21.139C67.9498 21.4608 67.2392 21.6217 66.4346 21.6217C65.5094 21.6217 64.6848 21.4072 63.9608 20.9781C63.2502 20.549 62.687 19.9524 62.2713 19.1881C61.8691 18.4238 61.668 17.5388 61.668 16.5332ZM64.8055 16.4527C64.8055 16.9355 64.9061 17.3645 65.1072 17.7399C65.3084 18.1154 65.5765 18.4103 65.9118 18.6249C66.2469 18.826 66.6156 18.9266 67.0179 18.9266C67.5006 18.9266 67.923 18.826 68.285 18.6249C68.6605 18.4103 68.9488 18.1154 69.1498 17.7399C69.3643 17.3645 69.4716 16.9355 69.4716 16.4527C69.4716 15.9567 69.3643 15.5343 69.1498 15.1856C68.9353 14.8237 68.6403 14.542 68.2649 14.3409C67.9029 14.1398 67.4805 14.0392 66.9978 14.0392C66.5956 14.0392 66.2269 14.1398 65.8916 14.3409C65.5564 14.542 65.2882 14.8237 65.0871 15.1856C64.8993 15.5477 64.8055 15.97 64.8055 16.4527ZM73.6728 16.6941C73.6728 15.6348 73.8941 14.7096 74.3365 13.9186C74.779 13.114 75.4025 12.4906 76.207 12.0481C77.0115 11.6056 77.9501 11.3844 79.0228 11.3844C80.0954 11.3844 81.0272 11.6056 81.8184 12.0481C82.6229 12.4906 83.2463 13.114 83.6888 13.9186C84.1313 14.7096 84.3525 15.6348 84.3525 16.6941C84.3525 17.7534 84.1313 18.6786 83.6888 19.4696C83.2463 20.2607 82.6229 20.8775 81.8184 21.32C81.0272 21.7624 80.0954 21.9837 79.0228 21.9837C77.9501 21.9837 77.0115 21.7624 76.207 21.32C75.4025 20.8775 74.779 20.2607 74.3365 19.4696C73.8941 18.6786 73.6728 17.7534 73.6728 16.6941ZM76.7902 16.674C76.7902 17.1835 76.8841 17.6327 77.0718 18.0216C77.2595 18.397 77.521 18.6919 77.8563 18.9065C78.1914 19.1076 78.5803 19.2082 79.0228 19.2082C79.4652 19.2082 79.8541 19.1076 80.1893 18.9065C80.5244 18.6919 80.7792 18.397 80.9536 18.0216C81.1413 17.6327 81.2351 17.1835 81.2351 16.674C81.2351 16.1644 81.1413 15.722 80.9536 15.3466C80.7792 14.9711 80.5244 14.6828 80.1893 14.4817C79.8541 14.2672 79.4652 14.1599 79.0228 14.1599C78.5803 14.1599 78.1914 14.2672 77.8563 14.4817C77.521 14.6828 77.2595 14.9711 77.0718 15.3466C76.8841 15.722 76.7902 16.1644 76.7902 16.674ZM85.6554 21.7423V11.6861H88.7727V21.7423H85.6554ZM87.2241 10.1173C86.728 10.1173 86.3056 9.94965 85.957 9.61448C85.6218 9.26586 85.4542 8.84346 85.4542 8.34738C85.4542 7.8513 85.6218 7.43563 85.957 7.10037C86.3056 6.7652 86.728 6.5976 87.2241 6.5976C87.7068 6.5976 88.1158 6.7652 88.4509 7.10037C88.7996 7.43563 88.9739 7.8513 88.9739 8.34738C88.9739 8.84346 88.7996 9.26586 88.4509 9.61448C88.1158 9.94965 87.7068 10.1173 87.2241 10.1173ZM90.7886 26.5694V11.6861H93.6249L93.7851 12.9129C94.067 12.4437 94.5164 12.0683 95.1326 11.7866C95.7497 11.505 96.4138 11.3643 97.1239 11.3643C98.0625 11.3643 98.8804 11.5721 99.5776 11.9878C100.275 12.4034 100.825 13.0001 101.227 13.7778C101.629 14.542 101.843 15.4672 101.871 16.5533C101.898 17.6125 101.723 18.5579 101.348 19.3891C100.972 20.207 100.43 20.8507 99.7185 21.32C99.0075 21.7893 98.15 22.0239 97.1442 22.0239C96.447 22.0239 95.7967 21.9033 95.1934 21.6619C94.5901 21.4205 94.1406 21.1122 93.8459 20.7367V26.5694H90.7886ZM93.9058 16.7142C93.9058 17.2103 94.0062 17.6528 94.2079 18.0416C94.4225 18.4171 94.7108 18.7121 95.0727 18.9266C95.4476 19.1278 95.8768 19.2282 96.3595 19.2282C96.8559 19.2282 97.2787 19.121 97.6268 18.9065C97.9888 18.6919 98.2642 18.397 98.4512 18.0216C98.6529 17.6461 98.7533 17.2103 98.7533 16.7142C98.7533 16.2181 98.6529 15.7823 98.4512 15.4069C98.2642 15.0315 97.9888 14.7364 97.6268 14.5219C97.2787 14.3074 96.8559 14.2001 96.3595 14.2001C95.8768 14.2001 95.4476 14.3074 95.0727 14.5219C94.7108 14.7231 94.4225 15.0114 94.2079 15.3868C94.0062 15.7622 93.9058 16.2047 93.9058 16.7142ZM102.402 18.5645H105.198C105.198 18.9131 105.311 19.1881 105.54 19.3891C105.781 19.5903 106.129 19.6909 106.585 19.6909C106.853 19.6909 107.075 19.6574 107.249 19.5903C107.437 19.5233 107.578 19.4294 107.671 19.3087C107.779 19.1746 107.832 19.0272 107.832 18.8663C107.832 18.6919 107.772 18.5444 107.652 18.4238C107.544 18.3031 107.356 18.2093 107.088 18.1422L105.319 17.6796C104.326 17.4115 103.622 17.0159 103.207 16.493C102.79 15.97 102.583 15.3734 102.583 14.7029C102.583 14.0325 102.751 13.4493 103.086 12.9532C103.434 12.4437 103.904 12.0548 104.493 11.7866C105.084 11.505 105.747 11.3643 106.485 11.3643C107.597 11.3643 108.509 11.6727 109.22 12.2895C109.944 12.8928 110.326 13.7174 110.367 14.7633H107.571C107.584 14.4146 107.484 14.1398 107.269 13.9386C107.055 13.7241 106.773 13.6169 106.425 13.6169C106.116 13.6169 105.861 13.6973 105.66 13.8582C105.472 14.0057 105.378 14.2136 105.378 14.4817C105.378 14.7364 105.472 14.9242 105.66 15.0449C105.848 15.1521 106.102 15.246 106.425 15.3265L108.214 15.769C109.046 15.97 109.676 16.312 110.105 16.7946C110.534 17.2774 110.748 17.8942 110.748 18.645C110.748 19.6774 110.367 20.4953 109.602 21.0987C108.838 21.7021 107.846 22.0038 106.626 22.0038C105.366 22.0038 104.352 21.6887 103.589 21.0586C102.837 20.4149 102.442 19.5836 102.402 18.5645ZM115.691 22.0038C114.511 22.0038 113.599 21.635 112.955 20.8976C112.312 20.1602 111.99 19.1947 111.99 18.0014V11.6861H115.087V16.8751C115.087 17.8137 115.255 18.4439 115.59 18.7657C115.925 19.0875 116.367 19.2484 116.917 19.2484C117.628 19.2484 118.117 19.0473 118.386 18.645C118.654 18.2428 118.788 17.6662 118.788 16.9153V11.6861H121.886V21.7423H118.969L118.768 20.6161C118.459 21.0317 118.024 21.3669 117.461 21.6217C116.897 21.8764 116.308 22.0038 115.691 22.0038ZM126.998 21.7423H123.881V11.6861H126.777L126.998 13.4158L126.657 13.0537C126.925 12.5442 127.327 12.1352 127.863 11.8268C128.413 11.505 129.002 11.3441 129.633 11.3441C130.625 11.3441 131.403 11.5654 131.966 12.0078C132.543 12.4503 132.958 13.0336 133.213 13.7576H132.73C132.891 13.0336 133.28 12.4503 133.897 12.0078C134.514 11.5654 135.251 11.3441 136.109 11.3441C137.41 11.3441 138.369 11.6927 138.986 12.39C139.602 13.0872 139.911 14.0124 139.911 15.1656V21.7423H136.894V15.9299C136.894 15.2996 136.739 14.8303 136.431 14.5219C136.136 14.2136 135.741 14.0594 135.244 14.0594C134.95 14.0594 134.668 14.1264 134.4 14.2604C134.132 14.3811 133.91 14.6023 133.736 14.9242C133.562 15.2326 133.474 15.6751 133.474 16.2516V21.7423H130.417V15.9299C130.417 15.2996 130.27 14.837 129.975 14.542C129.679 14.2336 129.284 14.0795 128.788 14.0795C128.493 14.0795 128.205 14.1465 127.923 14.2806C127.655 14.4013 127.434 14.6225 127.26 14.9443C127.086 15.2527 126.998 15.6885 126.998 16.2516V21.7423Z" fill="#636466"/>
</svg>
