<svg width="144" height="36" viewBox="0 0 144 36" fill="none" xmlns="http://www.w3.org/2000/svg">
<g clip-path="url(#clip0_413_506)">
<path d="M42.3589 25.2253H52.5618V22.1521H45.9852V10.5765H42.3589V25.2253Z" fill="#636466"/>
<path d="M58.6068 23.1765C57.1522 23.1765 56.3942 21.9062 56.3942 20.0009C56.3942 18.0955 57.1522 16.8048 58.6068 16.8048C60.0615 16.8048 60.84 18.0955 60.84 20.0009C60.84 21.9062 60.0615 23.1765 58.6068 23.1765ZM58.6273 25.5531C62.0078 25.5531 64.2205 23.156 64.2205 20.0009C64.2205 16.8457 62.0078 14.4487 58.6273 14.4487C55.2673 14.4487 53.0137 16.8457 53.0137 20.0009C53.0137 23.156 55.2673 25.5531 58.6273 25.5531Z" fill="#636466"/>
<path d="M70.0717 28.8516C71.6288 28.8516 73.0014 28.5033 73.9234 27.6838C74.7634 26.9257 75.3166 25.7784 75.3166 24.2008V14.7355H72.1205V15.8623H72.0795C71.4649 14.9813 70.5224 14.4282 69.1292 14.4282C66.5273 14.4282 64.7244 16.5999 64.7244 19.673C64.7244 22.8896 66.9166 24.6516 69.2727 24.6516C70.5429 24.6516 71.3419 24.1394 71.9566 23.4428H72.0385V24.4877C72.0385 25.7579 71.4444 26.4955 70.0307 26.4955C68.9244 26.4955 68.3712 26.0243 68.1868 25.4711H64.9497C65.2775 27.6633 67.1829 28.8516 70.0717 28.8516ZM70.0512 22.1726C68.8014 22.1726 67.9819 21.1482 67.9819 19.5706C67.9819 17.9726 68.8014 16.9482 70.0512 16.9482C71.4444 16.9482 72.1819 18.1365 72.1819 19.5501C72.1819 21.0252 71.5058 22.1726 70.0512 22.1726Z" fill="#636466"/>
<path d="M81.8883 23.1765C80.4337 23.1765 79.6757 21.9062 79.6757 20.0009C79.6757 18.0955 80.4337 16.8048 81.8883 16.8048C83.343 16.8048 84.1215 18.0955 84.1215 20.0009C84.1215 21.9062 83.343 23.1765 81.8883 23.1765ZM81.9088 25.5531C85.2893 25.5531 87.5016 23.156 87.5016 20.0009C87.5016 16.8457 85.2893 14.4487 81.9088 14.4487C78.5488 14.4487 76.2952 16.8457 76.2952 20.0009C76.2952 23.156 78.5488 25.5531 81.9088 25.5531Z" fill="#636466"/>
<path d="M88.4773 25.2253H91.8168V14.7355H88.4773V25.2253ZM88.4773 13.2809H91.8168V10.5765H88.4773V13.2809Z" fill="#636466"/>
<path d="M93.2656 28.6877H96.6051V24.1394H96.6461C97.3017 25.0204 98.2646 25.553 99.6168 25.553C102.362 25.553 104.186 23.3813 104.186 19.9804C104.186 16.8252 102.485 14.4282 99.6988 14.4282C98.2646 14.4282 97.2403 15.0633 96.5232 16.0057H96.4617V14.7355H93.2656V28.6877ZM98.7564 22.9716C97.3222 22.9716 96.5027 21.8038 96.5027 20.1033C96.5027 18.4028 97.2403 17.1121 98.6949 17.1121C100.129 17.1121 100.805 18.3004 100.805 20.1033C100.805 21.8857 100.027 22.9716 98.7564 22.9716Z" fill="#636466"/>
<path d="M109.622 25.553C112.368 25.553 114.396 24.3647 114.396 22.0701C114.396 19.3862 112.224 18.915 110.381 18.6077C109.049 18.3618 107.861 18.2594 107.861 17.5218C107.861 16.8662 108.496 16.5589 109.315 16.5589C110.237 16.5589 110.872 16.8457 110.995 17.7882H114.068C113.904 15.7189 112.306 14.4282 109.336 14.4282C106.857 14.4282 104.808 15.5755 104.808 17.7882C104.808 20.2467 106.754 20.7384 108.578 21.0457C109.971 21.2916 111.241 21.394 111.241 22.3365C111.241 23.0126 110.606 23.3813 109.602 23.3813C108.496 23.3813 107.799 22.8691 107.676 21.8243H104.521C104.623 24.1394 106.549 25.553 109.622 25.553Z" fill="#636466"/>
<path d="M118.932 25.5325C120.387 25.5325 121.309 24.9589 122.067 23.9345H122.129V25.2252H125.325V14.7355H121.985V20.595C121.985 21.8447 121.289 22.7052 120.141 22.7052C119.076 22.7052 118.564 22.0701 118.564 20.9228V14.7355H115.245V21.6194C115.245 23.955 116.515 25.5325 118.932 25.5325Z" fill="#636466"/>
<path d="M126.778 25.2252H130.117V19.3452C130.117 18.0955 130.732 17.2145 131.777 17.2145C132.781 17.2145 133.252 17.8701 133.252 18.9969V25.2252H136.591V19.3452C136.591 18.0955 137.185 17.2145 138.251 17.2145C139.255 17.2145 139.726 17.8701 139.726 18.9969V25.2252H143.065V18.4028C143.065 16.0467 141.877 14.4282 139.501 14.4282C138.148 14.4282 137.021 15.0018 136.202 16.2721H136.161C135.628 15.1452 134.583 14.4282 133.211 14.4282C131.695 14.4282 130.691 15.1452 130.035 16.2311H129.974V14.7355H126.778V25.2252Z" fill="#636466"/>
<path d="M21.9842 2.19736L18.6267 1.29773L15.7974 11.8571L13.243 2.32403L9.88543 3.22366L12.6453 13.5235L5.7711 6.64929L3.31326 9.10714L10.8534 16.6473L1.46335 14.1313L0.563721 17.4887L10.8235 20.2378C10.7061 19.7312 10.6439 19.2033 10.6439 18.6609C10.6439 14.8214 13.7563 11.709 17.5958 11.709C21.4352 11.709 24.5476 14.8214 24.5476 18.6609C24.5476 19.1998 24.4862 19.7244 24.3702 20.2281L33.6945 22.7265L34.5941 19.3691L24.2935 16.609L33.6842 14.0928L32.7845 10.7353L22.4843 13.4952L29.3585 6.62107L26.9006 4.16323L19.4651 11.5988L21.9842 2.19736Z" fill="#636466"/>
<path d="M24.361 20.2672C24.0732 21.4841 23.4654 22.5774 22.6316 23.4533L29.3866 30.2084L31.8444 27.7506L24.361 20.2672Z" fill="#636466"/>
<path d="M22.5634 23.524C21.7195 24.386 20.653 25.0292 19.457 25.3607L21.9151 34.5341L25.2725 33.6344L22.5634 23.524Z" fill="#636466"/>
<path d="M19.3316 25.3943C18.7767 25.5369 18.1951 25.6127 17.5957 25.6127C16.9536 25.6127 16.3318 25.5256 15.7415 25.3627L13.2812 34.5445L16.6387 35.444L19.3316 25.3943Z" fill="#636466"/>
<path d="M15.6229 25.3288C14.4451 24.9808 13.3976 24.3294 12.5709 23.465L5.79932 30.2366L8.25716 32.6945L15.6229 25.3288Z" fill="#636466"/>
<path d="M12.5144 23.4051C11.7019 22.5352 11.11 21.4566 10.8283 20.2584L1.47363 22.765L2.37326 26.1224L12.5144 23.4051Z" fill="#636466"/>
</g>
<defs>
<clipPath id="clip0_413_506">
<rect width="143.415" height="35" fill="white" transform="translate(0.292725 0.509766)"/>
</clipPath>
</defs>
</svg>
