<svg width="146" height="36" viewBox="0 0 146 36" fill="none" xmlns="http://www.w3.org/2000/svg">
<g clip-path="url(#clip0_413_510)">
<path d="M45.0592 24.53H55.2621V21.4568H48.6855V9.88123H45.0592V24.53Z" fill="#636466"/>
<path d="M61.3069 22.4812C59.8523 22.4812 59.0942 21.211 59.0942 19.3056C59.0942 17.4002 59.8523 16.1095 61.3069 16.1095C62.7615 16.1095 63.5401 17.4002 63.5401 19.3056C63.5401 21.211 62.7615 22.4812 61.3069 22.4812ZM61.3274 24.8578C64.7079 24.8578 66.9206 22.4607 66.9206 19.3056C66.9206 16.1505 64.7079 13.7534 61.3274 13.7534C57.9674 13.7534 55.7137 16.1505 55.7137 19.3056C55.7137 22.4607 57.9674 24.8578 61.3274 24.8578Z" fill="#636466"/>
<path d="M72.772 28.1563C74.3291 28.1563 75.7018 27.808 76.6237 26.9885C77.4637 26.2305 78.0169 25.0832 78.0169 23.5056V14.0402H74.8208V15.1671H74.7798C74.1652 14.2861 73.2227 13.7329 71.8296 13.7329C69.2276 13.7329 67.4247 15.9046 67.4247 18.9778C67.4247 22.1944 69.6169 23.9563 71.973 23.9563C73.2432 23.9563 74.0422 23.4441 74.6569 22.7475H74.7388V23.7924C74.7388 25.0627 74.1447 25.8002 72.731 25.8002C71.6247 25.8002 71.0715 25.329 70.8871 24.7758H67.65C67.9779 26.968 69.8832 28.1563 72.772 28.1563ZM72.7515 21.4773C71.5018 21.4773 70.6822 20.4529 70.6822 18.8753C70.6822 17.2773 71.5018 16.2529 72.7515 16.2529C74.1447 16.2529 74.8822 17.4412 74.8822 18.8549C74.8822 20.33 74.2061 21.4773 72.7515 21.4773Z" fill="#636466"/>
<path d="M84.5885 22.4812C83.1339 22.4812 82.3758 21.211 82.3758 19.3056C82.3758 17.4002 83.1339 16.1095 84.5885 16.1095C86.0432 16.1095 86.8217 17.4002 86.8217 19.3056C86.8217 21.211 86.0432 22.4812 84.5885 22.4812ZM84.609 24.8578C87.9895 24.8578 90.2022 22.4607 90.2022 19.3056C90.2022 16.1505 87.9895 13.7534 84.609 13.7534C81.249 13.7534 78.9954 16.1505 78.9954 19.3056C78.9954 22.4607 81.249 24.8578 84.609 24.8578Z" fill="#636466"/>
<path d="M91.1771 24.53H94.5166V14.0403H91.1771V24.53ZM91.1771 12.5856H94.5166V9.88123H91.1771V12.5856Z" fill="#636466"/>
<path d="M95.9662 27.9924H99.3057V23.4441H99.3467C100.002 24.3251 100.965 24.8578 102.317 24.8578C105.063 24.8578 106.886 22.6861 106.886 19.2851C106.886 16.13 105.186 13.7329 102.399 13.7329C100.965 13.7329 99.9408 14.368 99.2237 15.3105H99.1623V14.0402H95.9662V27.9924ZM101.457 22.2763C100.023 22.2763 99.2033 21.1085 99.2033 19.408C99.2033 17.7075 99.9408 16.4168 101.395 16.4168C102.83 16.4168 103.506 17.6051 103.506 19.408C103.506 21.1905 102.727 22.2763 101.457 22.2763Z" fill="#636466"/>
<path d="M112.323 24.8578C115.069 24.8578 117.097 23.6695 117.097 21.3749C117.097 18.691 114.925 18.2197 113.081 17.9124C111.749 17.6666 110.561 17.5641 110.561 16.8266C110.561 16.171 111.196 15.8636 112.016 15.8636C112.938 15.8636 113.573 16.1505 113.696 17.0929H116.769C116.605 15.0236 115.007 13.7329 112.036 13.7329C109.557 13.7329 107.509 14.8802 107.509 17.0929C107.509 19.5514 109.455 20.0432 111.278 20.3505C112.671 20.5963 113.942 20.6988 113.942 21.6412C113.942 22.3173 113.307 22.6861 112.303 22.6861C111.196 22.6861 110.5 22.1739 110.377 21.129H107.222C107.324 23.4441 109.25 24.8578 112.323 24.8578Z" fill="#636466"/>
<path d="M121.633 24.8374C123.088 24.8374 124.01 24.2637 124.768 23.2393H124.829V24.53H128.025V14.0403H124.686V19.8998C124.686 21.1496 123.989 22.01 122.842 22.01C121.777 22.01 121.264 21.3749 121.264 20.2276V14.0403H117.945V20.9242C117.945 23.2598 119.216 24.8374 121.633 24.8374Z" fill="#636466"/>
<path d="M129.477 24.53H132.817V18.65C132.817 17.4002 133.431 16.5193 134.476 16.5193C135.48 16.5193 135.951 17.1749 135.951 18.3017V24.53H139.291V18.65C139.291 17.4002 139.885 16.5193 140.95 16.5193C141.954 16.5193 142.426 17.1749 142.426 18.3017V24.53H145.765V17.7075C145.765 15.3514 144.577 13.7329 142.2 13.7329C140.848 13.7329 139.721 14.3066 138.902 15.5768H138.861C138.328 14.45 137.283 13.7329 135.91 13.7329C134.394 13.7329 133.39 14.45 132.735 15.5358H132.673V14.0402H129.477V24.53Z" fill="#636466"/>
<path fill-rule="evenodd" clip-rule="evenodd" d="M18.4455 34.7739C27.8748 34.7739 35.5187 27.13 35.5187 17.7007C35.5187 8.27155 27.8748 0.627625 18.4455 0.627625C9.01622 0.627625 1.37231 8.27155 1.37231 17.7007C1.37231 27.13 9.01622 34.7739 18.4455 34.7739ZM23.7717 8.58102C24.031 7.6601 23.1373 7.11554 22.3211 7.69703L10.9274 15.8138C10.0423 16.4444 10.1815 17.7007 11.1366 17.7007H14.1368V17.6775H19.9842L15.2197 19.3586L13.1193 26.8205C12.86 27.7415 13.7536 28.286 14.5699 27.7045L25.9636 19.5878C26.8487 18.9572 26.7094 17.7007 25.7544 17.7007H21.2046L23.7717 8.58102Z" fill="#636466"/>
</g>
<defs>
<clipPath id="clip0_413_510">
<rect width="145.122" height="35" fill="white" transform="translate(0.78833 0.509766)"/>
</clipPath>
</defs>
</svg>
