<svg width="142" height="36" viewBox="0 0 142 36" fill="none" xmlns="http://www.w3.org/2000/svg">
<g clip-path="url(#clip0_413_507)">
<path d="M43.3159 24.9708H53.2759V21.9708H46.8559V10.6708H43.3159V24.9708Z" fill="#636466"/>
<path d="M59.177 22.9707C57.757 22.9707 57.017 21.7307 57.017 19.8707C57.017 18.0107 57.757 16.7507 59.177 16.7507C60.597 16.7507 61.357 18.0107 61.357 19.8707C61.357 21.7307 60.597 22.9707 59.177 22.9707ZM59.197 25.2907C62.497 25.2907 64.657 22.9507 64.657 19.8707C64.657 16.7907 62.497 14.4507 59.197 14.4507C55.917 14.4507 53.717 16.7907 53.717 19.8707C53.717 22.9507 55.917 25.2907 59.197 25.2907Z" fill="#636466"/>
<path d="M70.3689 28.5108C71.8889 28.5108 73.2289 28.1708 74.1289 27.3708C74.9489 26.6308 75.4889 25.5108 75.4889 23.9708V14.7308H72.3689V15.8308H72.3289C71.7289 14.9708 70.8089 14.4308 69.4489 14.4308C66.9089 14.4308 65.1489 16.5508 65.1489 19.5508C65.1489 22.6908 67.2889 24.4108 69.5889 24.4108C70.8289 24.4108 71.6089 23.9108 72.2089 23.2308H72.2889V24.2508C72.2889 25.4908 71.7089 26.2108 70.3289 26.2108C69.2489 26.2108 68.7089 25.7508 68.5289 25.2108H65.3689C65.6889 27.3508 67.5489 28.5108 70.3689 28.5108ZM70.3489 21.9908C69.1289 21.9908 68.3289 20.9908 68.3289 19.4508C68.3289 17.8908 69.1289 16.8908 70.3489 16.8908C71.7089 16.8908 72.4289 18.0508 72.4289 19.4308C72.4289 20.8708 71.7689 21.9908 70.3489 21.9908Z" fill="#636466"/>
<path d="M81.9043 22.9707C80.4843 22.9707 79.7443 21.7307 79.7443 19.8707C79.7443 18.0107 80.4843 16.7507 81.9043 16.7507C83.3243 16.7507 84.0843 18.0107 84.0843 19.8707C84.0843 21.7307 83.3243 22.9707 81.9043 22.9707ZM81.9243 25.2907C85.2243 25.2907 87.3843 22.9507 87.3843 19.8707C87.3843 16.7907 85.2243 14.4507 81.9243 14.4507C78.6443 14.4507 76.4443 16.7907 76.4443 19.8707C76.4443 22.9507 78.6443 25.2907 81.9243 25.2907Z" fill="#636466"/>
<path d="M88.3359 24.9708H91.5959V14.7308H88.3359V24.9708ZM88.3359 13.3108H91.5959V10.6708H88.3359V13.3108Z" fill="#636466"/>
<path d="M93.011 28.3508H96.271V23.9108H96.311C96.951 24.7708 97.891 25.2908 99.211 25.2908C101.891 25.2908 103.671 23.1708 103.671 19.8508C103.671 16.7708 102.011 14.4308 99.291 14.4308C97.891 14.4308 96.891 15.0508 96.191 15.9708H96.131V14.7308H93.011V28.3508ZM98.371 22.7708C96.971 22.7708 96.171 21.6308 96.171 19.9708C96.171 18.3108 96.891 17.0508 98.311 17.0508C99.711 17.0508 100.371 18.2108 100.371 19.9708C100.371 21.7108 99.611 22.7708 98.371 22.7708Z" fill="#636466"/>
<path d="M108.979 25.2908C111.659 25.2908 113.639 24.1308 113.639 21.8908C113.639 19.2708 111.519 18.8108 109.719 18.5108C108.419 18.2708 107.259 18.1708 107.259 17.4508C107.259 16.8108 107.879 16.5108 108.679 16.5108C109.579 16.5108 110.199 16.7908 110.319 17.7108H113.319C113.159 15.6908 111.599 14.4308 108.699 14.4308C106.279 14.4308 104.279 15.5508 104.279 17.7108C104.279 20.1108 106.179 20.5908 107.959 20.8908C109.319 21.1308 110.559 21.2308 110.559 22.1508C110.559 22.8108 109.939 23.1708 108.959 23.1708C107.879 23.1708 107.199 22.6708 107.079 21.6508H103.999C104.099 23.9108 105.979 25.2908 108.979 25.2908Z" fill="#636466"/>
<path d="M118.067 25.2708C119.487 25.2708 120.387 24.7108 121.127 23.7108H121.187V24.9708H124.307V14.7308H121.047V20.4508C121.047 21.6708 120.367 22.5108 119.247 22.5108C118.207 22.5108 117.707 21.8908 117.707 20.7708V14.7308H114.467V21.4508C114.467 23.7308 115.707 25.2708 118.067 25.2708Z" fill="#636466"/>
<path d="M125.724 24.9708H128.984V19.2308C128.984 18.0108 129.584 17.1508 130.604 17.1508C131.584 17.1508 132.044 17.7908 132.044 18.8908V24.9708H135.304V19.2308C135.304 18.0108 135.884 17.1508 136.924 17.1508C137.904 17.1508 138.364 17.7908 138.364 18.8908V24.9708H141.624V18.3108C141.624 16.0108 140.464 14.4308 138.144 14.4308C136.824 14.4308 135.724 14.9908 134.924 16.2308H134.884C134.364 15.1308 133.344 14.4308 132.004 14.4308C130.524 14.4308 129.544 15.1308 128.904 16.1908H128.844V14.7308H125.724V24.9708Z" fill="#636466"/>
<path fill-rule="evenodd" clip-rule="evenodd" d="M18.1696 1.31134C27.5544 1.31134 35.1623 8.91925 35.1623 18.3041C35.1623 27.689 27.5544 35.2969 18.1696 35.2969C8.78467 35.2969 1.17676 27.689 1.17676 18.3041C1.17676 8.91925 8.78467 1.31134 18.1696 1.31134ZM34.5101 18.3041C34.5101 9.2795 27.1941 1.96353 18.1696 1.96353C17.4416 1.96353 16.7248 2.01113 16.022 2.10339C16.4761 2.06369 16.9356 2.04342 17.3999 2.04342C26.0234 2.04342 33.0141 9.03416 33.0141 17.6577C33.0141 26.2811 26.0234 33.2718 17.3999 33.2718C9.23577 33.2718 2.53509 27.0061 1.84439 19.021C2.2196 27.713 9.38505 34.6447 18.1696 34.6447C27.1941 34.6447 34.5101 27.3287 34.5101 18.3041ZM32.3619 17.6577C32.3619 9.39433 25.6632 2.6956 17.3999 2.6956C16.729 2.6956 16.0683 2.73977 15.4207 2.82535C15.8195 2.7918 16.2229 2.77469 16.6303 2.77469C24.4925 2.77469 30.866 9.14825 30.866 17.0103C30.866 24.8725 24.4925 31.246 16.6303 31.246C9.19645 31.246 3.09344 25.5479 2.45064 18.2811C2.77746 26.2552 9.34547 32.6197 17.3999 32.6197C25.6632 32.6197 32.3619 25.9209 32.3619 17.6577ZM16.6303 3.42688C24.1322 3.42688 30.2138 9.50841 30.2138 17.0103C30.2138 24.5122 24.1322 30.5937 16.6303 30.5937C9.30222 30.5937 3.3294 24.7907 3.05661 17.5293C3.64557 24.0835 9.15331 29.2201 15.8608 29.2201C22.9611 29.2201 28.7171 23.4642 28.7171 16.3638C28.7171 9.2635 22.9611 3.50757 15.8608 3.50757C15.4935 3.50757 15.1297 3.52298 14.7702 3.55317C15.3784 3.4699 15.9993 3.42688 16.6303 3.42688ZM28.0648 16.3638C28.0648 9.62375 22.6009 4.15977 15.8608 4.15977C15.2913 4.15977 14.7309 4.19876 14.1822 4.27425C14.4818 4.2508 14.7846 4.23885 15.0903 4.23885C21.4293 4.23885 26.5681 9.37758 26.5681 15.7166C26.5681 22.0555 21.4293 27.1942 15.0903 27.1942C9.12394 27.1942 4.22085 22.6418 3.66509 16.8211C3.90554 23.3493 9.27372 28.5679 15.8608 28.5679C22.6009 28.5679 28.0648 23.104 28.0648 16.3638ZM15.0903 4.89105C21.0691 4.89105 25.9158 9.73783 25.9158 15.7166C25.9158 21.6953 21.0691 26.5421 15.0903 26.5421C9.22934 26.5421 4.45622 21.8844 4.27044 16.0686C4.77221 21.1771 9.08037 25.1684 14.3207 25.1684C19.8984 25.1684 24.4199 20.6468 24.4199 15.0692C24.4199 9.49166 19.8984 4.97012 14.3207 4.97012C14.065 4.97012 13.8114 4.97963 13.5604 4.99831C14.0602 4.92761 14.571 4.89105 15.0903 4.89105ZM23.7677 15.0692C23.7677 9.85183 19.5381 5.62231 14.3207 5.62231C13.8445 5.62231 13.3765 5.65755 12.9191 5.72557C13.1279 5.71062 13.3386 5.703 13.5512 5.703C18.367 5.703 22.271 9.607 22.271 14.4227C22.271 19.2386 18.367 23.1425 13.5512 23.1425C9.03853 23.1425 5.32653 19.7146 4.87709 15.3206C5.01033 20.4218 9.18739 24.5162 14.3207 24.5162C19.5381 24.5162 23.7677 20.2867 23.7677 15.0692ZM13.5512 6.3552C18.0068 6.3552 21.6187 9.96716 21.6187 14.4227C21.6187 18.8784 18.0068 22.4903 13.5512 22.4903C9.15229 22.4903 5.57569 18.9697 5.48536 14.5925C5.89172 18.2624 9.00334 21.1167 12.7816 21.1167C16.8361 21.1167 20.1228 17.8299 20.1228 13.7755C20.1228 9.72108 16.8361 6.43428 12.7816 6.43428C12.6266 6.43428 12.4726 6.43908 12.32 6.44855C12.7214 6.38708 13.1326 6.3552 13.5512 6.3552ZM19.4706 13.7755C19.4706 10.0812 16.4759 7.08647 12.7816 7.08647C12.4106 7.08647 12.0467 7.11667 11.6921 7.17475C11.7978 7.16918 11.9041 7.16636 12.0112 7.16636C15.3042 7.16636 17.9738 9.83591 17.9738 13.129C17.9738 16.4221 15.3042 19.0917 12.0112 19.0917C8.96624 19.0917 6.45439 16.8092 6.09315 13.8618C6.1394 17.5163 9.11622 20.4645 12.7816 20.4645C16.4759 20.4645 19.4706 17.4697 19.4706 13.7755ZM12.0112 7.81855C14.9441 7.81855 17.3216 10.1961 17.3216 13.129C17.3216 16.0619 14.9441 18.4394 12.0112 18.4394C9.07831 18.4394 6.70074 16.0619 6.70074 13.129C6.70074 13.122 6.70076 13.1149 6.70079 13.1079C7.00614 15.3429 8.92277 17.065 11.2416 17.065C13.7729 17.065 15.8249 15.013 15.8249 12.4817C15.8249 9.95041 13.7729 7.89845 11.2416 7.89845C11.1844 7.89845 11.1274 7.89949 11.0706 7.90157C11.3759 7.84701 11.6902 7.81855 12.0112 7.81855ZM15.1726 12.4817C15.1726 10.3107 13.4127 8.55064 11.2416 8.55064C9.07055 8.55064 7.31055 10.3107 7.31055 12.4817C7.31055 14.6527 9.07055 16.4127 11.2416 16.4127C13.4127 16.4127 15.1726 14.6527 15.1726 12.4817Z" fill="#636466"/>
</g>
<defs>
<clipPath id="clip0_413_507">
<rect width="140.833" height="35" fill="white" transform="translate(0.932617 0.509766)"/>
</clipPath>
</defs>
</svg>
