<svg width="26" height="25" viewBox="0 0 26 25" fill="none" xmlns="http://www.w3.org/2000/svg">
<path d="M12.6076 25C12.0139 23.9277 12.2228 23.6068 13.5842 23.502C20.0835 23.0026 24.5672 17.5781 23.8504 11.0833C23.2482 5.6263 18.314 1.33984 12.8042 1.48633C7.1395 1.63672 2.47869 6.03646 2.09848 11.5651C1.9826 13.2467 2.09653 14.9082 2.78534 16.4401C3.23911 17.4492 2.9494 18.3145 2.70461 19.4329C1.34068 17.4206 0.699395 15.3457 0.608249 13.1126C0.343275 6.65234 4.65448 1.31055 11.0034 0.16862C11.1551 0.141276 11.2971 0.0572917 11.4442 0C12.478 0 13.5126 0 14.5464 0C14.7248 0.061849 14.8993 0.144531 15.0829 0.181641C20.0965 1.19792 23.3589 4.18424 24.9253 9.06836C25.1213 9.67969 25.2463 10.3138 25.4045 10.9375C25.4045 11.9792 25.4045 13.0208 25.4045 14.0625C25.3433 14.2415 25.2606 14.4167 25.2235 14.6009C24.2105 19.6478 21.2515 22.9395 16.4012 24.5169C15.7945 24.7142 15.1655 24.8405 14.5464 25C13.9006 25 13.2541 25 12.6076 25Z" fill="#FE7433"/>
<path d="M17.6019 6.63558C14.3734 9.88754 11.277 13.0067 8.2334 16.0724C7.54069 15.3582 6.78418 14.5776 5.96387 13.7319C5.9847 13.7065 6.12793 13.5021 6.30046 13.3283C8.96452 10.6388 11.6312 7.95199 14.3005 5.26775C15.1123 4.45134 15.3011 4.45915 16.1182 5.25082C16.6058 5.72217 17.1097 6.1766 17.6019 6.63558Z" fill="#FE7433"/>
<path d="M11.7376 19.7396C10.8861 18.8548 10.1309 18.071 9.44922 17.3633C12.5176 14.2656 15.6289 11.1257 18.8659 7.85742C19.3092 8.35547 19.7728 8.93945 20.3021 9.45378C20.903 10.0378 20.8646 10.5195 20.2839 11.0964C18.0579 13.3079 15.8535 15.5423 13.6452 17.7715C13.0091 18.4147 12.3854 19.071 11.7376 19.7396Z" fill="#FE7433"/>
<path d="M4.92974 15.4404C6.65304 17.1761 8.34576 18.8805 10.0788 20.6253C8.405 20.9105 6.64458 21.2308 4.87701 21.501C4.25656 21.596 3.96359 21.208 4.05929 20.6084C4.33729 18.8584 4.64588 17.113 4.92974 15.4404Z" fill="#FE7433"/>
</svg>
