<svg width="26" height="25" viewBox="0 0 26 25" fill="none" xmlns="http://www.w3.org/2000/svg">
<path d="M25.7498 7.08686C21.6332 9.16758 17.5214 11.2563 13.3908 13.3082C13.1293 13.4383 12.6747 13.3773 12.3924 13.2378C8.57895 11.3549 4.77491 9.45256 0.986966 7.51869C0.656384 7.34971 0.286907 6.94269 0.250698 6.61211C0.223876 6.36601 0.657724 5.96435 0.973554 5.80409C4.73334 3.89101 8.50385 1.99737 12.2931 0.143968C12.6499 -0.0303754 13.2332 -0.0545153 13.5819 0.116475C17.4336 1.99804 21.2604 3.9299 25.0913 5.85505C25.3246 5.9724 25.5305 6.14272 25.7498 6.28823C25.7498 6.55377 25.7498 6.82065 25.7498 7.08686Z" fill="#FE7433"/>
<path d="M25.7498 12.8837C25.1732 13.2042 24.6065 13.5462 24.0171 13.8425C20.5725 15.5739 17.1299 17.3113 13.6618 18.9944C13.2883 19.1754 12.6761 19.1821 12.3053 19.0018C8.54013 17.1671 4.79711 15.2856 1.06348 13.3859C0.718145 13.2102 0.223952 12.7844 0.257479 12.537C0.305759 12.1823 0.736921 11.8356 1.0722 11.5707C2.51858 10.4294 3.90729 10.5736 5.48644 11.5077C7.59867 12.7563 9.87251 13.7272 12.0518 14.8665C12.7183 15.2145 13.2675 15.1843 13.9179 14.8517C16.5807 13.4892 19.2716 12.1809 21.9317 10.813C22.4614 10.5408 22.8779 10.4931 23.3962 10.8076C24.1586 11.2696 24.9626 11.6626 25.7492 12.085C25.7498 12.3506 25.7498 12.6168 25.7498 12.8837Z" fill="#FE7433"/>
<path d="M25.7503 18.6803C24.6713 19.2603 23.6038 19.8631 22.5108 20.4157C19.6328 21.8694 16.736 23.2863 13.8654 24.7535C13.2411 25.0726 12.7362 25.0887 12.0978 24.7629C8.45742 22.9061 4.78883 21.105 1.1464 19.2516C0.77223 19.0612 0.219696 18.6005 0.262611 18.3537C0.328325 17.9722 0.801063 17.6221 1.16316 17.3385C2.55053 16.2502 3.87353 16.3736 5.3997 17.2782C7.53876 18.5455 9.84747 19.5238 12.0536 20.6825C12.7235 21.0346 13.2606 21.0037 13.9124 20.6691C16.5738 19.3046 19.2654 17.997 21.9261 16.6311C22.4518 16.3615 22.8656 16.3018 23.3893 16.6197C24.1503 17.0817 24.9604 17.4639 25.7496 17.8796C25.7503 18.1472 25.7503 18.4141 25.7503 18.6803Z" fill="#FE7433"/>
</svg>
