<svg width="26" height="25" viewBox="0 0 26 25" fill="none" xmlns="http://www.w3.org/2000/svg">
<path d="M21.9674 25.0001C20.7659 24.6 20.0144 23.6669 19.2573 22.732C18.5434 21.8506 17.8054 20.9877 17.1406 20.1924C18.3236 19.0076 19.4641 17.8652 20.6853 16.6416C22.1865 18.1545 24.3401 19.1805 25.4862 21.2843C25.4862 21.8057 25.4862 22.3276 25.4862 22.8489C24.7692 23.566 24.0527 24.283 23.3356 25.0001C22.8796 25.0001 22.4235 25.0001 21.9674 25.0001Z" fill="#FE7433"/>
<path d="M18.695 5.54162C19.409 5.05722 19.6946 4.56359 19.5974 3.7062C19.449 2.40441 20.5649 1.40915 21.8532 1.48178C23.0454 1.54887 23.9939 2.61122 23.8991 3.77329C23.7963 5.03322 22.6509 5.95709 21.3848 5.80075C20.3126 5.66842 19.2157 6.84649 19.3758 7.92423C19.6392 9.69565 19.4823 11.4252 18.8064 13.0981C18.2328 14.5175 18.2383 14.5193 19.2034 15.4604C18.1368 16.5302 17.0683 17.6018 15.9394 18.7337C16.0478 18.7675 15.9591 18.7675 15.9357 18.7281C15.3769 17.7981 14.7897 17.7261 13.7365 18.2031C8.88824 20.3992 2.97143 17.8972 1.15447 13.0015C-0.804671 7.72358 1.87276 2.1022 7.12914 0.45635C11.5275 -0.920527 16.0662 0.890284 18.3103 4.91689C18.4199 5.11201 18.5448 5.2985 18.695 5.54162ZM18.0081 8.46464C17.1009 9.27895 16.3469 9.7812 16.5014 11.0559C16.6534 12.3128 15.479 13.2114 14.2049 13.1098C12.9795 13.0126 11.9836 11.8887 12.2513 10.6755C12.5068 9.51838 11.5958 9.03152 11.0068 8.76255C10.3833 8.47818 9.37695 8.65298 8.70052 8.97243C8.01854 9.29433 7.56123 9.93754 7.71141 10.9642C7.89421 12.2124 6.75676 13.1738 5.49991 13.1209C4.30522 13.0711 3.34196 12.0253 3.41582 10.8589C3.49276 9.64948 4.59943 8.69115 5.81012 8.78532C7.0559 8.88257 7.88621 8.04302 7.83574 6.73693C7.78403 5.40868 8.74791 4.38633 10.0306 4.40787C11.2998 4.42942 12.4132 5.56009 12.1362 6.80094C11.8759 7.96609 12.7437 8.41417 13.3396 8.74716C13.9021 9.06106 14.8962 9.0229 15.5018 8.72869C16.2219 8.37909 16.7568 7.61525 17.3101 6.97759C17.4394 6.82864 17.3932 6.43164 17.2997 6.20083C15.9259 2.79649 11.7756 0.732096 8.20565 1.65781C4.92934 2.5072 2.40394 5.20741 2.04756 8.24244C1.60933 11.973 3.17701 15.0764 6.48717 16.7117C9.25016 18.0769 12.0211 17.8436 14.5435 16.1129C17.1021 14.3574 18.1762 11.8074 18.0081 8.46464Z" fill="#FE7433"/>
</svg>
