<svg width="177" height="177" viewBox="0 0 177 177" fill="none" xmlns="http://www.w3.org/2000/svg">
<mask id="mask0_202_406" style="mask-type:alpha" maskUnits="userSpaceOnUse" x="26" y="26" width="125" height="125">
<ellipse rx="62.1678" ry="62.1675" transform="matrix(-0.707107 0.707107 0.707107 0.707107 88.4915 88.2714)" fill="white"/>
</mask>
<g mask="url(#mask0_202_406)">
<rect width="1.5542" height="132.106" transform="matrix(-0.707107 0.707107 0.707107 0.707107 86.624 -12.9692)" fill="#FF6701"/>
<rect width="1.5542" height="132.106" transform="matrix(-0.707107 0.707107 0.707107 0.707107 80.0303 -6.37524)" fill="#FF6701"/>
<rect width="1.5542" height="132.106" transform="matrix(-0.707107 0.707107 0.707107 0.707107 73.9863 -0.331055)" fill="#FF6701"/>
<rect width="1.5542" height="132.106" transform="matrix(-0.707107 0.707107 0.707107 0.707107 67.3921 6.2627)" fill="#FF6701"/>
<rect width="1.5542" height="132.106" transform="matrix(-0.707107 0.707107 0.707107 0.707107 60.7979 12.8569)" fill="#FF6701"/>
<rect width="1.5542" height="132.106" transform="matrix(-0.707107 0.707107 0.707107 0.707107 54.7539 18.9011)" fill="#FF6701"/>
<rect width="1.5542" height="132.106" transform="matrix(-0.707107 0.707107 0.707107 0.707107 48.1602 25.4949)" fill="#FF6701"/>
<rect width="1.5542" height="132.106" transform="matrix(-0.707107 0.707107 0.707107 0.707107 41.5659 32.0891)" fill="#FF6701"/>
<rect width="1.5542" height="132.106" transform="matrix(-0.707107 0.707107 0.707107 0.707107 35.5215 38.1333)" fill="#FF6701"/>
<rect width="1.5542" height="132.106" transform="matrix(-0.707107 0.707107 0.707107 0.707107 28.9277 44.7271)" fill="#FF6701"/>
<rect width="1.5542" height="132.106" transform="matrix(-0.707107 0.707107 0.707107 0.707107 22.334 51.3213)" fill="#FF6701"/>
<rect width="1.5542" height="132.106" transform="matrix(-0.707107 0.707107 0.707107 0.707107 16.8394 56.8162)" fill="#FF6701"/>
<rect width="1.5542" height="132.106" transform="matrix(-0.707107 0.707107 0.707107 0.707107 9.6958 63.9592)" fill="#FF6701"/>
<rect width="1.5542" height="132.106" transform="matrix(-0.707107 0.707107 0.707107 0.707107 3.65137 70.0039)" fill="#FF6701"/>
<rect width="1.5542" height="132.106" transform="matrix(-0.707107 0.707107 0.707107 0.707107 -2.94238 76.5977)" fill="#FF6701"/>
</g>
</svg>
