<svg width="100" height="101" viewBox="0 0 100 101" fill="none" xmlns="http://www.w3.org/2000/svg">
<path d="M16.6016 0.422852C17.6562 0.990029 18.0078 1.87014 17.9883 3.08272C17.9297 7.36589 17.9687 11.6686 17.9687 15.9518C17.9687 17.6924 17.2852 18.3769 15.5469 18.3769C11.25 18.3769 6.95313 18.3378 2.65625 18.3965C1.46484 18.4161 0.566406 18.064 0 17.0079C0 11.473 0 5.93816 0 0.422852C5.52734 0.422852 11.0742 0.422852 16.6016 0.422852ZM3.94531 14.4067C7.34375 14.4067 10.6836 14.4067 13.9844 14.4067C13.9844 11.0036 13.9844 7.67881 13.9844 4.37354C10.6055 4.37354 7.30469 4.37354 3.94531 4.37354C3.94531 7.73749 3.94531 11.0232 3.94531 14.4067Z" fill="#212833"/>
<path d="M100 17.0079C99.4141 18.064 98.5547 18.4161 97.3438 18.3965C93.0469 18.3379 88.75 18.377 84.4532 18.377C82.7149 18.377 82.0313 17.6924 82.0313 15.9518C82.0313 11.6491 82.0703 7.36591 82.0118 3.06318C81.9922 1.87015 82.3438 0.990056 83.3985 0.40332C88.9258 0.40332 94.4727 0.40332 100 0.40332C100 5.95775 100 11.4731 100 17.0079ZM85.9961 4.37356C85.9961 7.77662 85.9961 11.1015 85.9961 14.4067C89.3946 14.4067 92.7149 14.4067 96.0352 14.4067C96.0352 11.0232 96.0352 7.71795 96.0352 4.37356C92.6953 4.37356 89.375 4.37356 85.9961 4.37356Z" fill="#212833"/>
<path d="M0 83.778C0.566406 82.7219 1.44531 82.3699 2.65625 82.3894C6.95313 82.4481 11.2305 82.409 15.5273 82.409C17.2656 82.409 17.9688 83.0935 17.9688 84.8146C17.9688 89.1956 17.9688 93.5765 17.9688 97.977C17.9688 99.6981 17.2656 100.383 15.5273 100.383C11.2305 100.383 6.95313 100.344 2.65625 100.402C1.46484 100.422 0.585938 100.07 0 99.0136C0 93.9286 0 88.8435 0 83.778ZM14.0234 86.3792C10.625 86.3792 7.28515 86.3792 3.98437 86.3792C3.98437 89.7823 3.98437 93.1071 3.98437 96.4124C7.36328 96.4124 10.6641 96.4124 14.0234 96.4124C14.0234 93.0485 14.0234 89.7432 14.0234 86.3792Z" fill="#212833"/>
<path d="M100 98.994C99.4141 100.031 98.5547 100.402 97.3438 100.383C93.0469 100.324 88.7695 100.363 84.4727 100.363C82.7344 100.363 82.0312 99.6786 82.0312 97.9575C82.0312 93.5765 82.0312 89.1955 82.0312 84.795C82.0312 83.0739 82.7344 82.3894 84.4727 82.3894C88.7695 82.3894 93.0469 82.4285 97.3438 82.3699C98.5547 82.3503 99.4141 82.7219 100 83.7585C100 88.8435 100 93.9286 100 98.994ZM86.0156 86.3597C86.0156 89.7627 86.0156 93.0876 86.0156 96.3928C89.4141 96.3928 92.7344 96.3928 96.0547 96.3928C96.0547 93.0093 96.0547 89.704 96.0547 86.3597C92.6758 86.3597 89.375 86.3597 86.0156 86.3597Z" fill="#212833"/>
<path d="M48.2031 64.8654C44.9609 68.0925 41.9336 71.1826 38.8281 74.1945C38.2031 74.8008 37.3828 75.3093 36.5625 75.6223C31.9531 77.3042 27.3242 78.8884 22.6953 80.5313C22.5781 80.5704 22.4414 80.6095 22.3242 80.6682C21.4844 81.0007 20.7227 80.9029 20.0781 80.2379C19.4727 79.6121 19.3945 78.8884 19.6875 78.067C21.4453 73.0993 23.1641 68.1316 24.9414 63.1835C25.1367 62.6554 25.5078 62.1665 25.918 61.7558C28.8086 58.8416 31.6992 55.9471 34.6094 53.0525C34.8633 52.7983 35.1758 52.6222 35.6641 52.2506C35.1563 51.879 34.8438 51.703 34.5899 51.4488C28.711 45.5814 22.8516 39.7141 16.9727 33.8467C15.5078 32.3799 15.5078 31.5193 16.9531 30.0721C21.1914 25.8476 25.4297 21.6035 29.668 17.379C31.1133 15.9317 31.9922 15.9513 33.457 17.4181C39.3359 23.2855 45.1953 29.1528 51.0547 35.0202C51.3086 35.2744 51.4649 35.6069 51.7188 35.959C54.6484 33.0253 57.3828 30.2872 60.1172 27.5491C61.875 25.8084 63.5742 24.0091 65.3906 22.3271C68.1055 19.7846 71.9727 19.2174 75.2735 20.7625C78.5547 22.3076 80.6055 25.6911 80.4297 29.368C80.332 31.3824 79.6094 33.1622 78.3008 34.7073C77.9688 35.0984 77.5977 35.47 77.2266 35.8416C68.7305 44.3297 60.2344 52.8178 51.7383 61.3059C51.4649 61.5797 51.1524 61.8144 50.8985 62.01C52.2656 63.3791 53.5156 64.6307 54.8242 65.9411C56.4453 64.3178 58.1055 62.6163 59.8047 60.9539C60.8594 59.9173 62.4024 60.1129 63.0078 61.3255C63.457 62.2251 63.2227 63.027 62.5391 63.7115C61.0938 65.1588 59.6484 66.6061 58.1836 68.0534C57.9492 68.2881 57.7539 68.5228 57.5586 68.7183C58.5547 69.7353 59.5313 70.6937 60.6836 71.8476C61.1328 71.3195 61.5625 70.7524 62.0508 70.2439C63.0078 69.2855 64.1602 69.2073 64.9805 70.0092C65.8399 70.8501 65.7813 72.0041 64.7656 73.0015C64.2969 73.4905 63.75 73.9012 63.3008 74.2728C65.1172 76.0917 66.7969 77.7541 68.3985 79.3383C71.8555 75.8765 75.4492 72.2779 79.3555 68.3663C79.2188 68.3076 78.8281 68.2098 78.5938 67.9751C76.3672 65.7847 74.1602 63.5746 71.9531 61.3646C71.7188 61.1299 71.4844 60.9148 71.2891 60.6605C70.6836 59.8586 70.7422 58.8807 71.4063 58.1571C72.0899 57.4335 73.1446 57.2966 73.9649 57.942C74.5313 58.3722 75.0195 58.9199 75.5078 59.4284C78.0469 61.9513 80.5664 64.4938 83.1055 67.0168C84.336 68.249 84.3359 69.2464 83.125 70.459C78.7891 74.8204 74.4336 79.1622 70.0781 83.5041C68.8672 84.6971 67.8711 84.6775 66.6406 83.465C60.7227 77.5585 54.8047 71.652 48.9063 65.726C48.6914 65.5304 48.4961 65.237 48.2031 64.8654ZM61.875 31.5584C51.1524 42.2761 40.4688 52.9547 29.8242 63.5942C32.1289 65.902 34.4922 68.2881 36.6992 70.5177C47.3828 59.8391 58.086 49.1409 68.75 38.4819C66.5235 36.1937 64.1797 33.8467 61.875 31.5584ZM48.8281 38.6384C43.0274 32.8493 37.2266 27.0406 31.5234 21.3492C28.0078 24.8697 24.3945 28.4683 20.918 31.9496C22.5195 33.5729 24.1797 35.2549 25.9766 37.0738C26.4258 36.5653 26.8945 35.9981 27.4219 35.47C28.3594 34.5704 29.4727 34.5508 30.2734 35.3722C31.0742 36.1741 31.0352 37.3085 30.1563 38.2472C29.6484 38.7753 29.082 39.2642 28.6328 39.6945C29.707 40.7897 30.6641 41.7676 31.7969 42.902C31.9727 42.6673 32.1484 42.3348 32.4024 42.0806C33.8477 40.6137 35.293 39.1664 36.7578 37.7387C37.5 37.0151 38.3789 36.9368 39.1602 37.4453C39.9414 37.9343 40.2344 38.6971 39.9805 39.5576C39.8633 39.9879 39.5313 40.4181 39.1992 40.7506C37.5977 42.3935 35.957 43.9972 34.375 45.5619C35.7031 46.8918 36.9336 48.1239 38.1055 49.317C41.7188 45.7379 45.332 42.1392 48.8281 38.6384ZM71.7969 35.6265C72.9688 34.4921 74.2578 33.3969 75.3711 32.1256C77.0899 30.1894 76.9336 27.2362 75.1172 25.3782C73.3008 23.5202 70.3321 23.2464 68.3985 24.9283C67.0703 26.0627 65.957 27.4317 64.7852 28.6443C67.1094 30.9521 69.4727 33.2991 71.7969 35.6265ZM32.9297 72.8059C31.1133 70.9871 29.336 69.2268 27.5781 67.4666C26.6797 70.0483 25.7227 72.7668 24.707 75.7005C27.6367 74.6639 30.3516 73.7056 32.9297 72.8059Z" fill="#212833"/>
<path d="M37.2266 12.1381C36.582 12.1381 35.918 12.1577 35.2734 12.1381C34.1406 12.0795 33.3594 11.2972 33.3594 10.2019C33.3594 9.12624 34.1016 8.28525 35.2539 8.24613C36.582 8.20702 37.9297 8.20702 39.2578 8.24613C40.3711 8.28525 41.1914 9.14579 41.1914 10.1628C41.1914 11.2385 40.3516 12.0795 39.1797 12.1186C38.5156 12.1577 37.8711 12.1381 37.2266 12.1381Z" fill="#212833"/>
<path d="M92.9688 38.5215C92.9688 39.1669 93.0078 39.8319 92.9688 40.4773C92.8906 41.5921 92.0508 42.394 90.9961 42.3744C89.9609 42.3549 89.1211 41.5334 89.082 40.4187C89.043 39.0887 89.043 37.7588 89.082 36.4093C89.1211 35.3141 89.9023 34.5709 90.9375 34.5317C92.0312 34.4926 92.8711 35.2358 92.9492 36.3506C93.0078 37.0938 92.9688 37.7979 92.9688 38.5215Z" fill="#212833"/>
<path d="M62.7149 12.1185C62.0704 12.1185 61.4063 12.138 60.7618 12.1185C59.6485 12.0598 58.8282 11.2384 58.8087 10.2018C58.7892 9.16523 59.6095 8.28513 60.7032 8.24602C62.0704 8.2069 63.4376 8.18734 64.8048 8.24602C65.9181 8.28513 66.6603 9.16524 66.6407 10.2409C66.6017 11.2775 65.8595 12.0402 64.7657 12.1185C64.0821 12.1576 63.3985 12.1185 62.7149 12.1185Z" fill="#212833"/>
<path d="M89.0625 63.8298C89.0625 63.1844 89.0235 62.5194 89.0625 61.874C89.1211 60.7788 90 59.9573 91.0352 59.9769C92.0508 59.9965 92.8907 60.7592 92.9493 61.8349C93.0078 63.2235 93.0078 64.6317 92.9493 66.0203C92.8907 67.096 92.0313 67.8 90.9961 67.8C89.961 67.7805 89.1797 67.0568 89.0821 65.9812C89.0821 65.9225 89.0821 65.8443 89.0821 65.7856C89.0625 65.1206 89.0625 64.4752 89.0625 63.8298Z" fill="#212833"/>
<path d="M10.9375 63.9276C10.9375 64.5534 10.957 65.1597 10.9375 65.7856C10.8984 66.9982 10.1367 67.8 9.00391 67.8C7.89062 67.8 7.07031 67.0177 7.05078 65.8247C7.01172 64.5339 7.01172 63.2235 7.05078 61.9131C7.08984 60.7983 7.92968 59.9769 8.96484 59.9769C10 59.9573 10.8594 60.7788 10.918 61.874C10.957 62.5585 10.9375 63.2431 10.9375 63.9276Z" fill="#212833"/>
<path d="M7.03128 38.4442C7.03128 37.7596 6.99221 37.0751 7.03128 36.3906C7.08987 35.3149 7.89065 34.5717 8.92581 34.5326C10.0196 34.513 10.8594 35.2562 10.918 36.3906C10.9766 37.7596 10.9766 39.1287 10.918 40.4977C10.8789 41.6125 9.9805 42.3949 8.92581 42.3753C7.92971 42.3557 7.08987 41.5539 7.03128 40.4977C7.01175 39.8132 7.03128 39.1287 7.03128 38.4442Z" fill="#212833"/>
<path d="M37.168 94.1048C36.5234 94.1048 35.8594 94.1439 35.2148 94.1048C34.082 94.0461 33.3398 93.2247 33.3398 92.1294C33.3594 91.0929 34.1016 90.2715 35.1758 90.2323C36.543 90.1737 37.9102 90.1932 39.2773 90.2323C40.3711 90.2715 41.1914 91.1711 41.1719 92.2077C41.1523 93.2051 40.3711 94.0461 39.3164 94.1048C38.6133 94.1439 37.8906 94.1048 37.168 94.1048Z" fill="#212833"/>
<path d="M62.6563 94.1049C62.0118 94.1049 61.3478 94.1441 60.7032 94.1049C59.6095 94.0463 58.7892 93.1661 58.8087 92.1296C58.8282 91.1321 59.6095 90.2716 60.6642 90.2325C62.0313 90.1738 63.3985 90.1738 64.7657 90.2325C65.8985 90.2716 66.6407 91.1126 66.6407 92.1883C66.6212 93.2639 65.8595 94.0463 64.7071 94.1049C64.0235 94.1441 63.3399 94.1049 62.6563 94.1049Z" fill="#212833"/>
<path d="M50.078 12.1186C49.3749 12.1186 48.6522 12.1577 47.9491 12.1186C46.8749 12.0599 46.1327 11.258 46.0936 10.241C46.0741 9.1849 46.8358 8.3048 47.9296 8.26568C49.2968 8.20701 50.6444 8.20701 52.0116 8.26568C53.1249 8.3048 53.9061 9.14578 53.9061 10.2019C53.9061 11.258 53.1249 12.0795 52.0116 12.1381C51.3671 12.1577 50.7225 12.1186 50.078 12.1186Z" fill="#212833"/>
<path d="M7.03125 51.097C7.03125 50.4516 7.01172 49.8062 7.03125 49.1608C7.08984 48.046 7.91016 47.2637 8.96484 47.2637C10.0195 47.2637 10.8594 48.0264 10.8984 49.1608C10.9375 50.4907 10.9375 51.8207 10.8984 53.1506C10.8594 54.3241 10.0195 55.1259 8.90625 55.1064C7.85156 55.0868 7.05078 54.3045 7.01172 53.1701C7.01172 52.4661 7.03125 51.7815 7.03125 51.097Z" fill="#212833"/>
<path d="M49.9803 94.1049C49.2968 94.1049 48.6132 94.1441 47.9491 94.1049C46.8358 94.0267 46.0741 93.2053 46.0936 92.1296C46.1132 91.1126 46.8553 90.2716 47.9296 90.2325C49.3163 90.1738 50.7225 90.1738 52.1093 90.2325C53.1639 90.2716 53.9061 91.1322 53.9257 92.1492C53.9257 93.1662 53.1835 94.0071 52.1288 94.0854C51.4061 94.144 50.703 94.1049 49.9803 94.1049Z" fill="#212833"/>
<path d="M92.9688 51.097C92.9688 51.7815 92.9883 52.4661 92.9688 53.131C92.9102 54.3045 92.0898 55.1064 90.9766 55.0868C89.9219 55.0672 89.1016 54.2849 89.082 53.1506C89.043 51.8207 89.043 50.4907 89.082 49.1608C89.1211 48.046 89.9414 47.2637 91.0156 47.2637C92.0703 47.2637 92.8906 48.0264 92.9688 49.1412C92.9883 49.7866 92.9688 50.432 92.9688 51.097Z" fill="#212833"/>
<path d="M7.03125 26.787C7.03125 26.4545 7.01172 26.1416 7.03125 25.8091C7.12891 24.7334 7.92969 24.0098 8.96484 24.0098C10 24.0098 10.8203 24.7334 10.8984 25.8091C10.9375 26.4154 10.9375 27.0412 10.8984 27.6671C10.8398 28.821 9.96094 29.6815 8.90625 29.6424C7.8711 29.6033 7.07031 28.7819 7.01172 27.6671C7.01172 27.3737 7.03125 27.0803 7.03125 26.787Z" fill="#212833"/>
<path d="M74.3359 12.1185C74.0039 12.1185 73.6914 12.1381 73.3594 12.1185C72.3242 12.0208 71.543 11.1798 71.543 10.1823C71.543 9.18488 72.3242 8.3439 73.3789 8.26566C73.9844 8.22655 74.6094 8.22655 75.2344 8.26566C76.4258 8.32434 77.207 9.14576 77.168 10.2606C77.1484 11.3362 76.3672 12.0794 75.2148 12.1577C74.9219 12.1381 74.6289 12.1381 74.3359 12.1185Z" fill="#212833"/>
<path d="M25.6836 8.22647C27.5195 8.22647 28.4766 8.91099 28.457 10.2018C28.4375 11.4731 27.5 12.1185 25.7227 12.1185C25.3906 12.1185 25.0781 12.138 24.7461 12.1185C23.6133 12.0402 22.832 11.2775 22.832 10.1822C22.832 9.10657 23.5742 8.3047 24.707 8.22647C25.0195 8.20691 25.3516 8.22647 25.6836 8.22647Z" fill="#212833"/>
<path d="M25.5469 94.1048C23.6719 94.1048 22.793 93.4594 22.8126 92.1099C22.8321 90.8191 23.711 90.1933 25.5274 90.1933C25.8594 90.1933 26.1719 90.1737 26.504 90.1933C27.6173 90.2715 28.4376 91.0929 28.4376 92.1295C28.4376 93.1856 27.6368 94.007 26.5235 94.0853C26.1915 94.1244 25.879 94.1048 25.5469 94.1048Z" fill="#212833"/>
<path d="M7.03125 75.4668C7.03125 73.6284 7.71484 72.67 9.02344 72.7092C10.293 72.7483 10.9375 73.6675 10.9375 75.4473C10.9375 75.7406 10.9375 76.034 10.9375 76.3274C10.8789 77.5399 10.1172 78.3222 9.00391 78.3418C7.89063 78.3418 7.10938 77.5595 7.05078 76.3469C7.01172 76.0535 7.03125 75.7602 7.03125 75.4668Z" fill="#212833"/>
<path d="M92.9493 75.5843C92.9493 75.9168 92.9688 76.2297 92.9493 76.5622C92.8321 77.6379 92.0313 78.342 90.9767 78.342C89.9415 78.3224 89.1407 77.5988 89.0626 76.5231C89.0235 75.9364 89.0431 75.3496 89.0626 74.7629C89.1017 73.5894 89.9024 72.7289 90.9767 72.7093C92.0509 72.6898 92.8907 73.5307 92.9493 74.7042C92.9688 74.9976 92.9688 75.2909 92.9493 75.5843C92.9688 75.5843 92.9493 75.5843 92.9493 75.5843Z" fill="#212833"/>
<path d="M74.3359 94.1049C73.9844 94.1049 73.6133 94.144 73.2617 94.1049C72.2852 93.9876 71.543 93.127 71.543 92.1687C71.543 91.2103 72.3047 90.3498 73.2813 90.252C73.9258 90.1933 74.5898 90.2129 75.2344 90.2325C76.3867 90.2911 77.1484 91.0539 77.168 92.1296C77.1875 93.2443 76.4063 94.0462 75.2148 94.1245C74.9219 94.1245 74.6289 94.1049 74.3359 94.1049Z" fill="#212833"/>
<path d="M89.0625 26.787C89.0625 26.4545 89.043 26.1416 89.0625 25.8091C89.1602 24.7334 89.9609 24.0098 90.9961 24.0098C92.0312 24.0098 92.8516 24.7334 92.9297 25.8091C92.9883 26.4545 92.9687 27.1195 92.9297 27.7649C92.8516 28.8601 91.9726 29.6815 90.9375 29.6424C89.9414 29.6229 89.1211 28.821 89.043 27.7649C89.043 27.4324 89.0625 27.1195 89.0625 26.787Z" fill="#212833"/>
<path d="M67.4024 52.1342C68.4571 52.1733 69.3165 53.073 69.2969 54.1096C69.2579 55.1461 68.3594 56.0262 67.3243 56.0262C66.2305 56.0067 65.3712 55.0874 65.4102 53.9726C65.4493 52.8774 66.3087 52.0951 67.4024 52.1342Z" fill="#212833"/>
</svg>
