<svg width="100" height="111" viewBox="0 0 100 111" fill="none" xmlns="http://www.w3.org/2000/svg">
<path d="M85.9932 0.446533C86.8259 1.05152 87.1327 1.85097 87.1108 2.86649C87.067 6.99338 87.0889 11.1203 87.0889 15.2472C87.0889 15.6361 87.0889 16.025 87.0889 16.5652C88.0312 16.5652 88.864 16.522 89.6968 16.5652C95.3069 16.8245 99.909 21.3619 99.9529 26.9148C100.041 35.6656 99.9748 44.4163 99.9967 53.167C99.9967 62.4579 99.9967 71.7488 99.9967 81.0397C99.9967 87.7378 95.3288 92.3185 88.5353 92.3185C87.1547 92.3185 85.7741 92.3401 84.3934 92.3185C82.9032 92.2969 81.8951 91.4326 81.8951 90.1794C81.8732 88.9262 82.8594 88.0403 84.3715 88.0187C85.9055 87.9971 87.4396 88.0403 88.9517 88.0187C92.8306 87.9539 95.5918 85.2315 95.6576 81.4071C95.6795 80.2187 95.6576 79.0519 95.6576 77.7771C65.24 77.7771 34.8662 77.7771 4.22953 77.7771C4.36102 79.6785 4.27336 81.6231 4.71166 83.4597C5.34718 86.1605 7.97694 87.9323 10.9135 87.9971C12.579 88.0403 14.2665 87.9971 15.932 87.9971C32.5652 87.9971 49.1984 87.9971 65.8317 87.9971C66.2262 87.9971 66.6425 87.9971 67.037 87.9971C68.33 88.0619 69.2065 88.883 69.2285 90.0714C69.2504 91.2813 68.3738 92.232 67.037 92.2753C65.503 92.3185 63.9908 92.2969 62.4568 92.2969C61.9966 92.2969 61.5364 92.2969 61.0105 92.2969C61.0105 94.0686 61.0105 95.7323 61.0105 97.4609C64.1881 97.6769 66.8836 98.8437 68.9655 101.199C70.6091 103.079 71.5295 105.261 71.6172 107.746C71.6829 109.582 70.894 110.403 69.0312 110.403C61.7994 110.403 54.5456 110.403 47.3138 110.403C42.0104 110.403 36.6852 110.403 31.3818 110.403C29.015 110.403 28.1604 109.431 28.4672 107.119C29.1684 101.869 33.0473 98.1091 38.3945 97.5257C38.6137 97.5041 38.8109 97.4825 39.052 97.4609C39.052 95.7323 39.052 94.0686 39.052 92.2969C38.5698 92.2969 38.1534 92.2969 37.7152 92.2969C29.015 92.2969 20.3149 92.2969 11.6148 92.2969C4.624 92.2969 0 87.7162 0 80.8237C0 63.0629 0 45.3022 0 27.5414C0 22.0317 3.59401 17.6671 8.98502 16.6732C10.2122 16.4355 11.5052 16.4787 12.8858 16.3923C12.8858 15.9818 12.8858 15.6145 12.8858 15.2256C12.8858 11.1419 12.9077 7.0366 12.8639 2.95292C12.8639 1.89419 13.1488 1.05152 13.9597 0.40332C37.9562 0.446534 61.9747 0.446533 85.9932 0.446533ZM12.842 73.3261C12.842 72.8508 12.842 72.4403 12.842 72.0081C12.842 63.3654 12.842 54.7227 12.842 46.08C12.842 45.7559 12.8201 45.4318 12.8639 45.1077C12.9735 43.8761 13.8939 43.0335 15.0773 43.0551C16.2169 43.0767 17.0934 43.9193 17.203 45.0861C17.2249 45.4102 17.2249 45.7343 17.2249 46.0584C17.2249 54.7011 17.2249 63.3438 17.2249 71.9865C17.2249 72.397 17.2249 72.8292 17.2249 73.3045C39.1177 73.3045 60.879 73.3045 82.6622 73.3045C82.6622 55.0036 82.6622 36.7675 82.6622 18.5746C60.8132 18.5746 39.03 18.5746 17.2249 18.5746C17.2249 21.902 17.2468 25.1214 17.2249 28.3409C17.203 29.6373 16.2169 30.5664 15.0116 30.5231C13.872 30.5015 12.9077 29.5724 12.8858 28.3625C12.842 26.742 12.8639 25.1431 12.8639 23.5226C12.8639 22.6367 12.8639 21.7508 12.8639 20.9081C6.90313 20.1303 4.22953 24.1275 4.27336 28.3409C4.42676 42.9038 4.3391 57.4668 4.3391 72.0297C4.3391 72.4403 4.3391 72.8508 4.3391 73.3045C7.20993 73.3261 9.97117 73.3261 12.842 73.3261ZM17.2688 14.1236C39.0958 14.1236 60.879 14.1236 82.6841 14.1236C82.6841 10.9042 82.6841 7.77122 82.6841 4.59503C60.8571 4.59503 39.0739 4.59503 17.2688 4.59503C17.2688 7.81444 17.2688 10.9474 17.2688 14.1236ZM87.1547 20.7785C87.1547 38.4096 87.1547 55.8463 87.1547 73.3045C89.9817 73.3045 92.7648 73.3045 95.6137 73.3045C95.6137 72.3322 95.6137 71.4463 95.6137 70.5388C95.6137 56.2136 95.6137 41.9099 95.6137 27.5846C95.6137 24.2572 93.7071 21.7076 90.6172 21.0162C89.5434 20.8001 88.3819 20.8649 87.1547 20.7785ZM66.7302 106.082C66.0508 103.662 63.5526 101.847 60.7913 101.847C53.6033 101.825 46.3934 101.825 39.2053 101.847C36.729 101.869 34.8443 103.035 33.5733 105.153C33.398 105.434 33.2884 105.758 33.135 106.082C44.4211 106.082 55.5756 106.082 66.7302 106.082ZM56.4522 97.4609C56.4522 95.7539 56.4522 94.0902 56.4522 92.4049C52.0912 92.4049 47.7959 92.4049 43.5006 92.4049C43.5006 94.1334 43.5006 95.7972 43.5006 97.4609C47.8617 97.4609 52.135 97.4609 56.4522 97.4609Z" fill="#212833"/>
<path d="M50.0532 80.7152C51.2585 80.7368 52.1789 81.6875 52.157 82.8759C52.1351 84.0427 51.1489 84.9934 49.9874 84.9934C48.804 84.9934 47.7521 83.913 47.8179 82.7462C47.8617 81.6011 48.8478 80.6936 50.0532 80.7152Z" fill="#212833"/>
<path d="M77.2711 90.1361C77.293 91.3461 76.3069 92.34 75.1016 92.34C73.962 92.34 72.9539 91.3677 72.932 90.2225C72.9101 89.0774 73.8524 88.1051 75.0139 88.0619C76.2411 87.997 77.2492 88.9045 77.2711 90.1361Z" fill="#212833"/>
<path d="M69.8641 46.3606C67.3658 43.919 64.8894 41.4775 62.435 39.0575C60.9886 37.6315 60.7695 36.4647 61.7775 35.4276C62.8075 34.3472 64.0567 34.5417 65.5249 35.9893C68.3739 38.7982 71.2447 41.6071 74.0936 44.4376C75.5181 45.842 75.5181 46.9008 74.1155 48.3052C71.1351 51.2437 68.1547 54.2038 65.1524 57.1208C64.1005 58.1579 62.8733 58.2659 61.9529 57.4881C60.9229 56.6238 60.901 55.2626 61.9748 54.1822C64.3416 51.8055 66.7522 49.4504 69.1409 47.0952C69.36 46.9008 69.5792 46.6631 69.8641 46.3606Z" fill="#212833"/>
<path d="M29.9573 46.2744C32.5871 48.8672 35.0415 51.2872 37.5179 53.7287C39.0081 55.198 39.1834 56.408 38.1096 57.4235C37.1015 58.3742 35.8304 58.1581 34.4279 56.7753C31.579 53.9664 28.7082 51.1359 25.8593 48.327C24.4129 46.901 24.4129 45.9071 25.8373 44.481C28.7958 41.5641 31.7543 38.6472 34.7128 35.7303C35.3264 35.1253 36.0496 34.5203 36.9043 34.8444C37.5617 35.1037 38.2411 35.6655 38.6136 36.2705C39.1176 37.1131 38.6355 37.9342 37.9781 38.5824C35.8085 40.7431 33.6171 42.9037 31.4037 45.0428C30.9873 45.4749 30.4833 45.8423 29.9573 46.2744Z" fill="#212833"/>
<path d="M56.3646 37.3288C56.3207 37.5017 56.255 37.869 56.1016 38.1931C53.3403 44.351 50.5572 50.5089 47.7959 56.6453C47.3576 57.5959 46.6125 58.0713 45.5387 57.9849C43.917 57.8552 43.1719 56.3212 43.917 54.6574C45.8893 50.228 47.9055 45.8203 49.8997 41.4125C50.6887 39.6839 51.4338 37.9338 52.2665 36.2269C52.7706 35.1897 53.7786 34.8008 54.8086 35.0817C55.751 35.341 56.3646 36.1404 56.3646 37.3288Z" fill="#212833"/>
<path d="M15.0992 34.6713C16.2826 34.7146 17.203 35.6869 17.1811 36.832C17.1592 38.0204 16.1073 39.0143 14.9239 38.9495C13.7843 38.9063 12.8201 37.8907 12.8201 36.7672C12.8639 35.5788 13.872 34.6281 15.0992 34.6713Z" fill="#212833"/>
<path d="M63.2458 11.5097C59.5422 11.5097 55.8386 11.5313 52.1131 11.5097C50.6887 11.5097 49.7463 10.6022 49.7463 9.39224C49.7463 8.20387 50.6448 7.3396 52.0035 7.23157C52.3323 7.20996 52.661 7.20996 52.9897 7.20996C56.6714 7.20996 60.3311 7.20996 64.0128 7.20996C67.3657 7.20996 70.6968 7.20996 74.0497 7.20996C75.4084 7.20996 76.2631 7.72852 76.5699 8.67922C77.052 10.1701 76.022 11.4881 74.2689 11.5097C70.5872 11.5097 66.9275 11.5097 63.2458 11.5097Z" fill="#212833"/>
<path d="M22.6818 11.4873C21.4984 11.4873 20.5122 10.5366 20.5122 9.36988C20.5122 8.22472 21.4984 7.25242 22.6598 7.23081C23.8871 7.20921 24.8732 8.20312 24.8513 9.4131C24.8294 10.6015 23.8871 11.4873 22.6818 11.4873Z" fill="#212833"/>
<path d="M30.6367 11.487C29.4314 11.4654 28.5109 10.5363 28.5329 9.34793C28.5329 8.18116 29.4971 7.23047 30.6805 7.23047C31.8858 7.23047 32.9158 8.26759 32.872 9.45596C32.8281 10.6011 31.842 11.5086 30.6367 11.487Z" fill="#212833"/>
<path d="M40.849 9.34829C40.849 10.5367 39.9286 11.4658 38.7233 11.4874C37.4741 11.509 36.488 10.5367 36.5099 9.32668C36.5318 8.15992 37.518 7.20922 38.7013 7.23083C39.8847 7.23083 40.8271 8.18152 40.849 9.34829Z" fill="#212833"/>
</svg>
