<svg width="100" height="101" viewBox="0 0 100 101" fill="none" xmlns="http://www.w3.org/2000/svg">
<g clip-path="url(#clip0_856_694)">
<path d="M37.3611 32.0654C36.9978 31.7023 36.4939 31.4932 35.9802 31.4932C35.4666 31.4932 34.9626 31.7021 34.5994 32.0654C34.2361 32.4287 34.0271 32.9326 34.0271 33.4463C34.0271 33.96 34.2361 34.4639 34.5994 34.8271C34.9626 35.1902 35.4666 35.3994 35.9802 35.3994C36.4939 35.3994 36.9978 35.1904 37.3611 34.8271C37.7244 34.4639 37.9333 33.9617 37.9333 33.4463C37.9333 32.9326 37.7244 32.4287 37.3611 32.0654Z" fill="#212833"/>
<path d="M79.803 58.0849L65.9079 44.19C68.912 39.8769 68.4952 33.8873 64.6513 30.0433C62.5608 27.9529 59.7813 26.8015 56.8251 26.8015C54.531 26.8015 52.3448 27.4976 50.503 28.7851L36.6095 14.8916C36.1505 14.4326 35.4941 14.2313 34.8568 14.3553C34.2197 14.4787 33.6855 14.9105 33.4314 15.5076L14.4703 60.0407L4.18261 70.3286C1.48535 73.0261 0 76.6124 0 80.4268C0 84.2415 1.48535 87.8278 4.18281 90.5248C6.88007 93.2223 10.4664 94.7076 14.2808 94.7076C18.0955 94.7076 21.6816 93.2223 24.3789 90.5248L26.05 88.8538L37.0273 99.8311C37.4087 100.212 37.9085 100.403 38.4083 100.403C38.9081 100.403 39.4081 100.212 39.7894 99.8311L47.2915 92.3289C48.0542 91.5663 48.0542 90.3295 47.2915 89.5667L36.9818 79.2569L79.1881 61.263C79.7848 61.0085 80.2165 60.4743 80.3397 59.8374C80.4627 59.2003 80.2618 58.5437 79.803 58.0849ZM56.8253 30.7082C58.7382 30.7082 60.5366 31.4531 61.8893 32.8058C64.2028 35.1191 64.5975 38.6339 63.0774 41.3595L53.3335 31.6156C54.3888 31.0244 55.5823 30.7082 56.8253 30.7082ZM21.6166 87.7626C19.657 89.7221 17.0517 90.8014 14.2806 90.8014C11.5095 90.8014 8.90428 89.7223 6.94471 87.7626C4.98534 85.803 3.90624 83.1979 3.90624 80.4268C3.90624 77.6557 4.98534 75.0505 6.94491 73.0909L16.1191 63.9165L16.3988 64.1962L30.7902 78.5893L21.6166 87.7626ZM43.1484 90.9477L38.4081 95.6875L28.8121 86.0915L33.5521 81.3516L43.1484 90.9477ZM67.3477 62.0642C67.3126 62.0226 67.2766 61.9813 67.2376 61.9423L42.4976 37.2023C41.7349 36.4398 40.4982 36.4398 39.7353 37.2023C38.9726 37.965 38.9726 39.2017 39.7353 39.9646L63.4827 63.712L34.0056 76.2792L18.4326 60.706L35.8925 19.6992L74.9965 58.803L67.3477 62.0642Z" fill="#212833"/>
<path d="M81.0687 13.7349C80.3058 12.9726 79.0693 12.9724 78.3066 13.7349L73.065 18.9765C72.3023 19.7392 72.3021 20.9759 73.065 21.7388C73.4465 22.1202 73.9461 22.3109 74.4461 22.3109C74.9459 22.3109 75.4459 22.12 75.8271 21.7388L81.0687 16.4972C81.8314 15.7343 81.8316 14.4976 81.0687 13.7349Z" fill="#212833"/>
<path d="M71.0327 23.7705C70.6694 23.4074 70.1675 23.1982 69.6519 23.1982C69.1382 23.1982 68.6343 23.4072 68.271 23.7705C67.9077 24.1338 67.6987 24.6377 67.6987 25.1514C67.6987 25.665 67.9077 26.1689 68.271 26.5322C68.6362 26.8955 69.1382 27.1045 69.6519 27.1045C70.1655 27.1045 70.6694 26.8955 71.0327 26.5322C71.3979 26.1689 71.605 25.665 71.605 25.1514C71.605 24.6377 71.3979 24.1338 71.0327 23.7705Z" fill="#212833"/>
<path d="M58.8572 5.98535C57.7785 5.98535 56.9041 6.85996 56.9041 7.93848V15.1166C56.9041 16.1951 57.7785 17.0695 58.8572 17.0695C59.9359 17.0695 60.8103 16.1949 60.8103 15.1164V7.93848C60.8103 6.85996 59.9359 5.98535 58.8572 5.98535Z" fill="#212833"/>
<path d="M86.8285 33.6865H79.4104C78.3317 33.6865 77.4573 34.5611 77.4573 35.6396C77.4573 36.7182 78.3317 37.5928 79.4104 37.5928H86.8285C87.9072 37.5928 88.7817 36.7182 88.7817 35.6396C88.7817 34.5611 87.9072 33.6865 86.8285 33.6865Z" fill="#212833"/>
<path d="M84.0261 78.2812C80.7953 78.2812 78.1667 80.9098 78.1667 84.1406C78.1667 87.3715 80.7953 90 84.0261 90C87.257 90 89.8855 87.3715 89.8855 84.1406C89.8855 80.9098 87.257 78.2812 84.0261 78.2812ZM84.0261 86.0935C82.9492 86.0935 82.073 85.2174 82.073 84.1404C82.073 83.0635 82.9492 82.1873 84.0261 82.1873C85.1031 82.1873 85.9792 83.0635 85.9792 84.1404C85.9792 85.2174 85.1031 86.0935 84.0261 86.0935Z" fill="#212833"/>
<path d="M99.3552 87.0289L97.2488 85.1261C97.2732 84.7974 97.2855 84.4681 97.2855 84.1398C97.2855 83.8115 97.2732 83.4822 97.2488 83.1535L99.3552 81.2508C100.039 80.633 100.198 79.6213 99.7367 78.8234L96.4791 73.1912C96.0183 72.3943 95.0636 72.0275 94.1879 72.3105L91.492 73.1816C90.9471 72.8098 90.3762 72.4795 89.7828 72.1932L89.1889 69.4209C88.9959 68.5203 88.2 67.877 87.2791 67.877H80.7733C79.8522 67.877 79.0563 68.5203 78.8635 69.4209L78.2696 72.1932C77.6762 72.4795 77.1053 72.8096 76.5604 73.1816L73.8645 72.3105C72.9881 72.0275 72.034 72.3947 71.5733 73.1912L68.3157 78.8234C67.8543 79.6213 68.0133 80.633 68.6971 81.2508L70.8036 83.1535C70.7791 83.4822 70.7668 83.8115 70.7668 84.1398C70.7668 84.4681 70.7791 84.7974 70.8036 85.1261L68.6971 87.0289C68.0133 87.6466 67.8543 88.6584 68.3157 89.4562L71.5733 95.0886C72.034 95.8855 72.9887 96.2521 73.8645 95.9693L76.5604 95.098C77.1055 95.4701 77.6764 95.8003 78.2696 96.0867L78.8635 98.8587C79.0565 99.7593 79.8524 100.403 80.7733 100.403H87.2793C88.2004 100.403 88.9963 99.7593 89.189 98.8587L89.783 96.0867C90.3762 95.8003 90.9471 95.4703 91.4922 95.098L94.1881 95.9693C95.0642 96.2521 96.0185 95.8851 96.4793 95.0886L99.7369 89.4562C100.198 88.6584 100.039 87.6466 99.3552 87.0289ZM93.8879 91.7667L91.7365 91.0714C91.108 90.8685 90.4199 90.9968 89.9066 91.4121C89.1433 92.0302 88.2939 92.5216 87.3824 92.872C86.7664 93.1089 86.3119 93.6408 86.1736 94.2859L85.7002 96.496H82.3522L81.8787 94.2859C81.7404 93.6406 81.2858 93.1089 80.6699 92.872C79.7584 92.5216 78.909 92.0302 78.1457 91.4121C77.6326 90.9964 76.9442 90.8683 76.3158 91.0714L74.1645 91.7667L72.4881 88.8681L74.1664 87.3521C74.6555 86.9103 74.8887 86.2517 74.7869 85.6005C74.7116 85.1189 74.6733 84.6275 74.6733 84.1396C74.6733 83.6517 74.7116 83.1601 74.7869 82.6787C74.8887 82.0275 74.6555 81.3689 74.1664 80.9271L72.4881 79.4111L74.1645 76.5125L76.3158 77.2078C76.9442 77.4109 77.6326 77.2826 78.1455 76.8672C78.9086 76.2492 79.7578 75.758 80.6699 75.407C81.2858 75.1701 81.7402 74.6383 81.8785 73.9933L82.352 71.7832H85.7L86.1734 73.9933C86.3117 74.6385 86.7662 75.1701 87.382 75.407C88.2941 75.758 89.1435 76.2492 89.9064 76.8672C90.4195 77.2826 91.1076 77.4105 91.7361 77.2078L93.8875 76.5125L95.5638 79.4111L93.8855 80.9271C93.3969 81.3689 93.1636 82.0275 93.2654 82.6787C93.3408 83.1603 93.3791 83.6517 93.3791 84.1396C93.3791 84.6275 93.3408 85.1191 93.2654 85.6005C93.1636 86.2517 93.3968 86.9103 93.8859 87.3521L95.5642 88.8681L93.8879 91.7667Z" fill="#212833"/>
<path d="M99.8457 15.008L94.1836 1.59668C93.8783 0.873437 93.1693 0.40332 92.3842 0.40332C91.599 0.40332 90.8902 0.873437 90.5848 1.59668L84.9228 15.0082C84.5033 16.0019 84.9687 17.1476 85.9627 17.5672C86.2107 17.6718 86.4682 17.7215 86.7215 17.7215C87.483 17.7215 88.2068 17.273 88.5217 16.5275L89.2301 14.8496H95.5385L96.2469 16.5275C96.6664 17.5211 97.8121 17.9867 98.8059 17.5672C99.7996 17.1474 100.265 16.0017 99.8457 15.008ZM90.8791 10.9433L92.3842 7.37811L93.8893 10.9433H90.8791Z" fill="#212833"/>
<path d="M21.0468 0.40332H4.73417C2.12382 0.403125 0 2.52675 0 5.13729V19.4986C0 22.1089 2.12382 24.2328 4.73417 24.2328H21.047C23.6574 24.2328 25.7812 22.1089 25.7812 19.4986V5.13729C25.781 2.52695 23.6572 0.40332 21.0468 0.40332ZM21.8748 19.4984C21.8748 19.955 21.5035 20.3263 21.0468 20.3263H4.73417C4.27773 20.3263 3.90624 19.955 3.90624 19.4984V5.13729C3.90624 4.68085 4.27753 4.30956 4.73417 4.30956H21.047C21.5035 4.30956 21.875 4.68085 21.875 5.13729V19.4984H21.8748Z" fill="#212833"/>
<path d="M16.3362 8.71643L13.3621 6.99944C12.06 6.24768 10.5051 6.24749 9.20297 6.99944C7.90083 7.75139 7.12329 9.09767 7.12329 10.6014V14.0354C7.12349 15.5391 7.90102 16.8854 9.20317 17.6373C9.85414 18.0133 10.5684 18.2012 11.2827 18.2012C11.9969 18.2012 12.7112 18.0133 13.3621 17.6373L16.3362 15.9203C17.6383 15.1684 18.4158 13.8219 18.4158 12.3184C18.4157 10.8149 17.6383 9.46818 16.3362 8.71643ZM14.3832 12.5373L11.4092 14.2543C11.3747 14.2744 11.2827 14.3273 11.1563 14.2543C11.0297 14.1813 11.0297 14.0752 11.0297 14.0352V10.6012C11.0297 10.5611 11.0297 10.4551 11.1563 10.382C11.2045 10.3541 11.2477 10.3447 11.2846 10.3447C11.3446 10.3447 11.3879 10.3697 11.4092 10.382L14.3832 12.099C14.4178 12.1192 14.5098 12.1721 14.5098 12.3182C14.5098 12.4643 14.4178 12.5174 14.3832 12.5373Z" fill="#212833"/>
<path d="M12.9003 42.9756H11.4907C10.412 42.9756 9.5376 43.8502 9.5376 44.9287C9.5376 46.0072 10.412 46.8818 11.4907 46.8818H12.9003C13.979 46.8818 14.8534 46.0072 14.8534 44.9287C14.8534 43.8502 13.979 42.9756 12.9003 42.9756Z" fill="#212833"/>
<path d="M7.42675 37.5615C6.34805 37.5615 5.47363 38.4361 5.47363 39.5146V40.7572C5.47363 41.8357 6.34805 42.7103 7.42675 42.7103C8.50546 42.7103 9.37988 41.8357 9.37988 40.7572V39.5146C9.37988 38.4361 8.50546 37.5615 7.42675 37.5615Z" fill="#212833"/>
<path d="M3.19589 42.9756H1.95312C0.874413 42.9756 0 43.8502 0 44.9287C0 46.0072 0.874413 46.8818 1.95312 46.8818H3.19589C4.2746 46.8818 5.14901 46.0072 5.14901 44.9287C5.14901 43.8502 4.2746 42.9756 3.19589 42.9756Z" fill="#212833"/>
<path d="M7.42675 47.083C6.34805 47.083 5.47363 47.9576 5.47363 49.0361V50.4621C5.47363 51.5406 6.34805 52.4152 7.42675 52.4152C8.50546 52.4152 9.37988 51.5406 9.37988 50.4621V49.0361C9.37988 47.9576 8.50546 47.083 7.42675 47.083Z" fill="#212833"/>
</g>
<defs>
<clipPath id="clip0_856_694">
<rect width="100" height="100" fill="white" transform="translate(0 0.40332)"/>
</clipPath>
</defs>
</svg>
